# Blender 3.6.5
# www.blender.org
mtllib grass_blade.mtl
o Plane
v -0.026746 -0.149205 0.000000
v 0.046963 -0.149496 0.000000
v 0.007794 0.174981 -0.000000
v -0.019603 -0.053567 0.000000
v -0.011656 0.044987 -0.000000
v 0.035622 -0.053220 0.000000
v 0.028103 0.044969 -0.000000
vn -0.0000 -0.0000 1.0000
vt 0.333333 0.666667
vt 0.666667 0.666667
vt 0.333333 1.000000
vt 0.666667 0.000000
vt 0.666667 0.333333
vt 0.333333 0.333333
vt 0.333333 0.000000
s 0
f 5/1/1 7/2/1 3/3/1
f 2/4/1 6/5/1 4/6/1
f 4/6/1 6/5/1 7/2/1
f 5/1/1 4/6/1 7/2/1
f 1/7/1 2/4/1 4/6/1
