# Blender 3.6.5
# www.blender.org
mtllib test_axe.mtl
o Cube.001
v -0.093596 -0.387091 0.028994
v -0.081966 -0.387091 0.061991
v -0.113264 -0.376011 0.073022
v -0.124894 -0.376011 0.040026
v -0.073408 0.133340 -0.066110
v -0.044469 0.133061 -0.087966
v -0.025158 0.150503 -0.062676
v -0.054128 0.150763 -0.040827
v -0.071034 0.178856 -0.082487
v -0.059721 0.178632 -0.090958
v -0.052140 0.185211 -0.081007
v -0.063453 0.185435 -0.072537
v 0.131517 0.141753 0.017080
v 0.126402 0.141781 0.033133
v 0.117234 0.155607 0.030188
v 0.122349 0.155579 0.014135
v 0.186501 0.183896 0.035177
v 0.181922 0.183947 0.049674
v 0.173529 0.196334 0.046978
v 0.178108 0.196282 0.032481
v -0.021786 -0.126961 0.010601
v -0.015119 -0.126962 0.025049
v -0.028879 -0.122258 0.031458
v -0.035612 -0.122247 0.016976
v -0.080579 -0.348749 0.022889
v -0.068007 -0.348774 0.058582
v -0.101856 -0.336791 0.070515
v -0.114439 -0.336788 0.034831
v -0.065978 -0.302402 0.017563
v -0.053509 -0.302995 0.053516
v -0.087449 -0.291001 0.065530
v -0.100191 -0.290941 0.029780
v -0.048047 -0.242778 0.009872
v -0.038201 -0.252471 0.047355
v -0.070907 -0.240918 0.059589
v -0.085234 -0.240172 0.025513
v -0.049123 -0.171545 -0.002571
v -0.019801 -0.171478 0.014544
v -0.040048 -0.164235 0.047470
v -0.069883 -0.162975 0.026692
v -0.044646 -0.125892 -0.011798
v -0.012070 -0.125898 0.007266
v -0.031064 -0.117081 0.039113
v -0.063467 -0.116926 0.019919
v -0.039492 -0.083495 -0.020689
v -0.006667 -0.083498 -0.001481
v -0.025350 -0.074490 0.030411
v -0.058166 -0.074477 0.011200
v -0.034262 -0.041129 -0.029637
v -0.001302 -0.041180 -0.010319
v -0.019835 -0.031834 0.021593
v -0.052980 -0.031790 0.002240
v -0.028419 0.003964 -0.039724
v 0.006383 0.003167 -0.018844
v -0.010039 0.017601 0.013365
v -0.048086 0.018322 -0.008255
v -0.053262 0.067058 -0.035640
v -0.018543 0.065536 -0.057727
v 0.007972 0.090494 -0.030338
v -0.031646 0.085250 -0.009841
v -0.063820 0.101371 -0.051914
v -0.033335 0.101260 -0.074826
v -0.012706 0.120352 -0.048505
v -0.043688 0.120040 -0.025708
v -0.072870 0.162162 -0.076694
v -0.054079 0.161821 -0.090785
v -0.041495 0.172813 -0.074272
v -0.060289 0.173153 -0.060181
v 0.030328 0.058687 -0.024550
v 0.024037 0.059020 0.009923
v 0.004690 0.084065 0.004323
v 0.058636 0.081352 -0.012412
v 0.050223 0.081360 0.014807
v 0.034870 0.104671 0.009924
v 0.042894 0.105036 -0.017319
v 0.079501 0.098619 -0.003900
v 0.071866 0.098619 0.019911
v 0.058448 0.119268 0.015603
v 0.066056 0.119282 -0.008210
v 0.098076 0.114074 0.003652
v 0.091352 0.114074 0.024585
v 0.079556 0.132238 0.020796
v 0.086279 0.132238 -0.000138
v 0.115319 0.128415 0.010650
v 0.109448 0.128419 0.028938
v 0.099129 0.144276 0.025623
v 0.104999 0.144272 0.007335
v 0.146191 0.152856 0.021848
v 0.141202 0.152909 0.037627
v 0.132080 0.166405 0.034698
v 0.137070 0.166351 0.018918
v 0.160625 0.163634 0.026381
v 0.155646 0.163690 0.042140
v 0.146523 0.177155 0.039210
v 0.151501 0.177099 0.023451
v 0.174866 0.174315 0.030885
v 0.169913 0.174372 0.046565
v 0.160835 0.187769 0.043649
v 0.165788 0.187712 0.027970
v -0.032714 -0.182734 0.003561
v -0.018965 -0.179633 0.036395
v -0.054762 -0.163919 0.015047
v -0.025169 -0.145920 0.009133
v -0.016266 -0.145940 0.028943
v -0.034621 -0.139297 0.038036
v -0.044486 -0.138993 0.017715
v -0.024573 -0.168121 0.009190
v -0.017669 -0.168398 0.033694
v -0.035654 -0.158405 0.048408
v -0.054842 -0.151877 0.017062
v 0.186501 0.183896 0.035177
v 0.181922 0.183947 0.049674
v 0.169913 0.174372 0.046565
v 0.198372 -0.149627 0.137323
v 0.192129 -0.154022 0.131532
v 0.126170 -0.143422 0.146316
v 0.196210 -0.149126 0.141072
v 0.196277 -0.115421 0.140789
v 0.186060 -0.119131 0.072566
v 0.196857 -0.109472 0.138565
v 0.192919 -0.114820 0.144784
v 0.192372 -0.104675 0.144648
v 0.150589 -0.110145 0.141601
v 0.201671 -0.073280 0.132409
v 0.200019 -0.074527 0.082170
v 0.202555 -0.063691 0.131484
v 0.196628 -0.071635 0.137809
v 0.198192 -0.062079 0.136025
v 0.154891 -0.066282 0.133842
v 0.210229 -0.030677 0.081794
v 0.211985 -0.017449 0.120627
v 0.210765 -0.024127 0.123675
v 0.205790 -0.022871 0.129404
v 0.207754 -0.013481 0.127061
v 0.169403 -0.013400 0.122082
v 0.229488 0.060393 0.120175
v 0.204721 0.082887 0.091729
v 0.237647 0.062040 0.121808
v 0.165080 0.079191 0.116775
v -0.145355 -0.551456 0.047235
v -0.133725 -0.551457 0.080232
v -0.165023 -0.540376 0.091263
v -0.176653 -0.540376 0.058267
v -0.122151 -0.544245 0.054011
v -0.110521 -0.544246 0.087008
v -0.141819 -0.533166 0.098040
v -0.153450 -0.533166 0.065043
v -0.119371 -0.535418 0.053032
v -0.107741 -0.535419 0.086029
v -0.139039 -0.524338 0.097060
v -0.150670 -0.524338 0.064064
vn -0.3623 0.0070 -0.9320
vn -0.7158 -0.2394 -0.6559
vn -0.8848 0.3114 0.3466
vn -0.2678 0.8849 -0.3810
vn 0.3433 0.0043 0.9392
vn 0.8966 -0.3103 -0.3159
vn 0.7458 -0.2551 -0.6154
vn -0.3348 -0.0013 -0.9423
vn -0.3007 0.8364 -0.4583
vn 0.2458 -0.1632 -0.9555
vn -0.8946 0.3145 0.3174
vn 0.3326 -0.0015 0.9431
vn 0.8941 -0.3180 -0.3153
vn -0.3427 -0.0331 -0.9389
vn -0.9044 0.2834 0.3189
vn 0.3218 -0.0331 0.9462
vn 0.8836 -0.3496 -0.3115
vn 0.2686 0.9552 -0.1240
vn -0.7458 0.2673 0.6102
vn 0.7775 0.5799 0.2435
vn -0.8177 0.2135 0.5346
vn -0.6126 -0.0011 -0.7904
vn -0.4237 0.1699 0.8897
vn 0.5672 0.2563 -0.7827
vn 0.9781 0.1589 -0.1344
vn 0.5113 -0.0821 0.8555
vn -0.0867 0.1531 0.9844
vn 0.3324 -0.0000 0.9431
vn -0.0376 0.9832 0.1788
vn 0.4006 0.0072 0.9162
vn 0.4963 -0.3077 -0.8118
vn 0.9141 -0.3124 -0.2585
vn 0.4005 -0.1721 -0.9000
vn 0.3351 0.7449 -0.5770
vn 0.4926 -0.2183 -0.8424
vn 0.8465 -0.0635 0.5286
vn -0.5236 0.2201 0.8230
vn -0.8382 0.0044 -0.5453
vn 0.4908 -0.2356 -0.8388
vn 0.3769 -0.0757 -0.9232
vn -0.4927 0.2354 0.8377
vn -0.8614 0.0007 -0.5080
vn 0.4907 -0.2375 -0.8383
vn 0.8145 0.0033 0.5801
vn -0.4903 0.2362 0.8389
vn -0.8627 -0.0008 -0.5057
vn 0.4920 -0.2481 -0.8345
vn 0.7742 0.0173 0.6327
vn -0.4836 0.2302 0.8445
vn -0.8575 -0.0145 -0.5142
vn -0.4961 -0.5133 -0.7003
vn 0.7366 0.0352 -0.6754
vn 0.3938 0.5763 0.7161
vn -0.7889 0.0275 0.6139
vn -0.5319 -0.4737 -0.7019
vn 0.7825 0.0236 -0.6222
vn 0.5095 0.5211 0.6848
vn -0.8016 0.0232 0.5973
vn -0.5815 -0.2702 -0.7674
vn 0.7207 0.1770 -0.6703
vn 0.4620 0.6502 0.6032
vn -0.8402 0.2019 0.5032
vn -0.5893 -0.2061 -0.7812
vn 0.6961 0.2271 -0.6811
vn 0.4421 0.6904 0.5727
vn -0.8434 0.2570 0.4719
vn 0.6019 -0.7848 0.1478
vn -0.2211 0.0524 0.9738
vn -0.4771 0.8788 0.0093
vn 0.3417 0.0538 -0.9383
vn 0.5836 -0.7910 0.1837
vn -0.2551 0.0351 0.9663
vn -0.4867 0.8618 -0.1426
vn 0.3494 0.0354 -0.9363
vn 0.5824 -0.7911 0.1869
vn -0.2583 0.0337 0.9655
vn -0.4884 0.8585 -0.1562
vn 0.3520 0.0337 -0.9354
vn 0.5822 -0.7912 0.1870
vn -0.2587 0.0334 0.9654
vn -0.4889 0.8581 -0.1571
vn 0.3519 0.0334 -0.9354
vn 0.5794 -0.7935 0.1861
vn -0.2627 0.0309 0.9644
vn -0.4946 0.8545 -0.1590
vn 0.3473 0.0303 -0.9373
vn 0.5561 -0.8117 0.1786
vn -0.2957 0.0075 0.9553
vn -0.5439 0.8208 -0.1747
vn 0.3080 0.0016 -0.9514
vn 0.5524 -0.8145 0.1774
vn -0.3008 0.0038 0.9537
vn -0.5515 0.8152 -0.1771
vn 0.3017 -0.0030 -0.9534
vn 0.5538 -0.8134 0.1779
vn -0.2994 0.0047 0.9541
vn -0.5503 0.8160 -0.1768
vn 0.3030 -0.0021 -0.9530
vn 0.5825 -0.7911 0.1868
vn -0.2702 0.0264 0.9625
vn -0.5209 0.8370 -0.1675
vn 0.3318 0.0196 -0.9432
vn 0.9404 -0.0532 -0.3358
vn 0.6065 0.2402 0.7579
vn 0.9021 -0.1339 -0.4101
vn 0.4746 0.1609 0.8654
vn -0.8110 0.4354 0.3907
vn -0.3646 0.1440 -0.9200
vn -0.0000 -0.0000 1.0000
vn 0.4966 -0.0325 -0.8674
vn -0.4731 0.3322 0.8160
vn -0.4933 0.2174 0.8423
vn -0.4716 0.2757 0.8376
vn -0.1160 0.9927 -0.0334
vn -0.5455 0.1746 0.8197
vn 0.7364 -0.0239 0.6762
vn 0.9237 -0.2946 -0.2448
vn -0.1888 -0.9799 0.0642
vn 0.9793 -0.1473 -0.1387
vn -0.0739 0.0094 0.9972
vn 0.9951 -0.0946 -0.0304
vn -0.0682 0.1938 0.9787
vn 0.9848 -0.1733 0.0145
vn -0.1236 0.2646 0.9564
vn 0.0192 0.0089 0.9998
vn -0.0823 0.1947 0.9774
vn -0.1014 0.2181 0.9707
vn -0.0782 0.0743 0.9942
vn -0.0185 -0.8863 0.4628
vn 0.9760 -0.0543 -0.2111
vn 0.8077 0.0839 0.5837
vn 0.7271 0.0042 0.6866
vn 0.9766 -0.2149 0.0081
vn 0.8048 0.0392 0.5923
vn 0.9715 -0.2222 -0.0832
vn 0.2442 0.9014 0.3574
vn 0.9277 -0.0397 -0.3712
vn 0.2613 -0.6348 -0.7271
vn 0.3252 -0.9387 -0.1146
vn 0.8946 -0.3167 -0.3153
vn -0.3324 -0.0000 -0.9431
vn -0.8946 0.3167 0.3153
vn -0.3252 0.9387 0.1146
vn -0.0066 0.6961 -0.7180
vn 0.0066 -0.6961 0.7179
vn -0.2987 -0.9485 0.1053
s 0
usemtl Material.001
f 36//1 33//1 29//1 32//1
f 57//2 58//2 53//2 56//2
f 35//3 36//3 32//3 31//3
f 12//4 11//4 10//4 9//4
f 34//5 35//5 31//5 30//5
f 33//6 34//6 30//6 29//6
f 33//7 100//7 38//7
f 32//8 29//8 25//8 28//8
f 40//9 102//9 37//9
f 100//10 33//10 37//10
f 31//11 32//11 28//11 27//11
f 30//12 31//12 27//12 26//12
f 29//13 30//13 26//13 25//13
f 28//14 25//14 1//14 4//14
f 27//15 28//15 4//15 3//15
f 26//16 27//16 3//16 2//16
f 25//17 26//17 2//17 1//17
f 24//18 23//18 22//18 21//18
f 35//19 39//19 40//19 36//19
f 20//20 19//20 18//20 17//20
f 60//21 57//21 56//21
f 36//22 40//22 37//22 33//22
f 71//23 60//23 56//23 55//23
f 59//24 69//24 58//24
f 38//25 107//25 108//25 101//25
f 101//26 108//26 109//26 39//26
f 70//27 71//27 55//27
f 2//28 3//28 142//28 141//28
f 71//29 59//29 60//29
f 34//30 101//30 39//30 35//30
f 69//31 54//31 53//31 58//31
f 34//32 33//32 38//32 101//32
f 50//33 54//33 130//33 125//33
f 100//34 37//34 102//34 38//34
f 41//35 42//35 38//35 37//35
f 42//36 43//36 39//36 38//36
f 43//37 44//37 40//37 39//37
f 44//38 41//38 37//38 40//38
f 45//39 46//39 42//39 41//39
f 46//40 50//40 125//40 119//40
f 47//41 48//41 44//41 43//41
f 48//42 45//42 41//42 44//42
f 49//43 50//43 46//43 45//43
f 118//44 121//44 117//44 114//44
f 51//45 52//45 48//45 47//45
f 52//46 49//46 45//46 48//46
f 53//47 54//47 50//47 49//47
f 124//48 127//48 122//48 120//48
f 55//49 56//49 52//49 51//49
f 56//50 53//50 49//50 52//50
f 61//51 62//51 58//51 57//51
f 62//52 63//52 59//52 58//52
f 63//53 64//53 60//53 59//53
f 64//54 61//54 57//54 60//54
f 5//55 6//55 62//55 61//55
f 6//56 7//56 63//56 62//56
f 7//57 8//57 64//57 63//57
f 8//58 5//58 61//58 64//58
f 65//59 66//59 6//59 5//59
f 66//60 67//60 7//60 6//60
f 67//61 68//61 8//61 7//61
f 68//62 65//62 5//62 8//62
f 9//63 10//63 66//63 65//63
f 10//64 11//64 67//64 66//64
f 11//65 12//65 68//65 67//65
f 12//66 9//66 65//66 68//66
f 72//67 73//67 70//67 69//67
f 73//68 74//68 71//68 70//68
f 74//69 75//69 59//69 71//69
f 75//70 72//70 69//70 59//70
f 76//71 77//71 73//71 72//71
f 77//72 78//72 74//72 73//72
f 78//73 79//73 75//73 74//73
f 79//74 76//74 72//74 75//74
f 80//75 81//75 77//75 76//75
f 81//76 82//76 78//76 77//76
f 82//77 83//77 79//77 78//77
f 83//78 80//78 76//78 79//78
f 84//79 85//79 81//79 80//79
f 85//80 86//80 82//80 81//80
f 86//81 87//81 83//81 82//81
f 87//82 84//82 80//82 83//82
f 13//83 14//83 85//83 84//83
f 14//84 15//84 86//84 85//84
f 15//85 16//85 87//85 86//85
f 16//86 13//86 84//86 87//86
f 88//87 89//87 14//87 13//87
f 89//88 90//88 15//88 14//88
f 90//89 91//89 16//89 15//89
f 91//90 88//90 13//90 16//90
f 92//91 93//91 89//91 88//91
f 93//92 94//92 90//92 89//92
f 94//93 95//93 91//93 90//93
f 95//94 92//94 88//94 91//94
f 96//95 97//95 93//95 92//95
f 97//96 98//96 94//96 93//96
f 98//97 99//97 95//97 94//97
f 99//98 96//98 92//98 95//98
f 17//99 18//99 97//99 96//99
f 18//100 19//100 98//100 97//100
f 19//101 20//101 99//101 98//101
f 20//102 17//102 96//102 99//102
f 103//103 104//103 108//103 107//103
f 104//104 105//104 109//104 108//104
f 21//105 22//105 104//105 103//105
f 22//106 23//106 105//106 104//106
f 23//107 24//107 106//107 105//107
f 24//108 21//108 103//108 106//108
f 18//109 97//109 113//109 112//109
f 18//109 17//109 111//109 112//109
f 54//110 69//110 137//110 130//110
f 47//111 43//111 116//111 123//111
f 51//112 47//112 123//112 129//112
f 55//113 51//113 129//113 135//113
f 69//114 70//114 139//114 137//114
f 70//115 55//115 135//115 139//115
f 132//116 133//116 128//116 126//116
f 138//117 134//117 131//117 136//117
f 43//118 42//118 115//118 116//118
f 118//119 119//119 120//119
f 121//120 122//120 123//120
f 124//121 125//121 126//121
f 127//122 128//122 129//122
f 130//123 131//123 132//123
f 133//124 134//124 135//124
f 117//125 121//125 123//125 116//125
f 122//126 127//126 129//126 123//126
f 128//127 133//127 135//127 129//127
f 134//128 138//128 139//128 135//128
f 114//129 117//129 116//129 115//129
f 115//130 119//130 118//130 114//130
f 120//131 122//131 121//131 118//131
f 126//132 128//132 127//132 124//132
f 125//133 130//133 132//133 126//133
f 131//134 134//134 133//134 132//134
f 119//135 125//135 124//135 120//135
f 137//136 139//136 138//136 136//136
f 130//137 137//137 136//137 131//137
f 42//138 46//138 119//138 115//138
f 142//139 143//139 147//139 146//139
f 1//140 2//140 141//140 140//140
f 4//141 1//141 140//141 143//141
f 3//142 4//142 143//142 142//142
f 145//141 146//141 150//141 149//141
f 140//143 141//143 145//143 144//143
f 141//144 142//144 146//144 145//144
f 143//145 140//145 144//145 147//145
f 148//146 149//146 150//146 151//146
f 147//28 144//28 148//28 151//28
f 146//140 147//140 151//140 150//140
f 144//142 145//142 149//142 148//142
l 106 110
