# Blender 3.6.5
# www.blender.org
o Shield_5
v 0.417017 -1.235583 -0.349377
v 0.417017 -1.235583 -0.155299
v 0.485634 -1.264005 -0.349377
v 0.485634 -1.264005 -0.155299
v 0.514056 -1.332622 -0.349377
v 0.514056 -1.332622 -0.155298
v 0.485634 -1.401239 -0.349377
v 0.485634 -1.401239 -0.155298
v 0.417017 -1.429661 -0.349377
v 0.417017 -1.429661 -0.155298
v 0.348399 -1.401239 -0.349377
v 0.348399 -1.401239 -0.155298
v 0.319977 -1.332622 -0.349377
v 0.319977 -1.332622 -0.155298
v 0.348399 -1.264005 -0.349377
v 0.348399 -1.264005 -0.155299
v 0.385714 -1.249289 -0.406072
v 0.433241 -1.273696 -0.440907
v 0.452927 -1.332622 -0.455335
v 0.433241 -1.391548 -0.440907
v 0.385714 -1.415956 -0.406072
v 0.338187 -1.391548 -0.371238
v 0.318501 -1.332622 -0.356809
v 0.338187 -1.273696 -0.371238
v 0.307809 -1.249289 -0.454363
v 0.329779 -1.273696 -0.509040
v 0.338879 -1.332622 -0.531688
v 0.329779 -1.391548 -0.509040
v 0.307809 -1.415956 -0.454363
v 0.285839 -1.391548 -0.399687
v 0.276739 -1.332622 -0.377039
v 0.285839 -1.273696 -0.399687
v -0.416207 -1.235583 -0.349377
v -0.416207 -1.235583 -0.155299
v -0.484824 -1.264005 -0.349377
v -0.484824 -1.264005 -0.155299
v -0.513246 -1.332622 -0.349377
v -0.513246 -1.332622 -0.155298
v -0.484824 -1.401239 -0.349377
v -0.484824 -1.401239 -0.155298
v -0.416207 -1.429661 -0.349377
v -0.416207 -1.429661 -0.155298
v -0.347590 -1.401239 -0.349377
v -0.347590 -1.401239 -0.155298
v -0.319168 -1.332622 -0.349377
v -0.319168 -1.332622 -0.155298
v -0.347590 -1.264005 -0.349377
v -0.347590 -1.264005 -0.155299
v -0.384904 -1.249289 -0.406072
v -0.432431 -1.273696 -0.440907
v -0.452118 -1.332622 -0.455335
v -0.432431 -1.391548 -0.440907
v -0.384904 -1.415956 -0.406072
v -0.337377 -1.391548 -0.371238
v -0.317691 -1.332622 -0.356809
v -0.337377 -1.273696 -0.371238
v -0.306999 -1.249289 -0.454363
v -0.328969 -1.273696 -0.509040
v -0.338070 -1.332622 -0.531688
v -0.328969 -1.391548 -0.509040
v -0.306999 -1.415956 -0.454363
v -0.285029 -1.391548 -0.399687
v -0.275929 -1.332622 -0.377039
v -0.285029 -1.273696 -0.399687
v 0.000405 -1.240552 -0.475179
v 0.000405 -1.264960 -0.534105
v 0.000405 -1.323886 -0.558513
v 0.000405 -1.382811 -0.534105
v 0.000405 -1.407219 -0.475179
v 0.000405 -1.382811 -0.416254
v 0.000405 -1.323886 -0.391846
v 0.000405 -1.264960 -0.416254
v -1.226559 -0.892618 0.200424
v -1.180908 -0.246611 0.200424
v -1.226559 -0.892618 -0.200424
v -1.180908 -0.246611 -0.200424
v 1.170852 -0.892618 0.200424
v 1.117836 -0.246611 0.200424
v 1.170852 -0.892618 -0.200424
v 1.117836 -0.246611 -0.200424
v -1.115863 -1.702702 0.200424
v -1.115863 -1.702702 -0.200424
v 1.060155 -1.702702 0.200424
v 1.060155 -1.702702 -0.200424
v -0.954565 -2.129837 0.200424
v -0.954565 -2.129837 -0.200424
v 0.898858 -2.129837 0.200424
v 0.898858 -2.129837 -0.200424
v -0.628676 -2.575383 0.200424
v -0.628676 -2.575383 -0.200424
v 0.572969 -2.575383 0.200424
v 0.572969 -2.575383 -0.200424
v -0.269035 -2.851547 0.200424
v -0.269035 -2.851547 -0.200424
v 0.213327 -2.851547 0.200424
v 0.213327 -2.851547 -0.200424
v -0.031382 -2.965695 0.200424
v -0.031382 -2.965695 -0.200424
v -0.024325 -2.965695 0.200424
v -0.024325 -2.965695 -0.200424
v -1.081779 -1.015455 0.200424
v -1.041644 -0.447508 0.200424
v 0.979335 -0.447508 0.200424
v 1.025944 -1.015455 0.200424
v -0.984458 -1.727654 0.200424
v 0.928624 -1.727654 0.200424
v -0.842650 -2.103176 0.200424
v 0.786816 -2.103176 0.200424
v -0.556140 -2.494885 0.200424
v 0.500306 -2.494885 0.200424
v -0.239956 -2.737680 0.200424
v 0.184121 -2.737680 0.200424
v -0.031020 -2.838035 0.200424
v -0.024815 -2.838035 0.200424
v -1.052812 -1.040032 0.133911
v -1.013781 -0.487701 0.133911
v 0.951624 -0.487701 0.133911
v 0.996952 -1.040032 0.133911
v -0.958168 -1.732646 0.133911
v 0.902308 -1.732646 0.133911
v -0.820260 -2.097842 0.133911
v 0.764400 -2.097842 0.133911
v -0.541628 -2.478780 0.133911
v 0.485768 -2.478780 0.133911
v -0.234138 -2.714898 0.133911
v 0.178278 -2.714898 0.133911
v -0.030947 -2.812494 0.133911
v -0.024913 -2.812494 0.133911
vn 0.3827 0.9239 -0.0000
vn 0.9239 0.3827 -0.0000
vn 0.9239 -0.3827 -0.0000
vn 0.3827 -0.9239 -0.0000
vn -0.3827 -0.9239 -0.0000
vn -0.9239 -0.3827 -0.0000
vn -0.0000 -0.0000 1.0000
vn -0.9239 0.3827 -0.0000
vn -0.3827 0.9239 -0.0000
vn -0.4247 -0.9042 -0.0448
vn -0.4278 -0.3647 0.8270
vn -0.4247 0.9042 -0.0448
vn 0.3121 -0.8954 -0.3175
vn -0.8996 0.3662 0.2378
vn 0.8023 -0.3568 -0.4787
vn -0.8996 -0.3662 0.2378
vn 0.8023 0.3568 -0.4787
vn 0.3121 0.8954 -0.3175
vn -0.0402 0.3732 0.9269
vn 0.5142 0.3692 -0.7741
vn -0.4278 0.3647 0.8270
vn 0.5142 -0.3692 -0.7741
vn -0.2022 0.9172 0.3432
vn 0.2144 -0.9178 -0.3341
vn -0.2022 -0.9172 0.3432
vn 0.2144 0.9178 -0.3341
vn 0.0621 -0.3742 -0.9253
vn 0.0022 0.9186 0.3952
vn -0.0000 0.9186 0.3952
vn 0.0032 -0.9190 -0.3943
vn -0.0000 -0.9190 -0.3943
vn -0.0515 -0.9211 0.3859
vn 0.0531 0.9212 -0.3856
vn -0.0633 -0.3743 0.9252
vn 0.0816 0.3750 -0.9234
vn 0.4247 -0.9042 -0.0448
vn 0.4278 -0.3647 0.8270
vn 0.4247 0.9042 -0.0448
vn -0.3121 -0.8954 -0.3175
vn 0.8996 0.3662 0.2378
vn -0.8023 -0.3568 -0.4787
vn 0.8996 -0.3662 0.2378
vn -0.8023 0.3568 -0.4787
vn -0.3121 0.8954 -0.3175
vn 0.0402 0.3732 0.9269
vn -0.5142 0.3692 -0.7741
vn 0.4278 0.3647 0.8270
vn -0.5142 -0.3692 -0.7741
vn 0.2022 0.9172 0.3432
vn -0.2144 -0.9178 -0.3341
vn 0.2022 -0.9172 0.3432
vn -0.2144 0.9178 -0.3341
vn -0.0621 -0.3742 -0.9253
vn -0.0022 0.9186 0.3952
vn -0.0032 -0.9190 -0.3943
vn 0.0515 -0.9211 0.3859
vn -0.0531 0.9212 -0.3856
vn 0.0633 -0.3743 0.9252
vn -0.0816 0.3750 -0.9234
vn -0.9975 0.0705 -0.0000
vn -0.0000 -0.0000 -1.0000
vn 0.9966 0.0818 -0.0000
vn -0.0000 1.0000 -0.0000
vn -0.9355 -0.3533 -0.0000
vn -0.9908 -0.1354 -0.0000
vn 0.9908 -0.1354 -0.0000
vn -0.8071 -0.5904 -0.0000
vn 0.9355 -0.3533 -0.0000
vn -0.6090 -0.7931 -0.0000
vn 0.8071 -0.5904 -0.0000
vn -0.4330 -0.9014 -0.0000
vn 0.6090 -0.7931 -0.0000
vn -0.0000 -1.0000 -0.0000
vn 0.4330 -0.9014 -0.0000
vn 0.9061 -0.0640 0.4183
vn 0.4091 0.8517 0.3275
vn -0.7689 0.5624 0.3042
vn -0.9256 0.1265 0.3567
vn -0.9038 -0.0742 0.4214
vn -0.4091 0.8517 0.3276
vn 0.9257 0.1265 0.3564
vn 0.7689 0.5624 0.3040
vn -0.0000 0.9335 0.3585
vn -0.8847 0.3341 0.3250
vn -0.5792 0.7543 0.3092
vn 0.5792 0.7543 0.3090
vn -0.0000 -0.8559 0.5172
vn 0.8848 0.3341 0.3247
s 1
f 1//1 2//1 4//1 3//1
f 3//2 4//2 6//2 5//2
f 5//3 6//3 8//3 7//3
f 7//4 8//4 10//4 9//4
f 9//5 10//5 12//5 11//5
f 11//6 12//6 14//6 13//6
f 4//7 2//7 16//7 14//7 12//7 10//7 8//7 6//7
f 13//8 14//8 16//8 15//8
f 15//9 16//9 2//9 1//9
f 9//10 11//10 22//10 21//10
f 22//11 23//11 31//11 30//11
f 15//12 1//12 17//12 24//12
f 7//13 9//13 21//13 20//13
f 13//14 15//14 24//14 23//14
f 5//15 7//15 20//15 19//15
f 11//16 13//16 23//16 22//16
f 3//17 5//17 19//17 18//17
f 1//18 3//18 18//18 17//18
f 31//19 32//19 72//19 71//19
f 18//20 19//20 27//20 26//20
f 23//21 24//21 32//21 31//21
f 19//22 20//22 28//22 27//22
f 24//23 17//23 25//23 32//23
f 20//24 21//24 29//24 28//24
f 21//25 22//25 30//25 29//25
f 17//26 18//26 26//26 25//26
f 27//27 28//27 68//27 67//27
f 32//28 25//28 65//29 72//29
f 28//30 29//30 69//31 68//31
f 29//32 30//32 70//32 69//32
f 25//33 26//33 66//33 65//33
f 30//34 31//34 71//34 70//34
f 26//35 27//35 67//35 66//35
f 33//9 35//9 36//9 34//9
f 35//8 37//8 38//8 36//8
f 37//6 39//6 40//6 38//6
f 39//5 41//5 42//5 40//5
f 41//4 43//4 44//4 42//4
f 43//3 45//3 46//3 44//3
f 36//7 38//7 40//7 42//7 44//7 46//7 48//7 34//7
f 45//2 47//2 48//2 46//2
f 47//1 33//1 34//1 48//1
f 41//36 53//36 54//36 43//36
f 54//37 62//37 63//37 55//37
f 47//38 56//38 49//38 33//38
f 39//39 52//39 53//39 41//39
f 45//40 55//40 56//40 47//40
f 37//41 51//41 52//41 39//41
f 43//42 54//42 55//42 45//42
f 35//43 50//43 51//43 37//43
f 33//44 49//44 50//44 35//44
f 63//45 71//45 72//45 64//45
f 50//46 58//46 59//46 51//46
f 55//47 63//47 64//47 56//47
f 51//48 59//48 60//48 52//48
f 56//49 64//49 57//49 49//49
f 52//50 60//50 61//50 53//50
f 53//51 61//51 62//51 54//51
f 49//52 57//52 58//52 50//52
f 59//53 67//53 68//53 60//53
f 64//54 72//29 65//29 57//54
f 60//55 68//31 69//31 61//55
f 61//56 69//56 70//56 62//56
f 57//57 65//57 66//57 58//57
f 62//58 70//58 71//58 63//58
f 58//59 66//59 67//59 59//59
f 73//60 74//60 76//60 75//60
f 75//61 76//61 80//61 79//61
f 79//62 80//62 78//62 77//62
f 83//7 77//7 104//7 106//7
f 75//61 79//61 84//61 82//61
f 80//63 76//63 74//63 78//63
f 81//64 82//64 86//64 85//64
f 73//65 75//65 82//65 81//65
f 81//7 85//7 107//7 105//7
f 79//66 77//66 83//66 84//66
f 85//67 86//67 90//67 89//67
f 82//61 84//61 88//61 86//61
f 84//68 83//68 87//68 88//68
f 95//7 91//7 110//7 112//7
f 89//69 90//69 94//69 93//69
f 86//61 88//61 92//61 90//61
f 88//70 87//70 91//70 92//70
f 77//7 78//7 103//7 104//7
f 93//71 94//71 98//71 97//71
f 90//61 92//61 96//61 94//61
f 92//72 91//72 95//72 96//72
f 93//7 97//7 113//7 111//7
f 98//73 100//73 99//73 97//73
f 94//61 96//61 100//61 98//61
f 96//74 95//74 99//74 100//74
f 87//7 83//7 106//7 108//7
f 102//75 101//75 115//75 116//75
f 111//76 113//76 127//76 125//76
f 110//77 108//77 122//77 124//77
f 106//78 104//78 118//78 120//78
f 104//79 103//79 117//79 118//79
f 114//80 112//80 126//80 128//80
f 89//7 93//7 111//7 109//7
f 73//7 81//7 105//7 101//7
f 74//7 73//7 101//7 102//7
f 97//7 99//7 114//7 113//7
f 91//7 87//7 108//7 110//7
f 99//7 95//7 112//7 114//7
f 78//7 74//7 102//7 103//7
f 85//7 89//7 109//7 107//7
f 101//81 105//81 119//81 115//81
f 107//82 109//82 123//82 121//82
f 113//83 114//83 128//83 127//83
f 108//84 106//84 120//84 122//84
f 112//85 110//85 124//85 126//85
f 109//86 111//86 125//86 123//86
f 103//87 102//87 116//87 117//87
f 105//88 107//88 121//88 119//88
f 118//7 117//7 116//7 115//7 119//7 121//7 123//7 125//7 127//7 128//7 126//7 124//7 122//7 120//7
