# Blender 3.6.5
# www.blender.org
o Plant_3_LOD4
v -1.137922 0.233449 -0.317727
v -0.405737 0.303243 -0.263510
v -0.139664 -0.021196 0.100568
v -0.071720 -0.017594 -0.150690
v -1.225501 0.343630 0.042338
v -0.109093 0.018723 0.111981
v -0.067237 -0.012133 -0.149997
v -1.139157 0.241688 -0.320958
v -1.225501 0.343630 0.042338
v -0.394384 0.298230 -0.260555
v -0.325795 0.526093 -0.897193
v 0.048798 -0.080422 -0.161515
v -0.178069 0.053318 0.068775
v -0.374798 0.467969 -1.104073
v -0.740449 0.514449 -0.909293
v -0.178494 0.058393 0.072856
v -0.740449 0.514449 -0.909293
v 0.054014 -0.063008 -0.148977
v -0.324233 0.533885 -0.896676
v -0.374812 0.468154 -1.104089
v 1.108848 0.463847 -0.505166
v 1.089143 0.392355 -0.324678
v 0.103614 0.308353 -0.354262
v 0.034124 -0.014026 0.071302
v 0.906817 0.456024 -0.672872
v -0.086437 -0.007723 -0.154854
v -0.086437 -0.007723 -0.154854
v 1.087401 0.385782 -0.326375
v 0.906817 0.456024 -0.672872
v 0.110354 0.293322 -0.354943
v 0.030853 -0.010712 0.074881
v 1.109192 0.465559 -0.505327
v 0.954094 0.512043 0.493677
v 0.651726 0.566856 0.762723
v -0.150716 -0.006562 0.112583
v 0.033979 0.022084 -0.131769
v 0.018592 0.058567 -0.158023
v 0.651337 0.575301 0.764102
v -0.110985 -0.055491 0.132899
v 0.955289 0.481410 0.500087
v -0.065593 0.537115 0.987599
v -0.145588 0.018342 -0.061988
v 0.284297 0.248786 0.111540
v 0.319967 0.493485 1.017987
v 0.114748 -0.007723 -0.031324
v 0.114748 -0.007723 -0.031324
v -0.068335 0.551057 0.988808
v 0.284252 0.248571 0.111458
v -0.145599 0.018167 -0.061895
v 0.318916 0.489558 1.017022
v -0.493419 0.523064 0.951262
v -0.765302 0.598484 0.683289
v -0.370829 0.328575 0.060211
v 0.046760 -0.024492 0.084753
v -0.146434 -0.015763 -0.102512
v 0.056121 -0.011615 0.076896
v -0.143754 -0.010800 -0.106132
v -0.767566 0.606144 0.683160
v -0.490229 0.539468 0.957010
v -0.369653 0.316920 0.057898
v -0.432471 0.157943 -0.816542
v -0.121584 0.280556 -0.422915
v -0.188872 -0.046273 0.001324
v 0.111590 -0.008915 -0.129121
v -0.710111 0.258506 -0.639612
v -0.188872 -0.046273 0.001324
v 0.113060 -0.006765 -0.127746
v -0.431297 0.164315 -0.818683
v -0.710111 0.258506 -0.639612
v -0.119899 0.272040 -0.417157
v 0.476872 0.404831 -0.830096
v -0.157597 0.059248 -0.009081
v 0.172967 0.390031 -0.928002
v 0.177755 -0.019179 0.031641
v -0.157410 0.058280 -0.009085
v 0.172967 0.390031 -0.928002
v 0.176921 -0.017433 0.032204
v 0.476012 0.397865 -0.829913
v 0.913773 0.301282 0.553295
v 0.053665 0.066816 -0.187365
v -0.009798 -0.014764 0.156975
v 0.980532 0.361005 0.224936
v 0.053665 0.066816 -0.187365
v 0.912256 0.286815 0.548445
v 0.980532 0.361005 0.224936
v -0.009798 -0.014764 0.156975
v -0.054360 0.447751 0.980000
v 0.147643 0.037951 -0.023779
v 0.291826 0.423391 0.997407
v -0.187100 0.011994 0.029719
v -0.065037 0.511785 0.980405
v 0.147387 0.036240 -0.022806
v -0.181760 -0.016257 0.048999
v 0.282461 0.384863 0.997883
v -0.624050 0.415367 0.681947
v -0.190316 0.277778 0.194981
v 0.182365 0.014621 0.171684
v -0.089292 -0.020280 -0.074900
v -0.410201 0.382961 0.935668
v 0.184466 0.016739 0.170220
v -0.088979 -0.019926 -0.075133
v -0.624981 0.418949 0.681457
v -0.190639 0.274309 0.195232
v -0.410256 0.379908 0.934662
v -0.839863 0.396326 0.415442
v -0.834374 0.521170 0.059758
v 0.059113 0.042460 0.171614
v -0.025790 -0.027185 -0.166787
v -0.836161 0.525499 0.060421
v 0.049587 0.031850 0.170989
v -0.025652 -0.026329 -0.166057
v -0.841920 0.402684 0.419817
v -1.093416 0.233449 0.563412
v -0.537346 0.303243 0.084016
v -0.091762 -0.021196 0.153316
v -0.221385 -0.017594 -0.072394
v -0.900740 0.343630 0.879944
v -0.062075 0.018723 0.139770
v -0.217724 -0.012133 -0.075073
v -1.096574 0.241688 0.562001
v -0.900740 0.343630 0.879944
v -0.527229 0.298230 0.078078
v -0.928900 0.526093 -0.420593
v -0.143820 -0.080422 -0.165267
v -0.141400 0.053317 0.157991
v -1.109837 0.467969 -0.532228
v -1.230661 0.514449 -0.135944
v -0.138814 0.058393 0.161179
v -1.230661 0.514449 -0.135944
v -0.131266 -0.063008 -0.160090
v -0.927430 0.533885 -0.421332
v -1.109858 0.468155 -0.532230
v 0.362750 0.463847 -1.157833
v 0.476441 0.392355 -1.016275
v -0.241352 0.308353 -0.340321
v 0.010430 -0.014026 0.009735
v 0.101306 0.456024 -1.133562
v -0.234736 -0.007723 -0.064931
v -0.234736 -0.007723 -0.064931
v 0.474009 0.385782 -1.016244
v 0.101306 0.456024 -1.133562
v -0.237068 0.293322 -0.345568
v 0.010648 -0.010712 0.014580
v 0.362879 0.465559 -1.158190
v 0.959611 0.512043 -0.342118
v 0.936049 0.566856 0.061933
v -0.091081 -0.006562 0.169628
v -0.133266 0.022084 -0.133755
v -0.162710 0.058567 -0.141439
v 0.936749 0.575301 0.063183
v -0.048621 -0.055491 0.155899
v 0.964989 0.481410 -0.338430
v 0.587840 0.537115 0.728166
v -0.210896 0.018342 0.042561
v 0.215782 0.248786 -0.138711
v 0.881959 0.493486 0.477021
v -0.005128 -0.007723 -0.119842
v -0.005128 -0.007723 -0.119842
v 0.586756 0.551057 0.730960
v 0.215692 0.248571 -0.138737
v -0.210838 0.018167 0.042635
v 0.880534 0.489558 0.477083
v 0.259627 0.523064 1.004990
v -0.122110 0.598484 1.007755
v -0.283757 0.328575 0.288238
v 0.028877 -0.024492 0.010312
v -0.240149 -0.015763 0.014504
v 0.029940 -0.011615 -0.001863
v -0.240813 -0.010800 0.010049
v -0.123801 0.606144 1.009265
v 0.265947 0.539468 1.006799
v -0.284561 0.316920 0.285771
v -0.947303 0.157943 -0.288133
v -0.449135 0.280556 -0.229627
v -0.196733 -0.046273 0.117936
v -0.076513 -0.008915 -0.186762
v -1.018515 0.258506 0.033297
v -0.196733 -0.046273 0.117936
v -0.074502 -0.006765 -0.186829
v -0.947986 0.164315 -0.290477
v -1.018515 0.258506 0.033297
v -0.443873 0.272040 -0.226746
v -0.313884 0.404831 -0.940719
v -0.181976 0.059248 0.088464
v -0.598007 0.390031 -0.795056
v 0.083948 -0.019179 -0.119871
v -0.181847 0.058280 0.088329
v -0.598007 0.390031 -0.795056
v 0.083756 -0.017433 -0.118884
v -0.314362 0.397865 -0.939982
v 0.973256 0.301282 -0.271450
v -0.158657 0.066816 -0.186987
v 0.039953 -0.014764 0.101373
v 0.788277 0.361005 -0.550840
v -0.158657 0.066816 -0.186987
v 0.968754 0.286815 -0.273806
v 0.788277 0.361005 -0.550840
v 0.039953 -0.014764 0.101373
v 0.590409 0.447751 0.714850
v 0.023468 0.037951 -0.137766
v 0.847508 0.423391 0.482368
v -0.175402 0.011994 0.136761
v 0.583146 0.511785 0.722686
v 0.023975 0.036240 -0.136898
v -0.157993 -0.016257 0.146618
v 0.841223 0.384863 0.489327
v -0.023178 0.415367 0.906926
v -0.060819 0.277778 0.255893
v 0.186234 0.014621 -0.024106
v -0.180219 -0.020280 -0.006377
v 0.307443 0.382961 0.935120
v 0.186684 0.016739 -0.026627
v -0.180162 -0.019927 -0.006763
v -0.024183 0.418949 0.907238
v -0.060870 0.274309 0.256298
v 0.306693 0.379908 0.934447
v -0.364228 0.396326 0.871082
v -0.611853 0.521170 0.615694
v 0.099032 0.042460 0.062997
v -0.200290 -0.027185 -0.116253
v -0.612648 0.525499 0.617426
v 0.091853 0.031850 0.069291
v -0.199676 -0.026329 -0.115835
v -0.362590 0.402684 0.875630
vn 0.5327 0.7986 0.2803
vn -0.9440 0.2156 0.2499
vn -0.1748 0.9187 0.3541
vn -0.4993 -0.8149 -0.2943
vn 0.9418 -0.2235 -0.2512
vn -0.6316 -0.7294 -0.2628
vn 0.6626 -0.6637 -0.3469
vn 0.2126 -0.8564 -0.4705
vn 0.3846 -0.8003 -0.4600
vn -0.3467 0.9089 -0.2317
vn -0.2466 0.8574 -0.4518
vn -0.2695 0.8729 -0.4067
vn 0.5528 -0.8289 0.0852
vn 0.1986 -0.9068 0.3718
vn 0.6439 -0.7650 -0.0131
vn 0.0153 0.9516 -0.3071
vn 0.1289 0.9561 -0.2632
vn -0.1619 0.8485 -0.5038
vn 0.1469 0.4054 -0.9022
vn -0.1392 0.7481 -0.6488
vn -0.1699 -0.9507 0.2595
vn -0.0469 -0.9500 0.3087
vn 0.1510 -0.8463 0.5108
vn 0.6042 0.7761 -0.1804
vn 0.3938 0.9079 -0.1440
vn 0.4802 0.8684 -0.1235
vn 0.6213 0.7121 -0.3269
vn -0.5816 -0.7334 0.3521
vn -0.5703 -0.7935 0.2127
vn -0.5198 -0.6410 0.5648
vn -0.4614 -0.8737 0.1544
vn 0.1401 0.9583 0.2490
vn 0.4375 0.8712 0.2227
vn 0.2430 0.9391 0.2428
vn -0.0872 -0.8950 -0.4375
vn 0.0679 -0.9393 -0.3362
vn -0.1397 -0.8723 -0.4686
vn -0.3763 0.9147 0.1474
vn -0.3491 0.9305 0.1108
vn -0.3691 0.9191 0.1377
vn 0.3568 -0.9236 -0.1401
vn 0.3645 -0.9190 -0.1505
vn 0.3624 -0.9202 -0.1478
vn -0.0856 0.9315 -0.3536
vn 0.0848 0.9012 -0.4251
vn 0.0408 0.9121 -0.4080
vn -0.3374 -0.8763 0.3439
vn -0.2334 -0.8969 0.3757
vn 0.1200 -0.8870 0.4459
vn 0.5214 0.8418 -0.1396
vn 0.3385 0.9404 -0.0331
vn 0.5314 0.7815 -0.3270
vn 0.2297 0.9708 -0.0697
vn -0.5196 -0.7886 0.3288
vn -0.5135 -0.8463 0.1418
vn -0.4324 -0.6865 0.5845
vn -0.3484 -0.9369 0.0303
vn 0.4458 0.8756 0.1862
vn 0.4195 0.8545 0.3064
vn 0.4818 0.8605 -0.1658
vn 0.4799 0.8277 -0.2908
vn -0.4362 -0.8493 -0.2972
vn -0.4602 -0.8678 -0.1874
vn -0.4952 -0.8578 0.1376
vn 0.5749 0.7986 -0.1785
vn -0.4908 0.2156 0.8442
vn 0.1268 0.9187 0.3740
vn -0.5611 -0.8149 0.1450
vn 0.4883 -0.2235 -0.8436
vn -0.6324 -0.7294 0.2608
vn 0.2232 -0.6637 -0.7139
vn -0.1823 -0.8564 -0.4830
vn -0.0533 -0.8003 -0.5972
vn -0.4090 0.9089 0.0813
vn -0.4939 0.8574 -0.1451
vn -0.4781 0.8729 -0.0970
vn 0.4511 -0.8289 -0.3307
vn 0.4034 -0.9068 0.1225
vn 0.4460 -0.7650 -0.4646
vn -0.2063 0.9516 -0.2279
vn -0.0949 0.9561 -0.2773
vn -0.4707 0.8485 -0.2417
vn -0.5341 0.4054 -0.7418
vn -0.5572 0.7481 -0.3603
vn 0.0634 -0.9507 0.3036
vn 0.1851 -0.9500 0.2514
vn 0.4680 -0.8463 0.2544
vn 0.2997 0.7761 -0.5548
vn 0.1766 0.9079 -0.3802
vn 0.2522 0.8684 -0.4269
vn 0.2082 0.7121 -0.6705
vn -0.1623 -0.7334 0.6602
vn -0.2529 -0.7935 0.5536
vn 0.0318 -0.6410 0.7669
vn -0.2171 -0.8737 0.4354
vn -0.3710 -0.8950 -0.2477
vn -0.1897 -0.9393 -0.2858
vn -0.4301 -0.8723 -0.2326
vn -0.1618 0.9147 0.3703
vn -0.1685 0.9305 0.3252
vn -0.1636 0.9191 0.3584
vn 0.1532 -0.9236 -0.3514
vn 0.1513 -0.9190 -0.3642
vn 0.1518 -0.9202 -0.3608
vn -0.3106 0.9315 -0.1896
vn -0.2406 0.9012 -0.3605
vn -0.2596 0.9121 -0.3173
vn 0.0047 -0.8763 0.4818
vn 0.1006 -0.8969 0.4307
vn 0.4001 -0.8870 0.2304
vn 0.2700 0.8418 -0.4674
vn 0.2160 0.9404 -0.2627
vn 0.1445 0.7815 -0.6070
vn 0.1132 0.9708 -0.2117
vn -0.1349 -0.7886 0.5999
vn -0.2628 -0.8463 0.4634
vn 0.1076 -0.6865 0.7191
vn -0.2249 -0.9369 0.2678
vn 0.4469 0.8756 -0.1836
vn 0.5133 0.8545 -0.0799
vn 0.2234 0.8605 -0.4579
vn 0.1337 0.8277 -0.5449
vn -0.5186 -0.8493 0.0983
vn -0.4580 -0.8678 0.1929
vn -0.2529 -0.8578 0.4475
vn -0.2413 -0.9551 -0.1717
vn -0.4583 -0.8822 -0.1078
vn -0.1261 -0.9716 -0.2004
vn 0.6474 0.7392 0.1857
vn -0.1091 0.9200 0.3763
vn -0.2070 0.8486 0.4869
vn -0.3841 0.7865 0.4836
vn -0.0877 0.8411 0.5337
vn -0.6839 -0.7292 -0.0234
vn 0.2669 0.9218 0.2811
vn 0.6643 0.7065 0.2442
vn -0.2647 -0.9236 -0.2774
vn 0.1947 -0.9158 -0.3513
vn -0.1347 0.9840 0.1164
vn 0.1201 -0.9217 -0.3688
vn 0.0955 -0.8491 -0.5195
vn -0.6705 0.6400 0.3753
vn 0.1502 -0.9806 -0.1256
vn -0.1381 0.9505 0.2785
vn 0.0416 0.8717 0.4882
vn -0.0621 0.9263 0.3717
vn -0.3693 0.9132 -0.1721
vn 0.0998 -0.8957 0.4334
vn -0.1463 -0.4058 0.9022
vn 0.1352 -0.7443 0.6541
vn 0.5588 0.6229 -0.5475
vn -0.3877 -0.9056 0.1722
vn 0.0568 -0.9260 -0.3733
vn -0.0383 -0.8735 -0.4853
vn 0.1281 -0.9508 -0.2821
vn 0.1730 0.7668 0.6182
vn -0.1615 -0.7725 -0.6142
vn 0.2752 0.9583 0.0770
vn 0.4668 0.8712 -0.1519
vn 0.3435 0.9391 -0.0002
vn 0.0877 0.8921 0.4433
vn -0.0815 0.9396 0.3325
vn -0.1397 0.9466 0.2905
vn 0.1448 0.8670 0.4769
vn 0.1210 -0.9468 -0.2983
vn -0.3414 0.9345 0.1006
vn 0.3546 -0.9249 -0.1373
vn -0.1259 0.9339 -0.3347
vn 0.2364 -0.8577 0.4566
vn 0.4433 0.6795 -0.5846
vn -0.2506 -0.9660 0.0635
vn -0.4949 -0.8310 0.2539
vn -0.2920 -0.9551 0.0493
vn -0.4003 -0.8822 0.2478
vn -0.2308 -0.9716 -0.0525
vn 0.5890 0.7392 -0.3265
vn 0.1890 0.9200 0.3432
vn 0.1979 0.8486 0.4907
vn 0.0704 0.7865 0.6136
vn 0.3154 0.8411 0.4394
vn -0.5001 -0.7292 0.4671
vn 0.3875 0.9218 0.0100
vn 0.6424 0.7065 -0.2971
vn -0.3833 -0.9236 -0.0090
vn -0.1108 -0.9158 -0.3861
vn -0.0130 0.9840 0.1776
vn -0.1759 -0.9217 -0.3457
vn -0.2997 -0.8491 -0.4349
vn -0.2088 0.6400 0.7395
vn 0.0174 -0.9806 -0.1950
vn 0.0992 0.9505 0.2946
vn 0.3747 0.8717 0.3158
vn 0.2189 0.9263 0.3067
vn -0.3828 0.9132 0.1395
vn 0.3770 -0.8957 0.2359
vn 0.5345 -0.4058 0.7414
vn 0.5581 -0.7443 0.3669
vn 0.0080 0.6229 -0.7823
vn -0.1524 -0.9056 0.3959
vn -0.2238 -0.9260 -0.3041
vn -0.3703 -0.8735 -0.3161
vn -0.1089 -0.9508 -0.2900
vn 0.5595 0.7668 0.3147
vn -0.5485 -0.7725 -0.3201
vn 0.3755 0.8921 0.2514
vn 0.1775 0.9396 0.2927
vn 0.1066 0.9466 0.3042
vn 0.4396 0.8670 0.2348
vn -0.1253 -0.9468 -0.2965
vn -0.1703 0.9345 0.3125
vn 0.1537 -0.9249 -0.3478
vn -0.3257 0.9339 -0.1476
vn 0.4900 -0.8577 0.1557
vn -0.0999 0.6795 -0.7268
vn -0.1322 -0.9660 0.2221
vn -0.1704 -0.8310 0.5295
vt 0.220665 0.011234
vt 0.780570 0.653652
vt 0.770387 0.998798
vt 0.220831 0.011720
vt 0.780570 0.654718
vt 0.774582 0.011851
vt 0.219430 0.004793
vt 0.221287 0.260181
vt 0.774601 0.006789
vt 0.774130 0.013394
vt 0.780570 0.978116
vt 0.229830 0.990340
vt 0.220331 0.009815
vt 0.780570 0.977053
vt 0.774722 0.013441
vt 0.780548 0.977982
vt 0.236819 0.994528
vt 0.219430 0.217190
vt 0.779091 0.007023
vt 0.237294 0.994546
vt 0.780537 0.978794
vt 0.219430 0.217049
vt 0.780740 0.265972
vt 0.780570 0.960427
vt 0.232988 0.963899
vt 0.219430 0.009676
vt 0.219430 0.009410
vt 0.780177 0.259705
vt 0.774496 0.004793
vt 0.225173 0.950768
vt 0.219430 1.007346
vt 0.219430 0.013517
vt 0.775807 0.287859
vt 0.767903 0.993661
vt 0.223697 0.010543
vt 0.769777 0.959511
vt 0.780570 0.006198
vt 0.781360 0.007958
vt 0.734217 0.999057
vt 0.219679 0.013767
vt 0.739566 1.000071
vt 0.781360 0.007958
vt 0.219679 0.013767
vt 0.780456 0.006095
vt 0.780570 0.977423
vt 0.236028 0.994658
vt 0.243956 0.994644
vt 0.781446 0.991885
vt 0.224433 0.004451
vt 0.782059 0.330959
vt 0.241723 0.998271
vt 0.219430 0.019345
vt 0.780570 0.985882
vt 0.219430 0.019409
vt 0.781217 0.328326
vt 0.780624 0.004793
vt 0.242503 0.998281
vt 0.780449 0.979366
vt 0.245178 0.984046
vt 0.224189 0.002557
vt 0.780570 0.005124
vt 0.263234 0.981086
vt 0.780566 0.981993
vt 0.223847 0.003555
vt 0.220665 0.011234
vt 0.780570 0.653652
vt 0.770387 0.998798
vt 0.220831 0.011720
vt 0.780570 0.654718
vt 0.774582 0.011851
vt 0.221287 0.260181
vt 0.774601 0.006789
vt 0.774130 0.013394
vt 0.780570 0.978116
vt 0.229830 0.990340
vt 0.220331 0.009815
vt 0.780570 0.977053
vt 0.780548 0.977982
vt 0.236819 0.994528
vt 0.219430 0.217190
vt 0.237294 0.994546
vt 0.780537 0.978794
vt 0.219430 0.217049
vt 0.780741 0.265972
vt 0.780570 0.960427
vt 0.232988 0.963899
vt 0.219430 0.009410
vt 0.780177 0.259705
vt 0.774496 0.004793
vt 0.225173 0.950768
vt 0.223696 0.010543
vt 0.769777 0.959511
vt 0.780570 0.006198
vt 0.781360 0.007958
vt 0.734217 0.999057
vt 0.219679 0.013767
vt 0.739566 1.000071
vt 0.219679 0.013767
vt 0.780456 0.006095
vt 0.780570 0.977422
vt 0.236028 0.994658
vt 0.243956 0.994644
vt 0.781446 0.991884
vt 0.224433 0.004451
vt 0.782059 0.330959
vt 0.241723 0.998271
vt 0.219430 0.019345
vt 0.780570 0.985882
vt 0.219430 0.019409
vt 0.781217 0.328326
vt 0.780623 0.004793
vt 0.242503 0.998281
vt 0.780449 0.979366
vt 0.245178 0.984046
vt 0.224189 0.002557
vt 0.780570 0.005124
vt 0.263234 0.981086
vt 0.780566 0.981993
vt 0.223847 0.003555
vt 0.779698 0.287012
vt 0.219422 0.012086
vt 0.219430 1.007346
vt 0.766274 0.992278
vt 0.774908 0.004793
vt 0.510134 1.001327
vt 0.223971 0.269740
vt 0.763998 0.005799
vt 0.780570 0.996353
vt 0.774146 0.004793
vt 0.219430 0.964453
vt 0.775066 0.010369
vt 0.770156 0.998792
vt 0.219430 0.983640
vt 0.510134 1.001465
vt 0.780570 0.998183
vt 0.219430 0.983640
vt 0.219430 1.005170
vt 0.219430 0.028532
vt 0.774967 0.398014
vt 0.765052 0.994366
vt 0.219430 0.007184
vt 0.267344 0.989386
vt 0.779029 0.006962
vt 0.774977 0.004793
vt 0.780570 0.960732
vt 0.776444 0.393701
vt 0.219430 0.028532
vt 0.219430 1.005170
vt 0.764964 0.993595
vt 0.776856 0.004793
vt 0.777164 0.004793
vt 0.219430 1.007346
vt 0.219430 0.013517
vt 0.775807 0.287859
vt 0.767904 0.993661
vt 0.223421 0.009420
vt 0.770022 0.958384
vt 0.219430 0.968807
vt 0.780570 0.005872
vt 0.219430 0.968807
vt 0.219430 0.985197
vt 0.219430 0.985197
vt 0.224256 0.004235
vt 0.780570 0.005477
vt 0.780801 0.004793
vt 0.780570 0.985609
vt 0.780570 0.005559
vt 0.779698 0.287012
vt 0.219422 0.012086
vt 0.219430 1.007346
vt 0.766274 0.992278
vt 0.774908 0.004793
vt 0.510134 1.001327
vt 0.223971 0.269740
vt 0.763998 0.005799
vt 0.780570 0.996353
vt 0.774146 0.004793
vt 0.219430 0.964453
vt 0.775066 0.010369
vt 0.219430 0.964453
vt 0.219430 0.983641
vt 0.510134 1.001465
vt 0.780570 0.998183
vt 0.219430 1.005170
vt 0.219430 0.028532
vt 0.765052 0.994366
vt 0.219430 0.007184
vt 0.267344 0.989386
vt 0.779029 0.006962
vt 0.774977 0.004793
vt 0.780570 0.960731
vt 0.776444 0.393701
vt 0.219430 0.028532
vt 0.764964 0.993595
vt 0.776856 0.004793
vt 0.223421 0.009420
vt 0.770022 0.958383
vt 0.219430 0.968807
vt 0.780570 0.005872
vt 0.219430 0.985197
vt 0.219430 0.985197
vt 0.224256 0.004235
vt 0.780570 0.005477
vt 0.780570 0.985609
vt 0.780570 0.005559
s 1
f 13/1/1 11/2/2 14/3/3
f 16/4/4 19/5/5 18/6/6
f 27/7/7 30/8/8 31/9/9
f 35/10/10 34/11/11 33/12/12
f 37/13/13 38/14/14 39/15/15
f 41/16/16 44/17/17 43/18/18
f 45/7/19 42/19/20 43/18/18
f 50/20/21 47/21/22 48/22/23
f 53/23/24 52/24/25 51/25/26
f 53/23/24 51/25/26 54/26/27
f 56/27/28 60/28/29 57/29/30
f 59/30/31 60/28/29 56/27/28
f 5/31/32 3/32/33 2/33/34 1/34/32
f 75/35/35 78/36/36 77/37/37
f 81/38/38 79/39/39 80/40/40
f 84/41/41 86/42/42 83/43/43
f 90/44/44 87/45/45 89/46/46
f 94/47/47 91/48/48 92/49/49
f 96/50/50 99/51/51 97/52/52
f 96/50/50 95/53/53 99/51/51
f 100/54/54 103/55/55 101/56/56
f 104/57/57 103/55/55 100/54/54
f 106/58/58 105/59/59 107/60/60
f 107/60/60 108/61/61 106/58/58
f 112/62/62 109/63/63 110/64/64
f 125/65/65 123/66/66 126/67/67
f 128/68/68 131/69/69 130/70/70
f 139/7/71 142/71/72 143/72/73
f 147/73/74 146/74/75 145/75/76
f 149/76/77 150/77/78 151/15/79
f 153/78/80 156/79/81 155/80/82
f 157/7/83 154/19/84 155/80/82
f 162/81/85 159/82/86 160/83/87
f 165/84/88 164/85/89 163/86/90
f 165/84/88 163/86/90 166/26/91
f 168/87/92 172/88/93 169/89/94
f 171/90/95 172/88/93 168/87/92
f 187/91/96 190/92/97 189/93/98
f 193/94/99 191/95/100 192/96/101
f 196/97/102 198/42/103 195/98/104
f 202/99/105 199/100/106 201/101/107
f 206/102/108 203/103/109 204/104/110
f 208/105/111 211/106/112 209/107/113
f 208/105/111 207/108/114 211/106/112
f 212/109/115 215/110/116 213/111/117
f 216/112/118 215/110/116 212/109/115
f 218/113/119 217/114/120 219/115/121
f 219/115/121 220/116/122 218/113/119
f 224/117/123 221/118/124 222/119/125
f 10/120/126 6/121/127 9/122/128 8/123/128
f 3/32/33 4/124/129 2/33/34
f 21/125/130 23/126/131 24/127/132 22/128/133
f 7/129/134 6/121/127 10/120/126
f 13/1/1 14/3/3 15/130/135
f 13/1/1 12/131/136 11/2/2
f 17/130/137 20/132/138 16/4/4
f 16/4/4 20/132/138 19/5/5
f 23/126/131 21/125/130 25/133/139
f 31/9/9 30/8/8 32/134/140 28/135/141
f 26/7/142 24/127/132 23/126/131
f 29/136/143 32/134/140 30/8/8
f 65/137/144 63/138/145 62/139/146 61/140/144
f 35/10/10 33/12/12 36/141/147
f 37/13/13 40/142/148 38/14/14
f 42/19/20 41/16/16 43/18/18
f 46/7/149 48/22/23 49/143/150
f 48/22/23 47/21/22 49/143/150
f 54/26/27 55/144/151 53/23/24
f 60/28/29 59/30/31 58/145/152
f 70/146/153 66/147/154 69/148/155 68/149/155
f 64/150/156 62/139/146 63/138/145
f 66/147/154 70/146/153 67/151/157
f 117/152/158 115/153/159 114/154/160 113/155/158
f 72/156/161 71/157/162 73/158/163
f 72/156/161 74/159/164 71/157/162
f 76/160/165 78/36/36 75/35/35
f 80/40/40 79/39/39 82/161/166
f 85/162/167 84/41/41 83/43/43
f 90/44/44 89/46/46 88/163/168
f 92/49/49 91/48/48 93/164/169
f 97/52/52 98/165/170 96/50/50
f 103/55/55 104/57/57 102/166/171
f 110/64/64 109/63/63 111/167/172
f 122/168/173 118/169/174 121/170/175 120/171/175
f 115/153/159 116/172/176 114/154/160
f 133/173/177 135/174/178 136/175/179 134/176/180
f 119/177/181 118/169/174 122/168/173
f 125/65/65 126/67/67 127/178/182
f 125/65/65 124/179/183 123/66/66
f 129/180/184 132/132/185 128/68/68
f 128/68/68 132/132/185 131/69/69
f 135/174/178 133/173/177 137/181/186
f 143/72/73 142/71/72 144/182/187 140/183/188
f 138/7/189 136/175/179 135/174/178
f 141/181/190 144/182/187 142/71/72
f 177/184/191 175/185/192 174/139/193 173/186/191
f 147/73/74 145/75/76 148/187/194
f 149/76/77 152/188/195 150/77/78
f 154/19/84 153/78/80 155/80/82
f 158/7/196 160/83/87 161/189/197
f 160/83/87 159/82/86 161/189/197
f 166/26/91 167/190/198 165/84/88
f 172/88/93 171/90/95 170/191/199
f 182/192/200 178/193/201 181/148/202 180/194/202
f 176/195/203 174/139/193 175/185/192
f 178/193/201 182/192/200 179/151/204
f 184/196/205 183/197/206 185/198/207
f 184/196/205 186/199/208 183/197/206
f 188/198/209 190/92/97 187/91/96
f 192/96/101 191/95/100 194/200/210
f 197/201/211 196/97/102 195/98/104
f 202/99/105 201/101/107 200/202/212
f 204/104/110 203/103/109 205/203/213
f 209/107/113 210/165/214 208/105/111
f 215/110/116 216/112/118 214/204/215
f 222/119/125 221/118/124 223/205/216
