# Blender 3.6.5
# www.blender.org
o Plant_1_LOD3
v 0.039316 0.001291 -0.342974
v 0.081362 0.001290 0.336833
v 0.536288 0.241916 -0.372924
v 0.027644 0.001291 0.011217
v 0.580694 0.303359 -0.003484
v 0.576830 0.224116 0.305150
v -0.221081 0.001291 -0.282430
v 0.295773 -0.032418 0.162866
v 0.156635 0.219392 -0.655188
v 0.020458 0.014163 -0.017943
v 0.455678 0.228337 -0.421880
v 0.650569 0.132217 -0.200366
v 0.620768 0.189098 0.312876
v -0.220170 -0.050356 0.257474
v 0.348445 0.251720 0.540257
v 0.324719 -0.002288 -0.135111
v 0.061601 0.158987 0.697531
v -0.353925 0.001291 -0.063447
v 0.324271 -0.011310 -0.106635
v 0.002981 0.001291 -0.053455
v -0.362054 0.165033 -0.599279
v -0.355865 0.202586 -0.370344
v 0.315406 0.171247 -0.619815
v 0.185666 0.179003 0.689991
v -0.472480 0.255899 0.505087
v -0.336443 -0.035684 0.000499
v 0.315154 0.003951 0.185193
v -0.399732 0.225758 0.262148
v -0.348084 0.230342 0.580911
v -0.651232 0.265467 -0.035307
v -0.201453 -0.043476 -0.244896
v 0.099955 -0.001332 0.354193
v -0.419725 0.225074 -0.144015
v -0.727725 0.244049 0.007848
v -0.421038 0.251871 -0.604901
v 0.000087 -0.051880 -0.353177
v -0.282903 0.003824 0.251498
v -0.188079 0.207632 -0.480232
v 0.039316 0.001291 -0.342974
v 0.081362 0.001290 0.336833
v 0.576830 0.224116 0.305150
v 0.027644 0.001291 0.011217
v 0.537233 0.235336 -0.372141
v 0.581259 0.299778 -0.004915
v -0.221081 0.001291 -0.282430
v 0.650569 0.132217 -0.200366
v 0.157045 0.216427 -0.655491
v 0.293694 -0.013443 0.171280
v 0.022254 0.016022 -0.015093
v 0.445763 0.227045 -0.431301
v 0.323657 0.001291 -0.137260
v 0.622234 0.148309 0.309545
v 0.060858 0.157211 0.696499
v 0.345334 0.180597 0.535414
v -0.229771 -0.031675 0.249602
v 0.513009 0.193596 0.149996
v -0.353925 0.001291 -0.063447
v -0.362638 0.172002 -0.599766
v 0.315406 0.171247 -0.619815
v 0.002981 0.001291 -0.053455
v 0.324271 -0.011310 -0.106635
v -0.355900 0.202816 -0.370430
v 0.316385 0.007097 0.183758
v -0.336598 0.001291 -0.011375
v -0.009770 0.001291 0.057092
v -0.471467 0.247682 0.504428
v 0.185375 0.177223 0.690016
v -0.400652 0.226234 0.267508
v 0.102483 0.001290 0.353312
v -0.186256 0.001291 -0.262936
v -0.016421 0.001291 0.022845
v -0.650285 0.258088 -0.034774
v -0.347599 0.251415 0.582352
v -0.426598 0.228371 -0.140562
v -0.285277 0.001290 0.250519
v 0.031479 0.001291 -0.352233
v -0.091898 0.001291 -0.047709
v -0.421035 0.244632 -0.603551
v -0.726296 0.264516 0.006899
v -0.194634 0.211058 -0.483842
v 0.658859 0.326295 0.335527
v -0.057646 0.028266 -0.050518
v 0.419390 0.229593 0.571762
v 0.138028 0.223996 0.414459
v 0.283965 0.119709 -0.243794
v 0.652321 0.207064 -0.056318
v 0.789665 0.188444 -0.027259
v -0.166037 -0.019855 0.279583
v 0.176741 0.001291 -0.310887
v 0.176741 0.001291 -0.310887
v 0.789665 0.188444 -0.027259
v 0.421597 0.250079 0.579747
v 0.652764 0.207835 -0.056272
v 0.283965 0.119709 -0.243794
v -0.159208 -0.019526 0.281482
v 0.138028 0.223996 0.414459
v -0.073882 0.028662 -0.033185
v 0.668342 0.331142 0.321085
v -0.661882 0.357969 -0.340042
v 0.012871 0.028266 0.025634
v -0.252816 0.258160 -0.473185
v -0.358285 0.118111 0.210085
v -0.422774 0.233741 -0.582404
v -0.786307 0.239495 -0.005099
v 0.121262 -0.019855 -0.304467
v -0.221515 0.001291 0.286003
v -0.221515 0.001291 0.286003
v -0.422774 0.233741 -0.582404
v -0.786307 0.239495 -0.005099
v -0.358292 0.118026 0.210062
v 0.114434 -0.019526 -0.306366
v -0.258452 0.257252 -0.475420
v 0.029108 0.028662 0.008301
v -0.666044 0.360045 -0.331981
v 0.115267 0.349258 -0.715501
v -0.007937 0.028266 0.039512
v 0.376797 0.267592 -0.442197
v -0.303560 0.119709 -0.218674
v 0.421227 0.233741 -0.573118
v -0.259605 0.242324 -0.723764
v 0.339429 -0.019855 0.032302
v -0.331300 0.001291 -0.095269
v -0.331300 0.001291 -0.095269
v 0.421227 0.233741 -0.573118
v -0.259643 0.242448 -0.723786
v -0.303560 0.119709 -0.218674
v 0.338957 -0.019526 0.025230
v 0.376369 0.262264 -0.444959
v 0.013800 0.028662 0.049082
v 0.113273 0.348010 -0.715656
v -0.395946 0.328511 0.307942
v 0.019264 0.023226 -0.013004
v 0.318292 0.007024 0.143711
v -0.164944 0.260437 0.741510
v -0.464278 0.204744 0.579207
v 0.181474 0.243313 0.804515
v -0.329004 -0.027975 -0.035710
v 0.316535 0.003759 0.147166
v -0.464278 0.204744 0.579207
v -0.164944 0.260437 0.741510
v 0.181946 0.244500 0.804810
v -0.328606 -0.022987 -0.031503
v -0.394389 0.325541 0.305172
v 0.000682 0.023529 -0.022928
vn -0.1927 0.9311 0.3097
vn -0.2519 0.9356 0.2475
vn -0.3039 0.9239 0.2326
vn -0.0719 0.9181 0.3898
vn -0.1337 0.9348 0.3290
vn -0.2654 0.9200 -0.2883
vn -0.0763 0.9341 -0.3487
vn -0.2367 0.9121 -0.3347
vn 0.1313 0.9637 0.2323
vn -0.0139 0.9868 -0.1615
vn 0.0455 0.9766 0.2103
vn 0.0761 0.8784 0.4719
vn -0.0154 0.8360 0.5485
vn 0.1461 0.9183 0.3679
vn 0.2323 0.8871 -0.3988
vn 0.1802 0.9176 -0.3543
vn 0.2345 0.9475 -0.2173
vn 0.5128 0.8452 -0.1508
vn 0.4216 0.8923 -0.1611
vn 0.3784 0.9246 -0.0441
vn 0.4482 0.8445 0.2933
vn 0.4056 0.8891 0.2122
vn 0.2851 0.9264 0.2461
vn 0.2520 -0.9374 -0.2403
vn 0.2078 -0.9357 -0.2850
vn 0.3040 -0.9256 -0.2257
vn 0.3147 -0.8715 0.3760
vn 0.1253 -0.9822 0.1400
vn 0.3118 -0.9154 0.2547
vn 0.0028 -0.9911 0.1331
vn -0.1336 -0.9621 -0.2379
vn -0.0500 -0.9740 -0.2211
vn -0.0761 -0.8782 -0.4722
vn 0.0154 -0.8358 -0.5488
vn -0.1463 -0.9182 -0.3681
vn -0.2281 -0.9516 0.2059
vn -0.1214 -0.9912 0.0534
vn -0.1697 -0.9390 0.2991
vn -0.2372 -0.9080 0.3454
vn -0.1735 -0.8165 0.5506
vn -0.1267 -0.7861 0.6050
vn -0.4006 -0.9113 0.0955
vn -0.1112 -0.9928 0.0438
vn -0.3607 -0.9223 0.1388
vn -0.5544 -0.7643 0.3295
vn -0.4998 -0.8497 0.1679
vn -0.3340 -0.9113 -0.2407
vn -0.1297 -0.9910 -0.0326
vn -0.3403 -0.9223 -0.1831
vn -0.5833 -0.7771 -0.2363
vn -0.4382 -0.8530 -0.2834
vn -0.3442 0.9026 -0.2585
vn -0.3263 0.8980 -0.2952
vn -0.4780 0.7188 -0.5048
vn -0.0711 0.9703 -0.2312
vn -0.1998 0.9734 -0.1123
vn 0.1884 0.9387 -0.2888
vn 0.3275 -0.8951 0.3026
vn 0.3480 -0.9022 0.2546
vn 0.4792 -0.7191 0.5033
vn 0.2507 0.9561 0.1519
vn 0.0828 0.9294 0.3595
vn 0.3162 0.8934 0.3192
vn 0.3933 0.8868 0.2426
vn 0.4173 0.7855 0.4570
vn -0.2505 -0.9555 -0.1559
vn -0.1050 -0.9252 0.3646
vn -0.3470 -0.9378 -0.0117
vn -0.3156 -0.8917 -0.3245
vn -0.3964 -0.8882 -0.2325
vn -0.4183 -0.7861 -0.4550
vn -0.0769 -0.9259 -0.3698
vn -0.1010 0.8963 0.4317
vn -0.2046 0.8852 0.4178
vn -0.3177 0.7188 0.6184
vn 0.2042 -0.8844 -0.4197
vn 0.0870 -0.8993 -0.4286
vn 0.3159 -0.7191 -0.6190
vn 0.0600 0.9764 -0.2074
vn -0.3377 0.8856 0.3190
vn -0.0596 0.9808 0.1857
vn -0.2415 -0.9548 0.1730
vn 0.0606 -0.9821 -0.1784
vn -0.0620 -0.9758 0.2096
vn -0.2056 -0.8590 0.4688
vn 0.0779 -0.6850 0.7244
vn -0.4513 0.8912 0.0459
vn -0.4516 0.8912 0.0434
vn -0.4378 0.8873 0.1453
vn 0.4465 -0.8939 -0.0408
vn 0.4467 -0.8939 -0.0383
vn 0.4530 -0.8895 0.0591
vn -0.0095 0.9142 0.4051
vn -0.3378 0.8985 -0.2805
vn -0.3904 0.9030 -0.1796
vn 0.1381 0.9871 -0.0811
vn 0.1493 0.7173 -0.6806
vn 0.1613 0.9866 -0.0231
vn 0.6469 0.6656 -0.3723
vn 0.1424 0.9862 0.0839
vn 0.7105 0.6487 0.2728
vn 0.4355 -0.8893 -0.1396
vn -0.4759 -0.8728 0.1085
vn 0.1349 -0.9424 -0.3059
vn 0.0904 -0.9326 -0.3494
vn -0.0094 -0.9279 -0.3727
vn 0.0344 -0.9992 -0.0187
vn 0.2613 -0.9531 0.1527
vn -0.2163 -0.9681 -0.1267
vn -0.4603 0.8861 -0.0544
vn -0.3876 -0.8726 -0.2971
vn -0.3254 0.9366 -0.1297
vn -0.1523 0.9592 0.2383
vn -0.3637 0.9034 -0.2272
vn 0.2008 -0.9697 0.1393
vn 0.0695 -0.9669 0.2456
vn -0.1977 -0.9293 0.3118
vn 0.3323 -0.9328 0.1395
vn 0.3720 -0.9024 0.2177
vn 0.3451 0.9381 0.0288
vn 0.4201 0.8883 0.1856
vn 0.1721 -0.9749 -0.1414
vn -0.4268 -0.8889 -0.1663
vn 0.1049 0.9232 -0.3697
vn -0.0194 0.9516 0.3068
vn -0.1454 0.9391 0.3113
vn 0.1381 0.9520 0.2732
vn -0.0026 0.8964 0.4432
vn 0.0165 -0.9510 -0.3087
vn 0.1440 -0.9395 -0.3108
vn 0.3929 0.9138 -0.1029
vn -0.3767 -0.9234 0.0736
vn -0.1477 -0.9492 -0.2778
vn -0.0201 -0.8981 -0.4394
vn 0.2413 0.9557 -0.1687
vn 0.3314 0.8925 -0.3060
vn 0.2131 0.8604 -0.4629
vn -0.3338 -0.8900 0.3107
vn -0.0539 0.6878 -0.7239
vn 0.3328 -0.8913 -0.3080
vt 0.518059 0.008333
vt 0.000000 0.995253
vt 0.000000 0.004793
vt 0.999999 0.031788
vt 0.518060 1.000924
vt 0.518060 1.004502
vt 0.000000 0.997655
vt 0.000000 0.005944
vt 1.000000 1.001048
vt 0.006229 0.998944
vt 0.000620 0.596010
vt 0.518059 0.004793
vt 0.999999 0.009894
vt -0.000000 0.004538
vt 0.985125 0.629879
vt 0.000000 0.998253
vt 0.000000 0.006223
vt 0.994240 0.590770
vt 0.000000 0.999307
vt -0.000000 0.003966
vt 0.989366 0.603195
vt 0.000000 0.998303
vt 0.000000 0.995946
vt 0.518059 0.009055
vt 0.000331 0.621202
vt 0.993320 0.008692
vt 0.006303 0.998944
vt 0.000683 0.598632
vt 0.999999 0.009894
vt 0.000000 0.998698
vt 0.993565 0.998944
vt 0.999009 0.579683
vt -0.000000 0.004331
vt 0.999999 0.004793
vt 0.000000 1.000455
vt 0.994476 0.998944
vt 0.996993 0.591287
vt 0.000000 0.999093
vt 0.994357 0.998944
vt 0.993132 0.604102
vt 0.518059 0.012468
vt 0.000000 0.254250
vt 0.000000 0.702182
vt 0.518060 0.994528
vt 0.000000 0.998944
vt 0.518059 0.010051
vt 0.518060 1.001854
vt 0.000000 0.995118
vt 0.000000 0.282356
vt 0.518059 0.012468
vt 0.518060 0.999925
vt 1.000000 0.998944
vt 1.000000 0.606183
vt 0.000000 0.282340
vt 0.518059 0.010051
vt 0.518059 0.012468
vt 0.518059 0.010051
vt 0.995941 0.532739
vt 0.518060 0.998944
vt 0.000000 0.994206
vt 0.998550 0.539396
vt 0.518059 0.008903
vt 0.999999 0.016073
vt 0.518060 1.010212
vt 1.000000 1.000372
vt 0.518060 1.008518
vt 0.000000 0.999460
vt 1.000000 0.998731
vt 0.991010 0.008673
vt 1.000000 1.000361
vt 0.993422 0.998944
vt 0.996199 0.004832
vt 0.994344 0.998944
vt 0.988771 0.004793
vt 0.994227 0.998944
vt 0.983993 0.004793
vt 0.518060 1.003371
vt 0.999999 0.022565
vt 1.000000 0.998771
vt 0.000000 0.997681
vt 1.000000 0.487811
vt 1.000000 0.962225
vt 0.999999 0.006476
vt 0.518060 0.999467
vt 0.000000 0.702746
vt 0.999999 0.014127
vt 1.000000 0.598930
vt 0.999999 0.006476
vt 1.000000 0.950871
vt 0.999999 0.014127
vt 0.518060 1.006535
vt 0.000000 0.989519
vt 1.000000 0.670883
vt 0.999999 0.006476
vt 0.518060 1.006255
vt 0.000000 0.989504
vt 1.000000 0.672765
vt 0.999999 0.014127
vt 0.000000 0.994321
vt 0.000000 0.011405
vt 0.518059 0.010870
vt 0.000000 0.012217
vt 0.999999 0.006994
s 1
f 10/1/1 9/2/2 7/3/3
f 10/1/1 8/4/4 11/5/5
f 15/6/6 13/7/7 16/8/8
f 23/9/9 21/10/10 22/11/11
f 20/12/12 22/11/11 18/3/13
f 19/13/14 22/11/11 20/12/12
f 27/14/15 28/15/16 24/16/17
f 32/17/18 33/18/19 29/19/20
f 37/20/21 38/21/22 34/22/23
f 47/23/24 49/24/25 45/3/26
f 51/3/27 56/25/28 55/26/29
f 58/27/30 59/9/31 62/28/32
f 62/28/32 60/12/33 57/3/34
f 62/28/32 61/29/35 60/12/33
f 67/30/36 66/31/37 68/32/38
f 63/33/39 68/32/38 65/12/40
f 65/12/40 68/32/38 64/34/41
f 73/35/42 72/36/43 74/37/44
f 74/37/44 70/34/45 71/12/46
f 79/38/47 78/39/48 80/40/49
f 80/40/49 76/34/50 77/12/51
f 82/41/52 85/42/53 89/3/54
f 86/43/55 81/44/56 87/45/57
f 94/42/58 97/46/59 90/3/60
f 99/47/61 104/48/62 102/49/63
f 100/50/64 102/49/63 106/3/65
f 114/51/66 108/52/67 112/53/68
f 110/54/69 113/55/70 107/3/71
f 110/54/69 114/51/66 113/55/70
f 109/48/72 114/51/66 110/54/69
f 116/56/73 118/42/74 122/3/75
f 126/42/76 129/57/77 123/3/78
f 131/58/79 135/52/80 134/59/81
f 141/60/82 140/59/83 143/61/84
f 144/62/85 143/61/84 142/63/86
f 5/64/87 4/12/88 2/34/89 6/65/89
f 44/66/90 42/12/91 39/3/92 43/67/92
f 10/1/1 11/5/5 9/2/2
f 8/4/4 12/68/93 11/5/5
f 16/8/8 14/69/94 15/6/6
f 14/69/94 17/70/95 15/6/6
f 19/13/14 23/9/9 22/11/11
f 24/16/17 28/15/16 25/71/96
f 27/14/15 26/72/97 28/15/16
f 29/19/20 33/18/19 30/73/98
f 32/17/18 31/74/99 33/18/19
f 34/22/23 38/21/22 35/75/100
f 37/20/21 36/76/101 38/21/22
f 40/34/102 42/12/91 44/66/90 41/65/102
f 74/37/44 71/12/46 69/3/103 73/35/42
f 47/23/24 50/77/104 49/24/25
f 49/24/25 50/77/104 48/78/105
f 50/77/104 46/68/106 48/78/105
f 56/25/28 54/59/107 53/79/108
f 56/25/28 52/45/109 54/59/107
f 56/25/28 53/79/108 55/26/29
f 5/64/87 3/80/110 1/3/110 4/12/88
f 62/28/32 59/9/31 61/29/35
f 63/33/39 67/30/36 68/32/38
f 80/40/49 77/12/51 75/3/111 79/38/47
f 81/44/56 86/43/55 85/42/53 82/41/52
f 84/81/112 83/82/113 81/44/56
f 84/81/112 81/44/56 82/41/52 88/83/114
f 98/84/115 97/46/59 94/42/58 93/85/116
f 93/85/116 91/45/117 98/84/115
f 96/81/118 95/86/119 97/46/59 98/84/115
f 101/87/120 99/47/61 100/50/64 105/88/121
f 98/84/115 92/89/122 96/81/118
f 102/49/63 100/50/64 99/47/61
f 112/53/68 111/90/123 113/55/70 114/51/66
f 99/47/61 101/87/120 103/52/124
f 115/91/125 120/92/126 118/42/74 116/56/73
f 117/93/127 115/91/125 116/56/73 121/94/128
f 130/95/129 129/57/77 126/42/76 125/96/130
f 117/93/127 119/52/131 115/91/125
f 130/95/129 124/52/132 128/97/133
f 128/97/133 127/98/134 129/57/77 130/95/129
f 131/58/79 136/99/135 133/100/136 132/101/137
f 143/61/84 144/62/85 138/102/138 141/60/82
f 132/101/137 137/103/139 131/58/79
f 136/99/135 131/58/79 134/59/81
f 143/61/84 140/59/83 139/52/140
