# Blender 3.6.5
# www.blender.org
o Plant_1_LOD2
v 0.039316 0.001291 -0.342974
v 0.081362 0.001290 0.336833
v 0.538585 0.183134 -0.373779
v 0.576566 0.175696 0.306179
v 0.027644 0.001291 0.011217
v 0.578644 0.227347 -0.021678
v 0.341807 0.177417 -0.361593
v 0.390849 0.174271 0.318428
v 0.314495 0.208183 -0.016276
v -0.221081 0.001291 -0.282430
v 0.280692 0.001291 0.174849
v 0.150722 0.162555 -0.660706
v 0.020458 0.014163 -0.017943
v 0.432201 0.187279 -0.438314
v 0.013222 0.168900 -0.508274
v 0.388173 0.021128 0.074343
v 0.650569 0.132217 -0.200366
v 0.277849 0.187602 -0.238329
v -0.231038 -0.010274 0.256280
v 0.622234 0.148309 0.309545
v 0.017801 0.001291 0.045143
v 0.345334 0.180597 0.535414
v 0.517777 0.159482 0.161881
v 0.324719 -0.002288 -0.135111
v 0.061601 0.158987 0.697531
v 0.212158 0.188478 0.315625
v -0.353925 0.001291 -0.063447
v 0.324271 -0.011310 -0.106635
v -0.365371 0.171916 -0.585642
v 0.002981 0.001291 -0.053455
v -0.009959 0.201391 -0.627772
v -0.354040 0.174354 -0.379260
v 0.315406 0.171247 -0.619815
v -0.022455 0.194814 -0.361342
v -0.335582 0.004847 -0.013791
v 0.185666 0.179003 0.689991
v -0.463995 0.196103 0.486954
v -0.009770 0.001291 0.057092
v -0.153843 0.228559 0.609576
v 0.315154 0.003951 0.185193
v -0.411508 0.204547 0.315579
v -0.078305 0.214492 0.328674
v -0.186256 0.001291 -0.262936
v -0.348084 0.230342 0.580911
v -0.634109 0.206509 -0.038170
v -0.016421 0.001291 0.022845
v -0.515272 0.248184 0.270905
v 0.099955 -0.001332 0.354193
v -0.449519 0.205290 -0.125335
v -0.251967 0.223980 0.139493
v 0.031479 0.001291 -0.352233
v -0.727725 0.244049 0.007848
v -0.409563 0.193204 -0.590710
v -0.091898 0.001291 -0.047709
v -0.581894 0.248909 -0.313599
v -0.282903 0.003824 0.251498
v -0.235393 0.193812 -0.499893
v -0.326610 0.225233 -0.169590
v 0.039316 0.001291 -0.342974
v 0.081362 0.001290 0.336833
v 0.538585 0.183134 -0.373779
v 0.576566 0.175696 0.306179
v 0.027644 0.001291 0.011217
v 0.578644 0.227347 -0.021678
v 0.352073 0.176999 -0.361752
v 0.390849 0.174271 0.318428
v 0.328412 0.211635 -0.006516
v -0.221081 0.001291 -0.282430
v 0.280692 0.001291 0.174849
v 0.150722 0.162555 -0.660706
v 0.650569 0.132217 -0.200366
v 0.014158 0.169743 -0.509242
v 0.383395 0.026094 0.081603
v 0.022254 0.016022 -0.015093
v 0.445763 0.227045 -0.431301
v 0.323657 0.001291 -0.137260
v 0.622234 0.148309 0.309545
v 0.060858 0.157211 0.696499
v 0.017801 0.001291 0.045143
v 0.345334 0.180597 0.535414
v 0.511937 0.158472 0.153875
v -0.231038 -0.010274 0.256280
v 0.212325 0.188928 0.327055
v -0.353925 0.001291 -0.063447
v -0.365371 0.171916 -0.585642
v 0.315406 0.171247 -0.619815
v 0.002981 0.001291 -0.053455
v -0.009959 0.201391 -0.627772
v -0.354089 0.175270 -0.380692
v 0.324271 -0.011310 -0.106635
v -0.023764 0.195627 -0.362896
v 0.316385 0.007097 0.183758
v -0.336598 0.001291 -0.011375
v -0.463995 0.196103 0.486954
v -0.009770 0.001291 0.057092
v -0.153843 0.228559 0.609576
v 0.185375 0.177223 0.690016
v -0.402898 0.203529 0.283316
v -0.096870 0.217915 0.334914
v 0.102483 0.001290 0.353312
v -0.186256 0.001291 -0.262936
v -0.349053 0.193728 0.580117
v -0.634109 0.206509 -0.038170
v -0.016421 0.001291 0.022845
v -0.515272 0.248184 0.270905
v -0.174591 0.189968 0.497578
v -0.449519 0.205290 -0.125335
v -0.269142 0.229562 0.140468
v -0.285277 0.001290 0.250519
v 0.031479 0.001291 -0.352233
v -0.729923 0.209595 0.009842
v -0.409563 0.193204 -0.590710
v -0.091898 0.001291 -0.047709
v -0.581894 0.248909 -0.313599
v -0.546175 0.202318 0.105865
v -0.235393 0.193812 -0.499893
v -0.337164 0.230163 -0.178363
v 0.448029 0.334401 0.227221
v -0.057646 0.028266 -0.050518
v 0.305692 0.259166 0.532897
v 0.138028 0.223996 0.414459
v 0.283965 0.119709 -0.243794
v 0.490326 0.201950 -0.167513
v 0.657990 0.237120 -0.049076
v 0.659371 0.273396 0.299570
v 0.429391 0.201673 0.550673
v 0.789665 0.188444 -0.027259
v -0.166037 -0.019855 0.279583
v 0.176741 0.001291 -0.310887
v 0.176741 0.001291 -0.310887
v 0.789665 0.188444 -0.027259
v 0.429391 0.201673 0.550673
v 0.659371 0.273396 0.299570
v 0.657990 0.237120 -0.049076
v 0.490326 0.201950 -0.167513
v 0.283965 0.119709 -0.243794
v -0.159208 -0.019526 0.281482
v 0.138028 0.223996 0.414459
v 0.305692 0.259166 0.532897
v -0.073882 0.028662 -0.033185
v 0.454245 0.333184 0.220708
v -0.493206 0.342933 -0.231312
v 0.012871 0.028266 0.025634
v -0.252816 0.258160 -0.473185
v -0.328739 0.119709 0.218910
v -0.535100 0.201950 0.142630
v -0.652753 0.305465 -0.331301
v -0.422774 0.233741 -0.582404
v -0.786307 0.239495 -0.005099
v 0.121262 -0.019855 -0.304467
v -0.221515 0.001291 0.286003
v -0.221515 0.001291 0.286003
v -0.422774 0.233741 -0.582404
v -0.652753 0.305465 -0.331301
v -0.786307 0.239495 -0.005099
v -0.535100 0.201950 0.142630
v -0.328739 0.119709 0.218910
v 0.114434 -0.019526 -0.306366
v -0.258452 0.257252 -0.475420
v 0.029108 0.028662 0.008301
v -0.498992 0.341996 -0.227535
v 0.115267 0.349258 -0.715501
v -0.007937 0.028266 0.039512
v 0.376797 0.267592 -0.442197
v -0.303560 0.119709 -0.218674
v -0.288562 0.234551 -0.572288
v 0.421227 0.233741 -0.573118
v -0.243474 0.220513 -0.721353
v 0.339429 -0.019855 0.032302
v -0.331300 0.001291 -0.095269
v -0.331300 0.001291 -0.095269
v -0.243474 0.220513 -0.721353
v 0.421227 0.233741 -0.573118
v -0.288601 0.234610 -0.572178
v -0.303560 0.119709 -0.218674
v 0.338957 -0.019526 0.025230
v 0.376369 0.262264 -0.444959
v 0.013800 0.028662 0.049082
v 0.113273 0.348010 -0.715656
v -0.094547 0.355883 0.458318
v 0.019264 0.023226 -0.013004
v -0.389340 0.277191 0.315920
v 0.290391 0.119709 0.266672
v 0.230173 0.260235 0.623217
v -0.164944 0.260437 0.741510
v -0.464278 0.204744 0.579207
v 0.183712 0.194472 0.788754
v -0.329004 -0.027975 -0.035710
v 0.329512 0.001291 0.146389
v 0.329512 0.001291 0.146389
v 0.183712 0.194472 0.788754
v -0.464278 0.204744 0.579207
v -0.164944 0.260437 0.741510
v 0.231135 0.260592 0.620391
v 0.290391 0.119709 0.266672
v -0.328606 -0.022987 -0.031503
v -0.390109 0.276292 0.321047
v 0.000682 0.023529 -0.022928
v -0.088921 0.354241 0.459688
vn 0.1093 0.9456 0.3063
vn 0.0452 0.9987 0.0230
vn -0.0842 0.9636 0.2537
vn -0.2495 0.9046 0.3456
vn -0.2007 0.9722 0.1205
vn -0.3601 0.8881 0.2856
vn -0.0379 0.9271 0.3728
vn -0.1638 0.9707 -0.1758
vn -0.2610 0.9649 -0.0284
vn 0.0255 0.9993 0.0261
vn -0.0050 0.9790 -0.2039
vn -0.1862 0.8873 -0.4220
vn -0.3722 0.8990 -0.2308
vn -0.2929 0.8717 -0.3928
vn 0.2216 0.9538 0.2027
vn 0.0148 0.9997 0.0194
vn 0.0630 0.9568 0.2838
vn 0.2126 0.8807 0.4233
vn 0.0380 0.8556 0.5163
vn 0.3199 0.8635 -0.3899
vn 0.1466 0.9428 -0.2993
vn 0.2980 0.9464 -0.1247
vn 0.1764 0.7954 -0.5799
vn 0.0691 0.8269 -0.5581
vn 0.5603 0.8268 -0.0507
vn 0.3574 0.9238 -0.1371
vn 0.3314 0.9417 0.0586
vn 0.3918 0.8305 0.3960
vn 0.3340 0.9256 0.1781
vn 0.1653 0.9476 0.2732
vn 0.2046 -0.9662 -0.1571
vn 0.1946 -0.9344 -0.2984
vn 0.3637 -0.8878 -0.2821
vn 0.1650 -0.9724 0.1649
vn 0.3681 -0.9009 0.2298
vn 0.2662 -0.8861 0.3795
vn -0.0151 -0.9998 -0.0163
vn -0.2221 -0.9537 -0.2026
vn -0.0626 -0.9573 -0.2822
vn -0.2123 -0.8809 -0.4231
vn -0.0382 -0.8557 -0.5160
vn -0.2952 -0.9471 0.1261
vn -0.0486 -0.9987 0.0149
vn -0.1405 -0.9467 0.2900
vn -0.3044 -0.8718 0.3838
vn -0.1474 -0.8099 0.5678
vn -0.0498 0.9987 -0.0110
vn 0.2010 0.9599 -0.1953
vn -0.2182 0.9280 -0.3022
vn -0.4516 0.8559 -0.2520
vn -0.3905 0.8476 -0.3593
vn -0.4780 0.7188 -0.5048
vn 0.3906 -0.8476 0.3591
vn 0.4523 -0.8584 0.2419
vn 0.4792 -0.7191 0.5033
vn -0.2040 -0.9591 0.1964
vn 0.0455 -0.9988 0.0153
vn 0.2181 -0.9281 0.3017
vn 0.1140 0.9917 0.0593
vn -0.1274 0.9541 0.2712
vn 0.1982 0.9225 0.3312
vn 0.4611 0.8532 0.2436
vn 0.3916 0.8399 0.3757
vn 0.4780 0.7188 0.5048
vn -0.3920 -0.8401 -0.3748
vn -0.4617 -0.8569 -0.2291
vn -0.4792 -0.7191 -0.5033
vn 0.1295 -0.9535 -0.2721
vn -0.1104 -0.9920 -0.0606
vn -0.1988 -0.9228 -0.3300
vn -0.0815 0.8915 0.4457
vn -0.1645 0.8796 0.4463
vn -0.3177 0.7188 0.6184
vn -0.0241 0.9651 0.2608
vn -0.3291 0.9256 -0.1867
vn -0.1755 0.9673 0.1830
vn 0.3280 -0.9260 0.1867
vn 0.0214 -0.9648 -0.2622
vn 0.1753 -0.9676 -0.1817
vn 0.1658 -0.8792 -0.4467
vn 0.0681 -0.8944 -0.4420
vn 0.3159 -0.7191 -0.6190
vn 0.1597 0.8152 -0.5567
vn 0.3285 0.8142 -0.4788
vn 0.3562 0.7212 -0.5941
vn -0.3263 -0.8129 0.4824
vn -0.1478 -0.8190 0.5544
vn -0.3550 -0.7213 0.5947
vn -0.0490 0.9987 0.0160
vn -0.0576 0.9927 -0.1057
vn -0.2962 0.9508 -0.0908
vn -0.3219 0.9464 0.0256
vn -0.5474 0.8342 -0.0672
vn -0.5383 0.8417 0.0415
vn -0.5235 0.8394 0.1462
vn -0.2716 0.9517 0.1434
vn -0.0357 0.9982 -0.0484
vn 0.0973 0.9952 -0.0113
vn -0.0534 0.9890 0.1381
vn -0.0722 0.9974 0.0086
vn -0.0618 0.9644 0.2570
vn -0.0461 0.8604 0.5076
vn 0.0466 0.9987 -0.0195
vn -0.0369 0.9670 -0.2522
vn -0.0596 0.9978 -0.0293
vn 0.0506 0.9975 -0.0492
vn 0.2376 0.9436 -0.2307
vn 0.0043 0.9943 -0.1069
vn 0.5570 0.7798 -0.2857
vn 0.4952 0.7919 -0.3573
vn 0.0867 0.9959 -0.0262
vn 0.3297 0.9439 0.0167
vn 0.1057 0.9897 -0.0961
vn 0.5669 0.7845 0.2513
vn 0.5798 0.7996 0.1564
vn 0.2706 -0.9518 -0.1442
vn 0.3106 -0.9501 -0.0271
vn 0.0438 -0.9989 -0.0137
vn 0.0303 -0.9900 -0.1378
vn 0.2905 -0.9524 0.0927
vn 0.0564 -0.9924 0.1093
vn 0.5303 -0.8470 -0.0366
vn 0.5342 -0.8426 0.0677
vn 0.5206 -0.8421 -0.1413
vn -0.0258 -0.9993 -0.0273
vn 0.0448 -0.9764 0.2114
vn -0.0980 -0.9951 0.0149
vn 0.1051 -0.9843 0.1415
vn 0.1001 -0.9607 -0.2590
vn 0.0780 -0.9512 -0.2984
vn 0.0751 -0.9811 -0.1783
vn -0.0174 -0.9302 -0.3666
vn 0.2639 -0.9642 0.0254
vn 0.1943 -0.8924 0.4072
vn 0.0618 -0.9649 -0.2551
vn 0.0723 -0.9974 -0.0047
vn 0.0460 -0.8604 -0.5076
vn -0.0072 -0.9541 0.2995
vn 0.0691 -0.9973 0.0238
vn -0.0900 -0.8151 0.5722
vn -0.2371 -0.9434 0.2318
vn -0.3233 -0.9358 0.1404
vn -0.0493 -0.9988 0.0010
vn 0.0094 -0.9940 0.1092
vn -0.3273 -0.9449 0.0047
vn -0.1030 -0.9897 -0.0994
vn -0.5371 -0.8083 0.2413
vn -0.5723 -0.8095 0.1311
vn -0.4944 -0.7961 0.3489
vn -0.3300 -0.9439 -0.0157
vn -0.3208 -0.9351 -0.1509
vn -0.0512 -0.9987 -0.0013
vn -0.1002 -0.9893 0.1063
vn -0.2335 -0.9420 -0.2409
vn -0.0008 -0.9939 -0.1103
vn -0.5290 -0.8058 -0.2662
vn -0.4775 -0.7979 -0.3680
vn -0.5740 -0.8031 -0.1598
vn -0.4333 0.8991 -0.0623
vn -0.0342 0.9669 0.2528
vn -0.5037 0.8514 -0.1464
vn 0.2887 0.9513 0.1084
vn 0.3276 0.9396 -0.0991
vn 0.2154 0.8990 0.3813
vn -0.2115 -0.9023 -0.3756
vn 0.0350 -0.9691 -0.2443
vn -0.2878 -0.9511 -0.1117
vn -0.3317 -0.9382 0.0989
vn 0.4306 -0.9008 0.0559
vn 0.5039 -0.8533 0.1338
vn 0.3245 0.9443 -0.0557
vn 0.5152 0.8491 0.1169
vn 0.0082 0.9553 -0.2955
vn -0.1378 0.9843 -0.1101
vn -0.0112 -0.9571 0.2896
vn -0.3220 -0.9443 0.0672
vn 0.1354 -0.9844 0.1124
vn -0.5145 -0.8520 -0.0967
vn 0.1381 0.9520 0.2732
vn -0.0026 0.8964 0.4432
vn 0.3929 0.9138 -0.1029
vn -0.3767 -0.9234 0.0736
vn -0.1477 -0.9492 -0.2778
vn -0.0401 0.9904 0.1324
vn -0.0201 -0.8981 -0.4394
vn 0.0216 0.9918 -0.1258
vn 0.2147 0.9763 0.0264
vn -0.1518 0.9447 -0.2906
vn -0.0022 0.7902 -0.6129
vn -0.0946 0.9515 0.2928
vn 0.1086 0.9262 0.3610
vn -0.3134 0.9280 0.2018
vn 0.3071 -0.9305 -0.1995
vn 0.1587 -0.9468 0.2798
vn -0.0244 -0.9918 0.1254
vn 0.0936 -0.9526 -0.2896
vn -0.2143 -0.9765 -0.0224
vn -0.1095 -0.9268 -0.3593
vn 0.0163 -0.7968 0.6040
vt 1.000000 0.998731
vt 0.518060 0.998944
vt 0.518060 0.608731
vt 0.518059 0.008333
vt 0.000000 0.598512
vt 0.000000 0.004793
vt 1.000000 0.280764
vt 0.518060 0.598770
vt 1.000000 1.000361
vt 0.000000 0.636850
vt 0.000000 0.005944
vt 0.999999 0.008747
vt 0.518059 0.004793
vt 1.000000 1.001048
vt 0.518060 0.579429
vt 0.999999 0.009894
vt -0.000000 0.004538
vt 0.518060 0.540386
vt 0.000000 0.998253
vt 0.999999 0.004832
vt 0.000000 0.006223
vt 0.518060 0.531488
vt 0.000000 0.999307
vt -0.000000 0.003966
vt 0.518060 0.533602
vt 0.000000 0.998303
vt 0.000000 0.600936
vt 0.518059 0.009055
vt 0.518060 0.614907
vt 0.999999 0.008747
vt 0.518060 0.581985
vt 0.999999 0.009894
vt 0.000000 0.998698
vt 0.518060 0.556516
vt -0.000000 0.004331
vt 0.518060 0.676256
vt 0.000000 0.717344
vt 0.000000 0.487811
vt 0.518059 0.012468
vt 0.000000 0.254250
vt 0.518059 0.010051
vt 0.518060 0.677462
vt 0.518060 0.703579
vt 0.000000 0.995118
vt 0.518059 0.012468
vt 0.518059 0.010051
vt 0.518060 0.707215
vt 0.518059 0.012468
vt 0.518060 1.006535
vt 0.000000 0.998944
vt 0.000000 0.657098
vt 0.518060 1.006255
vt 0.000000 0.656976
vt 0.518059 0.010051
vt 0.518059 0.010870
vt 0.518059 0.008903
vt 0.000000 0.610269
vt 0.518060 0.582760
vt 0.999999 0.004793
vt 1.000000 0.620104
vt 0.000000 0.596030
vt 1.000000 0.632729
vt 1.000000 0.998944
vt 1.000000 0.591487
vt 1.000000 0.604765
vt 1.000000 0.620104
vt 0.518060 0.606222
vt 0.000000 0.625918
vt 0.000000 0.621206
vt 0.518060 1.003371
vt 1.000000 0.275690
vt 1.000000 0.998771
vt 0.000000 0.598654
vt 1.000000 0.579731
vt 1.000000 0.591487
vt 0.518060 0.559422
vt 0.000000 0.617355
vt 0.518060 0.558231
vt 0.000000 0.592569
vt 1.000000 0.487811
vt 1.000000 0.717343
vt 0.999999 0.006476
vt 0.999999 0.014127
vt 1.000000 0.598930
vt 0.999999 0.006476
vt 1.000000 0.606183
vt 0.999999 0.014127
vt 1.000000 0.670883
vt 0.999999 0.006476
vt 1.000000 0.672765
vt 0.999999 0.014127
vt 0.518060 0.595514
vt 0.000000 0.684895
vt 1.000000 0.532205
vt 0.999999 0.006994
vt 1.000000 0.539228
vt 0.518060 0.595131
vt 0.000000 0.680816
vt 0.999999 0.016073
s 1
f 17/1/1 14/2/2 18/3/3
f 13/4/4 15/5/5 10/6/6
f 13/4/4 16/7/7 18/3/3
f 26/8/8 25/9/9 22/2/10
f 26/8/8 23/10/11 24/11/12
f 19/12/13 26/8/8 21/13/14
f 33/14/15 31/2/16 34/15/17
f 28/16/18 34/15/17 30/13/19
f 40/17/20 42/18/21 36/19/22
f 38/13/23 35/20/24 42/18/21
f 48/21/25 50/22/26 44/23/27
f 56/24/28 58/25/29 52/26/30
f 72/27/31 74/28/32 68/6/33
f 83/29/34 82/30/35 79/13/36
f 88/2/37 86/14/38 91/31/39
f 91/31/39 90/32/40 87/13/41
f 97/33/42 96/2/43 99/34/44
f 92/35/45 99/34/44 95/13/46
f 118/36/47 124/37/48 123/38/49
f 119/39/50 122/40/51 129/6/52
f 136/40/53 140/41/54 130/6/55
f 134/37/56 141/42/57 135/38/58
f 142/43/59 149/44/60 146/38/61
f 143/45/62 145/40/63 151/6/64
f 157/40/65 160/46/66 152/6/67
f 155/44/68 161/47/69 156/38/70
f 163/48/71 165/40/72 170/6/73
f 162/49/74 168/50/75 166/51/76
f 172/50/77 179/52/78 174/53/79
f 175/40/80 178/54/81 171/6/82
f 181/55/83 183/40/84 189/6/85
f 195/40/86 198/56/87 190/6/88
f 6/2/89 3/50/90 7/57/91 9/58/92
f 9/58/92 7/57/91 1/6/93 5/13/94
f 9/58/92 5/13/94 2/59/95 8/60/96
f 14/2/2 12/50/97 15/5/5 18/3/3
f 22/2/10 20/50/98 23/10/11 26/8/8
f 13/4/4 18/3/3 15/5/5
f 11/59/99 16/7/7 13/4/4
f 16/7/7 17/1/1 18/3/3
f 31/2/16 29/50/100 32/61/101 34/15/17
f 24/11/12 21/13/14 26/8/8
f 19/12/13 25/9/9 26/8/8
f 32/61/101 27/6/102 30/13/19 34/15/17
f 39/2/103 42/18/21 41/62/104 37/63/105
f 28/16/18 33/14/15 34/15/17
f 47/2/106 50/22/26 49/64/107 45/63/108
f 36/19/22 42/18/21 39/2/103
f 40/17/20 38/13/23 42/18/21
f 42/18/21 35/20/24 41/62/104
f 50/22/26 46/13/109 43/59/110 49/64/107
f 44/23/27 50/22/26 47/2/106
f 48/21/25 46/13/109 50/22/26
f 55/2/111 58/25/29 57/65/112 53/63/113
f 58/25/29 54/13/114 51/59/115 57/65/112
f 52/26/30 58/25/29 55/2/111
f 56/24/28 54/13/114 58/25/29
f 66/66/116 67/67/117 64/2/118 62/63/119
f 64/2/118 67/67/117 65/68/120 61/50/121
f 67/67/117 63/13/122 59/6/123 65/68/120
f 60/59/124 63/13/122 67/67/117 66/66/116
f 80/2/125 83/29/34 81/69/126 77/50/127
f 72/27/31 70/50/128 75/70/129
f 72/27/31 75/70/129 74/28/32
f 74/28/32 73/71/130 69/59/131
f 74/28/32 75/70/129 73/71/130
f 75/70/129 71/1/132 73/71/130
f 83/29/34 80/2/125 78/72/133
f 83/29/34 79/13/36 76/6/134 81/69/126
f 88/2/37 91/31/39 89/73/135 85/50/136
f 83/29/34 78/72/133 82/30/35
f 87/13/41 84/6/137 89/73/135 91/31/39
f 98/74/138 99/34/44 96/2/43 94/63/139
f 91/31/39 86/14/38 90/32/40
f 98/74/138 93/59/140 95/13/46 99/34/44
f 92/35/45 97/33/42 99/34/44
f 107/75/141 108/76/142 105/2/143 103/63/144
f 105/2/143 108/76/142 106/77/145 102/50/146
f 108/76/142 104/13/147 100/6/148 106/77/145
f 101/59/149 104/13/147 108/76/142 107/75/141
f 116/65/150 117/78/151 114/2/152 112/63/153
f 114/2/152 117/78/151 115/79/154 111/50/155
f 117/78/151 113/13/156 109/6/157 115/79/154
f 110/59/158 113/13/156 117/78/151 116/65/150
f 118/36/47 123/38/49 122/40/51 119/39/50
f 121/80/159 120/81/160 118/36/47
f 121/80/159 118/36/47 119/39/50 128/82/161
f 125/2/162 127/50/163 124/37/48 118/36/47
f 126/63/164 125/2/162 118/36/47 120/81/160
f 132/63/165 139/81/166 141/42/57 133/2/167
f 133/2/167 141/42/57 134/37/56 131/50/168
f 141/42/57 140/41/54 136/40/53 135/38/58
f 138/80/169 137/83/170 140/41/54 141/42/57
f 142/43/59 146/38/61 145/40/63 143/45/62
f 141/42/57 139/81/166 138/80/169
f 144/84/171 142/43/59 143/45/62 150/85/172
f 148/63/173 147/2/174 142/43/59 144/84/171
f 142/43/59 147/2/174 149/44/60
f 153/63/175 159/86/176 161/47/69 154/2/177
f 161/47/69 160/46/66 157/40/65 156/38/70
f 155/44/68 154/2/177 161/47/69
f 159/86/176 158/87/178 160/46/66 161/47/69
f 162/49/74 166/51/76 165/40/72 163/48/71
f 164/88/179 162/49/74 163/48/71 169/89/180
f 179/52/78 178/54/81 175/40/80 174/53/79
f 164/88/179 167/63/181 162/49/74
f 179/52/78 173/63/182 177/90/183
f 6/2/89 9/58/92 8/60/96 4/63/184
f 177/90/183 176/91/185 178/54/81 179/52/78
f 180/92/186 184/93/187 183/40/84 181/55/83
f 182/94/188 180/92/186 181/55/83 188/95/189
f 185/2/190 187/50/191 184/93/187 180/92/186
f 186/63/192 185/2/190 180/92/186 182/94/188
f 192/63/193 197/96/194 199/97/195 193/2/196
f 193/2/196 199/97/195 194/98/197 191/50/198
f 199/97/195 198/56/87 195/40/86 194/98/197
f 197/96/194 196/99/199 198/56/87 199/97/195
