# Blender 3.6.5
# www.blender.org
o Plant_1_LOD4
v 0.039316 0.001291 -0.342974
v 0.536288 0.241916 -0.372924
v 0.109811 -0.068144 0.319040
v 0.592334 0.277354 0.310633
v -0.259834 0.071238 -0.242977
v 0.295773 -0.032418 0.162866
v 0.156635 0.219392 -0.655188
v 0.674462 0.195993 -0.208970
v 0.620768 0.189098 0.312876
v -0.220170 -0.050356 0.257474
v 0.324719 -0.002288 -0.135111
v 0.067600 0.215711 0.719599
v 0.319001 -0.032931 -0.100741
v -0.362054 0.165033 -0.599279
v -0.349103 0.064747 -0.032041
v 0.315406 0.171247 -0.619815
v 0.185666 0.179003 0.689991
v -0.472480 0.255899 0.505087
v -0.336443 -0.035684 0.000499
v 0.315154 0.003951 0.185193
v -0.399732 0.225758 0.262148
v -0.348084 0.230342 0.580911
v -0.651232 0.265467 -0.035307
v -0.201453 -0.043476 -0.244896
v 0.099955 -0.001332 0.354193
v -0.419725 0.225074 -0.144015
v -0.727725 0.244049 0.007848
v 0.000087 -0.051880 -0.353177
v -0.282903 0.003824 0.251498
v -0.420970 0.301983 -0.605718
v 0.039316 0.001291 -0.342974
v 0.072221 -0.018135 0.329404
v 0.592336 0.274592 0.310231
v 0.537233 0.235336 -0.372141
v 0.673601 0.192542 -0.209106
v 0.157045 0.216427 -0.655491
v 0.293694 -0.013443 0.171280
v -0.259928 0.071474 -0.242911
v 0.323657 0.001291 -0.137260
v 0.072094 0.151437 0.708627
v -0.229771 -0.031675 0.249602
v 0.623814 0.243325 0.314575
v -0.349041 0.065631 -0.031796
v -0.362638 0.172002 -0.599766
v 0.315406 0.171247 -0.619815
v 0.319001 -0.032931 -0.100741
v 0.316385 0.007097 0.183758
v -0.324629 0.032400 -0.054268
v -0.471467 0.247682 0.504428
v 0.185375 0.177223 0.690016
v -0.400652 0.226234 0.267508
v 0.102483 0.001290 0.353312
v -0.159221 0.010470 -0.274815
v -0.650285 0.258088 -0.034774
v -0.347599 0.251415 0.582352
v -0.426598 0.228371 -0.140562
v -0.285277 0.001290 0.250519
v 0.027621 -0.022881 -0.345005
v -0.726296 0.264516 0.006899
v -0.421190 0.300165 -0.605490
v 0.658859 0.326295 0.335527
v 0.419390 0.229593 0.571762
v 0.138028 0.223996 0.414459
v 0.179338 0.000440 -0.291505
v 0.652321 0.207064 -0.056318
v 0.789665 0.188444 -0.027259
v -0.185754 -0.015121 0.269134
v 0.179502 0.000252 -0.291370
v 0.789665 0.188444 -0.027259
v 0.421597 0.250079 0.579747
v 0.652764 0.207835 -0.056272
v 0.138028 0.223996 0.414459
v -0.204003 0.001645 0.263366
v 0.668342 0.331142 0.321085
v -0.661882 0.357969 -0.340042
v -0.419689 0.223976 -0.556086
v -0.358285 0.118111 0.210085
v -0.786307 0.239495 -0.005099
v 0.121262 -0.019855 -0.304467
v -0.156373 0.052092 0.335984
v -0.420346 0.210056 -0.553828
v -0.786307 0.239495 -0.005099
v -0.358292 0.118026 0.210062
v 0.114434 -0.019526 -0.306366
v -0.176031 0.028083 0.317721
v -0.666044 0.360045 -0.331981
v 0.115267 0.349258 -0.715501
v 0.383179 0.190895 -0.553146
v -0.313875 0.000440 -0.104147
v -0.259605 0.242324 -0.723764
v 0.336110 -0.015121 0.054368
v -0.313803 0.000252 -0.104346
v 0.382856 0.185729 -0.553203
v -0.259643 0.242448 -0.723786
v 0.336720 0.001645 0.073498
v 0.113273 0.348010 -0.715656
v -0.395946 0.328511 0.307942
v -0.323321 -0.020262 -0.060095
v 0.318292 0.007024 0.143711
v -0.483871 0.266193 0.628181
v 0.181474 0.243313 0.804515
v 0.316535 0.003759 0.147166
v -0.475128 0.238879 0.617433
v 0.181946 0.244500 0.804810
v -0.394389 0.325541 0.305172
v -0.321490 -0.001461 -0.080430
vn -0.1370 0.9430 0.3034
vn -0.1352 0.8997 0.4150
vn -0.1368 0.9364 0.3231
vn -0.2477 0.9183 -0.3087
vn -0.1686 0.9418 -0.2909
vn -0.2347 0.9227 -0.3059
vn 0.0935 0.9558 0.2789
vn -0.0038 0.9847 0.1742
vn 0.0736 0.9634 0.2578
vn 0.2323 0.8871 -0.3988
vn 0.1802 0.9176 -0.3543
vn 0.2345 0.9475 -0.2173
vn 0.5128 0.8452 -0.1508
vn 0.4216 0.8923 -0.1611
vn 0.3784 0.9246 -0.0441
vn 0.4490 0.8639 0.2282
vn 0.4697 0.8545 0.2216
vn 0.3458 0.9021 0.2581
vn 0.2703 -0.9119 0.3089
vn 0.2791 -0.9262 0.2535
vn 0.2808 -0.9288 0.2419
vn -0.0065 -0.9829 -0.1839
vn -0.0986 -0.9541 -0.2828
vn -0.0799 -0.9615 -0.2630
vn -0.2281 -0.9516 0.2059
vn -0.1214 -0.9912 0.0534
vn -0.1890 -0.9483 0.2549
vn -0.2426 -0.9159 0.3197
vn -0.2078 -0.8588 0.4683
vn -0.4151 -0.9025 0.1152
vn -0.1112 -0.9928 0.0438
vn -0.3487 -0.9319 0.0998
vn -0.3144 0.8870 -0.3381
vn -0.2392 0.8341 -0.4970
vn -0.2216 0.9582 -0.1809
vn -0.1281 0.9575 -0.2584
vn 0.1884 0.9387 -0.2888
vn 0.3066 0.9364 0.1705
vn 0.0828 0.9294 0.3595
vn 0.0789 0.9290 0.3615
vn -0.2768 -0.9261 -0.2563
vn -0.3165 -0.9313 -0.1804
vn -0.4083 -0.9067 -0.1054
vn -0.0769 -0.9259 -0.3698
vn -0.0337 0.9165 0.3986
vn 0.3267 0.8871 0.3261
vn -0.0142 0.9181 0.3960
vn -0.2042 -0.9497 0.2373
vn 0.0789 -0.9656 -0.2476
vn -0.1724 -0.9682 0.1810
vn 0.4589 -0.8883 -0.0168
vn -0.1369 0.9681 0.2096
vn -0.3106 0.8945 -0.3216
vn 0.1711 0.9173 0.3596
vn 0.1381 0.9871 -0.0811
vn 0.1493 0.7173 -0.6806
vn 0.1613 0.9866 -0.0231
vn 0.6469 0.6656 -0.3723
vn -0.5102 0.8572 0.0696
vn 0.5628 0.8047 0.1892
vn -0.4933 -0.8596 0.1332
vn 0.1332 -0.9694 -0.2060
vn 0.1334 -0.9464 -0.2942
vn 0.1334 -0.9511 -0.2786
vn 0.1327 -0.9210 -0.3662
vn 0.2886 -0.9394 0.1850
vn -0.1724 -0.9171 -0.3595
vn -0.4395 -0.8675 -0.2331
vn -0.3301 0.9170 -0.2241
vn -0.1523 0.9592 0.2383
vn 0.2122 -0.9552 0.2061
vn 0.3024 -0.8939 0.3309
vn 0.3126 -0.9174 0.2461
vn 0.1164 -0.9527 0.2809
vn -0.1977 -0.9293 0.3118
vn 0.4324 0.9005 0.0459
vn 0.3537 0.9269 0.1253
vn 0.2511 -0.8662 0.4321
vn 0.1721 -0.9749 -0.1414
vn -0.4347 -0.8982 -0.0657
vn -0.1470 0.9000 0.4103
vn 0.0175 -0.9259 -0.3773
vn 0.0386 -0.9239 -0.3806
vn 0.1665 -0.9025 -0.3971
vn 0.1842 0.9602 -0.2099
vn 0.2112 0.9405 -0.2662
vn 0.2870 0.8566 -0.4287
vn -0.3610 -0.8872 -0.2872
vn -0.2991 -0.8619 0.4096
vn -0.0157 0.9823 0.1868
vt 0.007963 0.004847
vt 0.999999 0.031788
vt 0.983086 0.998808
vt 0.985368 1.000487
vt 0.000000 0.997655
vt 0.000000 0.005944
vt 1.000000 1.001048
vt 0.006229 0.998944
vt 0.000014 0.018512
vt -0.000000 0.004538
vt 0.985125 0.629879
vt 0.000000 0.998253
vt 0.000000 0.006223
vt 0.994240 0.590770
vt 0.000000 0.999307
vt -0.000000 0.003966
vt 0.994382 1.011643
vt 0.000000 0.998303
vt 0.000000 0.004793
vt 0.000028 0.967070
vt 0.993320 0.008692
vt 0.006303 0.998944
vt 0.000016 0.019061
vt 0.000000 0.998698
vt 0.993565 0.998944
vt 0.999009 0.579683
vt -0.000000 0.004331
vt 0.995784 0.004793
vt 0.000000 1.000455
vt 0.994476 0.998944
vt 0.996993 0.591287
vt 0.993967 0.006551
vt 1.000000 0.487811
vt 0.518060 0.994528
vt 0.000000 0.702182
vt 0.000000 0.998944
vt 0.518060 1.001854
vt 0.000000 0.995118
vt 0.000000 0.282356
vt 0.000000 0.282340
vt 0.518060 0.999925
vt 0.012243 0.004917
vt 0.993967 0.006551
vt 1.000000 0.952715
vt 0.518060 1.006535
vt 0.000000 0.994206
vt 0.980335 0.998944
vt 0.998550 0.539396
vt 0.989062 1.000557
vt 0.987123 0.004793
vt 0.000000 0.999460
vt 0.000000 0.995253
vt 0.991010 0.008673
vt 0.992131 0.009810
vt 0.993422 0.998944
vt 0.996199 0.004832
vt 0.994344 0.998944
vt 0.988771 0.004793
vt 0.987725 1.000623
vt 0.000000 0.997681
vt 0.981125 0.004793
vt 0.983993 0.004793
vt 0.994780 0.004793
vt 0.000000 0.995946
vt 0.986033 0.998865
vt 0.008493 0.004863
vt 0.999999 0.022565
vt 0.995031 0.998773
vt 0.992131 0.009810
vt 0.994396 1.011559
vt 0.988048 0.004793
vt 0.000000 0.999093
vt 0.000000 0.017076
vt 1.000000 0.962225
vt 0.518060 0.999467
vt 0.987138 0.014019
vt 0.000000 0.017112
vt 0.000000 0.702746
vt 1.000000 0.968416
vt 0.015213 0.005018
vt 0.999999 0.006476
vt 1.000000 0.950871
vt 1.000000 0.969746
vt 0.999999 0.014127
vt 0.000000 0.989519
vt 0.000000 0.017076
vt 0.518060 1.006255
vt 0.987138 0.014019
vt 0.000000 0.017112
vt 0.000000 0.989504
vt 0.995941 0.532739
vt 0.000000 0.994321
vt 0.000000 0.011405
vt 0.992948 0.007050
vt 1.000000 0.949737
vt 0.987262 0.015883
vt 0.000000 0.012217
vt 0.977709 0.998944
s 1
f 5/1/1 6/2/2 8/3/3
f 12/4/4 9/5/5 11/6/6
f 16/7/7 14/8/8 15/9/9
f 20/10/10 21/11/11 17/12/12
f 25/13/13 26/14/14 22/15/15
f 29/16/16 30/17/17 27/18/18
f 39/19/19 42/20/20 41/21/21
f 44/22/22 45/7/23 43/23/24
f 50/24/25 49/25/26 51/26/27
f 47/27/28 51/26/27 48/28/29
f 55/29/30 54/30/31 56/31/32
f 67/32/33 63/33/34 61/34/35
f 65/35/36 61/34/35 66/36/37
f 75/37/38 78/38/39 77/39/40
f 83/40/41 86/41/42 85/42/43
f 82/38/44 86/41/42 83/40/41
f 91/43/45 88/44/46 87/45/47
f 104/46/48 103/47/49 105/48/50
f 33/49/51 32/50/51 31/19/51 34/51/51
f 5/1/1 8/3/3 7/52/52
f 11/6/6 10/53/53 12/4/4
f 13/54/54 16/7/7 15/9/9
f 17/12/12 21/11/11 18/55/55
f 20/10/10 19/56/56 21/11/11
f 22/15/15 26/14/14 23/57/57
f 25/13/13 24/58/58 26/14/14
f 4/59/59 2/60/59 1/19/59 3/61/59
f 29/16/16 28/62/60 30/17/17
f 56/31/32 53/63/61 52/19/61 55/29/30
f 36/64/62 35/65/63 38/66/64
f 38/66/64 35/65/63 37/67/65
f 42/20/20 40/68/66 41/21/21
f 43/23/24 45/7/23 46/69/67
f 47/27/28 50/24/25 51/26/27
f 60/70/68 58/71/68 57/19/68 59/72/68
f 61/34/35 65/35/36 64/73/69 67/32/33
f 63/33/34 62/74/70 61/34/35
f 74/75/71 73/76/72 68/77/73 71/78/74
f 71/78/74 69/36/75 74/75/71
f 76/79/76 75/37/38 80/80/77 79/81/76
f 73/76/72 74/75/71 72/33/78
f 74/75/71 70/82/79 72/33/78
f 77/39/40 80/80/77 75/37/38
f 81/83/80 84/84/80 85/42/43 86/41/42
f 87/45/47 90/85/81 89/86/81 91/43/45
f 96/87/82 95/88/83 92/89/84 94/90/84
f 97/91/85 101/92/86 99/93/87 98/94/87
f 95/88/83 96/87/82 93/95/88
f 105/48/50 106/96/89 102/97/89 104/46/48
f 101/92/86 97/91/85 100/98/90
