# Blender 3.6.5
# www.blender.org
o Plant_2_LOD4
v 0.038205 0.001254 -0.333285
v 0.521138 0.235082 -0.362389
v 0.106709 -0.066219 0.310027
v 0.575601 0.269519 0.301858
v -0.252494 0.069225 -0.236113
v 0.287417 -0.031502 0.158265
v 0.152210 0.213195 -0.636679
v 0.655408 0.190456 -0.203066
v 0.603231 0.183756 0.304037
v -0.213950 -0.048933 0.250201
v 0.315546 -0.002223 -0.131294
v 0.065690 0.209618 0.699270
v 0.309989 -0.032001 -0.097896
v -0.351826 0.160370 -0.582349
v -0.339241 0.062918 -0.031136
v 0.306496 0.166409 -0.602306
v 0.180421 0.173946 0.670499
v -0.326938 -0.034676 0.000485
v 0.306251 0.003840 0.179961
v -0.455535 0.288987 0.493002
v -0.338251 0.223835 0.564500
v -0.195762 -0.042247 -0.237978
v 0.097132 -0.001294 0.344187
v -0.629703 0.304018 -0.028874
v -0.707167 0.237155 0.007627
v 0.000085 -0.050414 -0.343200
v -0.274911 0.003716 0.244393
v -0.409078 0.293452 -0.588606
v 0.038205 0.001254 -0.333285
v 0.070181 -0.017623 0.320099
v 0.575602 0.266835 0.301467
v 0.522056 0.228687 -0.361628
v 0.654571 0.187102 -0.203199
v 0.152608 0.210313 -0.636974
v 0.285397 -0.013064 0.166441
v -0.252585 0.069455 -0.236049
v 0.314514 0.001254 -0.133382
v 0.070057 0.147159 0.688609
v -0.223280 -0.030781 0.242551
v 0.606191 0.236451 0.305688
v -0.339181 0.063777 -0.030897
v -0.352393 0.167143 -0.582823
v 0.306496 0.166409 -0.602306
v 0.309989 -0.032001 -0.097896
v 0.307447 0.006897 0.178567
v -0.315458 0.031485 -0.052735
v 0.180138 0.172217 0.670523
v -0.450246 0.287874 0.493745
v 0.099587 0.001254 0.343331
v -0.154723 0.010174 -0.267052
v -0.337779 0.244312 0.565901
v -0.629675 0.301647 -0.028593
v -0.277218 0.001254 0.243442
v 0.026841 -0.022235 -0.335259
v -0.705778 0.257043 0.006704
v -0.409291 0.291686 -0.588385
v 0.640246 0.317077 0.326049
v 0.378025 0.148403 0.513047
v 0.174272 0.000427 -0.283269
v 0.720705 0.165041 -0.007447
v -0.180506 -0.014694 0.261531
v 0.174431 0.000245 -0.283139
v 0.385434 0.161233 0.520342
v 0.715196 0.151526 -0.006555
v -0.198240 0.001598 0.255926
v 0.649461 0.321787 0.312014
v -0.407832 0.217648 -0.540377
v -0.165215 0.031827 0.296860
v -0.795795 0.267776 -0.019301
v 0.117837 -0.019294 -0.295866
v -0.408472 0.204122 -0.538182
v -0.764094 0.232730 -0.004955
v -0.181219 0.014143 0.282656
v 0.111201 -0.018974 -0.297711
v -0.647228 0.349873 -0.322603
v 0.112011 0.339391 -0.695288
v 0.372354 0.185502 -0.537519
v -0.305008 0.000427 -0.101205
v -0.252271 0.235478 -0.703318
v 0.326615 -0.014694 0.052832
v -0.304938 0.000245 -0.101398
v 0.372040 0.180482 -0.537575
v -0.252308 0.235599 -0.703339
v 0.327208 0.001598 0.071421
v 0.110073 0.338179 -0.695439
v -0.384761 0.319230 0.299242
v -0.314187 -0.019690 -0.058397
v 0.309300 0.006825 0.139651
v -0.470202 0.258672 0.610435
v 0.176347 0.236439 0.781788
v 0.307593 0.003652 0.143009
v -0.461706 0.232130 0.599991
v 0.176806 0.237593 0.782074
v -0.383248 0.316345 0.296551
v -0.312408 -0.001419 -0.078158
v -0.213389 0.494224 0.380318
v 0.301750 0.057979 -0.175433
v -0.306778 -0.009139 0.068219
v -0.071650 0.393075 0.701002
v 0.487124 0.277055 0.472192
v 0.295817 0.033365 -0.168498
v -0.076862 0.398319 0.698609
v 0.476498 0.260530 0.464220
v -0.303863 -0.003062 0.077855
v -0.213367 0.489646 0.369360
v 0.154304 0.548064 -0.516805
v -0.324740 0.039757 0.102315
v 0.292025 -0.009139 -0.115760
v 0.111428 0.476026 -0.735655
v -0.522168 0.381700 -0.517053
v -0.321178 0.018409 0.095103
v 0.107282 0.464915 -0.723996
v -0.516753 0.371521 -0.512991
v 0.289110 -0.003062 -0.125396
v 0.153192 0.543049 -0.514682
v 0.554425 0.548004 -0.027487
v -0.208466 0.039757 -0.251137
v 0.201800 -0.009139 0.258410
v 0.735831 0.489888 -0.114130
v 0.314137 0.428364 -0.682832
v 0.599626 0.331912 -0.134850
v -0.232072 0.034238 -0.236380
v 0.319398 0.497251 -0.719571
v 0.209924 -0.003062 0.252464
v -0.515163 0.533600 -0.028877
v 0.170745 0.028995 0.297278
v -0.725841 0.385158 0.095929
v -0.383539 0.326718 0.614072
v -0.172833 0.001120 -0.270282
v 0.170745 0.028995 0.297278
v -0.727326 0.385894 0.095985
v -0.385448 0.330860 0.617197
v -0.517492 0.530685 -0.026485
v -0.159381 0.008604 -0.284142
v 0.142103 0.398615 0.428443
v 0.423703 0.310884 0.565515
v 0.155544 0.019208 -0.295459
v 0.724813 0.244095 0.004246
v -0.187156 -0.004005 0.257927
v 0.155872 0.018935 -0.295174
v 0.779830 0.267944 -0.026865
v 0.417261 0.269190 0.535116
v 0.641244 0.301507 -0.051281
v 0.138335 0.354952 0.425844
v -0.203327 0.005356 0.253749
v -0.794822 0.369951 -0.006037
v -0.388792 0.241361 -0.504394
v -0.199054 0.019208 0.271279
v 0.143647 -0.004005 -0.282107
v -0.199381 0.018935 0.270993
v -0.390101 0.242012 -0.506309
v -0.796597 0.368985 -0.006747
v 0.159818 0.005356 -0.277930
v 0.356085 0.243877 -0.523749
v -0.310298 0.019208 -0.079494
v -0.255529 0.367286 -0.739047
v 0.325420 -0.004005 0.060301
v -0.310137 0.018935 -0.079898
v 0.357111 0.243273 -0.525062
v 0.326842 0.005356 0.076943
v -0.255466 0.366949 -0.739004
v -0.390805 0.422072 0.319772
v 0.315236 0.017149 0.124776
v 0.164627 0.303148 0.785763
v -0.451163 0.273289 0.562845
v -0.312537 -0.004511 -0.070034
v 0.315236 0.017149 0.124776
v 0.183079 0.297988 0.793336
v -0.389972 0.198086 0.508240
v 0.242536 0.402478 0.593518
v -0.311663 0.007585 -0.091158
vn -0.1370 0.9430 0.3034
vn -0.1352 0.8997 0.4150
vn -0.1368 0.9364 0.3231
vn -0.2477 0.9183 -0.3087
vn -0.1686 0.9418 -0.2909
vn -0.2347 0.9227 -0.3059
vn 0.0935 0.9558 0.2789
vn -0.0038 0.9847 0.1742
vn 0.0736 0.9634 0.2578
vn 0.1775 0.9032 -0.3908
vn 0.1630 0.8939 -0.4176
vn 0.2421 0.9342 -0.2619
vn 0.4615 0.8665 -0.1901
vn 0.4689 0.8574 -0.2119
vn 0.4230 0.9021 -0.0859
vn 0.4490 0.8639 0.2282
vn 0.4697 0.8545 0.2216
vn 0.3458 0.9021 0.2581
vn 0.2703 -0.9119 0.3089
vn 0.2791 -0.9262 0.2535
vn 0.2808 -0.9288 0.2419
vn -0.0065 -0.9829 -0.1839
vn -0.0986 -0.9541 -0.2828
vn -0.0799 -0.9615 -0.2630
vn -0.2123 -0.9252 0.3145
vn -0.2063 -0.9224 0.3265
vn -0.1776 -0.9070 0.3818
vn -0.3023 0.9414 -0.1496
vn -0.3791 0.8859 0.2674
vn -0.3094 0.9431 -0.1216
vn -0.1485 -0.9088 -0.3898
vn -0.3293 -0.9207 -0.2096
vn -0.3632 -0.9158 -0.1715
vn -0.0337 0.9165 0.3986
vn 0.3267 0.8871 0.3261
vn -0.0142 0.9181 0.3960
vn -0.2042 -0.9497 0.2373
vn 0.0789 -0.9656 -0.2476
vn -0.1724 -0.9682 0.1810
vn 0.1030 0.9304 -0.3519
vn 0.3157 0.9200 -0.2321
vn 0.0185 0.7947 -0.6067
vn -0.3362 -0.9067 0.2548
vn -0.2947 -0.9453 -0.1400
vn -0.1276 -0.9186 0.3740
vn -0.0430 -0.7816 0.6223
vn -0.0963 0.9578 0.2708
vn -0.2201 0.8944 0.3895
vn 0.0571 0.7495 0.6595
vn 0.2259 -0.8861 -0.4047
vn 0.2378 -0.9259 0.2935
vn 0.1076 -0.9568 -0.2701
vn -0.0429 -0.7406 -0.6706
vn -0.2585 0.9652 0.0389
vn -0.4540 0.8910 0.0038
vn -0.5883 0.7491 0.3046
vn -0.4407 -0.8975 0.0157
vn 0.3883 -0.8545 -0.3449
vn -0.2395 -0.9669 -0.0878
vn -0.1182 0.9523 -0.2813
vn 0.2810 0.9590 0.0366
vn -0.1897 0.9237 -0.3328
vn 0.0260 -0.9966 0.0778
vn -0.2217 -0.9666 -0.1283
vn 0.1872 -0.9617 0.2001
vn 0.4054 0.9003 0.1586
vn 0.3893 0.9176 0.0804
vn 0.4046 0.9013 0.1547
vn -0.4041 -0.8819 -0.2426
vn -0.3899 -0.9070 -0.1589
vn -0.3910 -0.9056 -0.1645
vn -0.0170 0.9020 0.4313
vn 0.0472 0.9186 0.3924
vn -0.0134 0.9031 0.4292
vn 0.0941 -0.8836 -0.4587
vn 0.0206 -0.9085 -0.4173
vn 0.0257 -0.9070 -0.4203
vn 0.3305 -0.8732 -0.3583
vn 0.2747 -0.9381 0.2108
vn 0.1911 -0.9775 0.0894
vn 0.0425 -0.8800 0.4731
vn -0.1964 -0.7722 0.6043
vn 0.4589 -0.8883 -0.0168
vn -0.1369 0.9681 0.2096
vn -0.3106 0.8945 -0.3216
vn 0.1711 0.9173 0.3596
vn 0.0985 0.8432 -0.5284
vn 0.4984 0.8105 -0.3078
vn 0.5628 0.8047 0.1892
vn -0.4416 -0.8843 0.1515
vn 0.1332 -0.9694 -0.2060
vn 0.1334 -0.9464 -0.2942
vn 0.1334 -0.9511 -0.2786
vn 0.1327 -0.9210 -0.3662
vn 0.2886 -0.9394 0.1850
vn -0.1724 -0.9171 -0.3595
vn -0.2426 -0.9368 0.2520
vn -0.4395 -0.8675 -0.2331
vn -0.2666 0.9234 -0.2760
vn 0.2853 -0.9478 0.1421
vn 0.2774 -0.9450 0.1731
vn 0.2393 -0.9212 0.3067
vn 0.3288 0.9376 0.1128
vn 0.3568 -0.9020 -0.2430
vn -0.4333 -0.8970 -0.0876
vn -0.1470 0.9000 0.4103
vn 0.0175 -0.9259 -0.3773
vn 0.0386 -0.9239 -0.3806
vn 0.1665 -0.9025 -0.3971
vn 0.1842 0.9602 -0.2099
vn 0.2112 0.9405 -0.2662
vn 0.2870 0.8566 -0.4287
vn -0.3610 -0.8872 -0.2872
vn -0.2991 -0.8619 0.4096
vn -0.0157 0.9823 0.1868
vn 0.3519 -0.8478 -0.3967
vn -0.3637 0.5387 -0.7600
vn 0.2698 0.9461 0.1792
vn 0.3507 -0.5237 0.7763
vn 0.3077 0.6048 0.7346
vn -0.2303 0.9368 -0.2633
vn -0.2899 -0.6023 -0.7437
vn -0.5735 0.6310 0.5223
vn 0.1888 0.9515 -0.2429
vn 0.4464 0.8945 -0.0233
vn 0.6276 0.7671 -0.1329
vn 0.2420 0.9665 0.0856
vn -0.6213 -0.7742 0.1210
vn -0.3898 0.8504 0.3534
vn -0.3477 0.8278 -0.4403
vn 0.4270 -0.8156 0.3905
vn -0.5102 0.8572 0.0696
vn -0.2363 -0.9600 -0.1503
vn 0.2234 0.9359 -0.2722
vn 0.3338 0.8123 -0.4782
vn 0.1480 0.9795 -0.1364
vn 0.4164 0.8819 0.2209
vn -0.3710 -0.9262 -0.0665
vn -0.0691 0.8846 0.4611
vn -0.0582 -0.9274 -0.3695
vn -0.2121 0.8561 0.4713
vt 0.007963 0.004847
vt 0.999999 0.031788
vt 0.983086 0.998808
vt 0.985368 1.000487
vt 0.000000 0.997655
vt 0.000000 0.005944
vt 1.000000 1.001048
vt 0.006229 0.998944
vt 0.000014 0.018512
vt -0.000000 0.004538
vt 0.993616 1.007585
vt 0.000000 0.998253
vt 0.000000 0.006223
vt 0.994347 1.009757
vt 0.000000 0.999307
vt -0.000000 0.003966
vt 0.994382 1.011643
vt 0.000000 0.998303
vt 0.000000 0.004793
vt 0.000028 0.967069
vt 0.993320 0.008692
vt 0.006303 0.998944
vt 0.000016 0.019061
vt -0.000000 0.004331
vt 0.993447 1.008032
vt 0.995784 0.004793
vt 0.993967 0.006551
vt 1.000000 0.889805
vt 0.518060 0.994528
vt 0.000000 0.995118
vt 0.518060 0.999925
vt 0.011414 0.023689
vt 0.993967 0.006551
vt 1.000000 0.952715
vt 0.518060 1.006535
vt 0.000000 0.994206
vt 0.980335 0.998944
vt 0.998550 0.539396
vt 0.983019 0.511638
vt 0.000000 0.931919
vt -0.000000 0.002876
vt 0.000000 0.929279
vt 0.993406 0.998944
vt 0.989936 0.516233
vt 0.001682 -0.005016
vt 0.986702 0.663613
vt 0.000000 0.976308
vt 0.000000 0.009894
vt 0.000000 0.976790
vt 0.994962 0.998944
vt 0.981526 0.661563
vt 0.001630 0.003609
vt 0.982398 0.672642
vt 0.000000 0.989044
vt 0.000000 0.009894
vt 0.000000 0.941536
vt 0.995049 0.998944
vt 0.979458 0.605964
vt 0.959306 0.503915
vt 1.000000 0.973015
vt 0.001580 0.893683
vt 0.000000 0.712877
vt 0.000648 0.998944
vt 0.983598 0.509625
vt 0.993870 0.005690
vt 1.000000 0.939713
vt 0.022877 0.989616
vt 0.000000 0.014240
vt 0.029898 0.988730
vt 0.986320 0.010355
vt 0.993870 0.005690
vt 1.000000 0.935420
vt 0.009433 1.001328
vt 0.000000 0.014240
vt 0.009513 1.001351
vt 0.986320 0.010355
vt 0.002514 0.998944
vt 1.000000 0.935929
vt 0.002819 0.657724
vt 0.982864 0.013104
vt 0.000000 0.008429
vt 0.989062 1.000557
vt 0.987123 0.004793
vt 0.000000 0.999460
vt 0.000000 0.995253
vt 0.991010 0.008673
vt 0.992131 0.009810
vt 0.996199 0.004832
vt 0.988771 0.004793
vt 0.983993 0.004793
vt 0.994411 1.009482
vt 0.994780 0.004793
vt 0.000000 1.000455
vt 0.000000 0.995946
vt 0.986033 0.998865
vt 0.008493 0.004863
vt 0.999999 0.022565
vt 0.995031 0.998773
vt 0.992131 0.009810
vt 0.000000 0.998698
vt 0.994396 1.011559
vt 0.988048 0.004793
vt 0.000000 0.999093
vt 0.000000 0.914924
vt 0.000000 0.017076
vt 0.518060 0.999467
vt 0.987138 0.014019
vt 0.000000 0.017112
vt 0.000000 0.908081
vt 1.000000 0.968417
vt 0.018859 0.995364
vt 0.013886 0.029203
vt 0.999999 0.006476
vt 1.000000 0.880007
vt 1.000000 0.969746
vt 0.999999 0.014127
vt 0.000000 0.989520
vt 0.000000 0.017076
vt 0.518060 1.006255
vt 0.987138 0.014019
vt 0.000000 0.017112
vt 0.000000 0.989504
vt 0.995941 0.532739
vt 0.000000 0.994321
vt 0.000000 0.011405
vt 0.992948 0.007050
vt 1.000000 0.949737
vt 0.987263 0.015883
vt 0.000000 0.012217
vt 0.977709 0.998944
vt 1.000000 0.895701
vt 0.999999 0.007251
vt 0.001772 0.013078
vt 0.014708 0.989509
vt 0.997955 0.005223
vt 0.989568 0.998944
vt 0.999999 0.007251
vt 0.997955 0.005223
vt 0.995775 0.998944
vt 0.999999 0.007251
vt 0.997955 0.005223
vt 0.997533 0.998944
vt 0.000000 0.939734
vt -0.000000 0.004751
vt 0.988713 0.005570
vt 0.978764 0.596947
vt 0.981471 0.010385
vt -0.000000 0.004751
vt 0.994806 0.998944
vt 0.000000 0.014180
vt 0.993870 0.005690
vt 0.986320 0.010355
vt 0.000000 0.014240
vt 0.987725 1.000623
vt 0.000000 0.997681
vt 0.981125 0.004793
vt 1.000000 0.998944
vt 0.002205 0.990925
vt 0.000000 0.008429
vt 0.989818 0.006121
vt 0.994585 0.571341
vt 1.000000 0.935823
vt 0.000000 0.014181
vt 1.000000 0.928650
s 1
f 5/1/1 6/2/2 8/3/3
f 12/4/4 9/5/5 11/6/6
f 16/7/7 14/8/8 15/9/9
f 19/10/10 20/11/11 17/12/12
f 23/13/13 24/14/14 21/15/15
f 27/16/16 28/17/17 25/18/18
f 37/19/19 40/20/20 39/21/21
f 42/22/22 43/7/23 41/23/24
f 45/24/25 48/25/26 46/26/27
f 61/27/28 58/28/29 57/29/30
f 72/30/31 75/31/32 73/32/33
f 80/33/34 77/34/35 76/35/36
f 93/36/37 92/37/38 94/38/39
f 96/39/40 100/40/41 97/41/42
f 103/42/43 102/43/44 105/44/45
f 103/42/43 105/44/45 101/45/46
f 106/46/47 110/47/48 107/48/49
f 113/49/50 112/50/51 115/51/52
f 113/49/50 115/51/52 111/52/53
f 116/53/54 120/54/55 117/55/56
f 132/56/57 131/57/58 133/58/59
f 135/59/60 136/60/61 138/61/62
f 143/62/63 141/63/64 144/64/65
f 149/65/66 147/66/67 146/67/68
f 150/68/69 152/69/70 153/70/71
f 157/71/72 154/72/73 156/73/74
f 158/74/75 161/75/76 160/76/77
f 168/77/78 169/78/79 170/79/80
f 170/79/80 171/80/81 167/81/82
f 31/82/83 30/83/83 29/19/83 32/84/83
f 5/1/1 8/3/3 7/85/84
f 11/6/6 10/86/85 12/4/4
f 13/87/86 16/7/7 15/9/9
f 19/10/10 18/88/87 20/11/11
f 23/13/13 22/89/88 24/14/14
f 27/16/16 26/90/89 28/17/17
f 52/91/90 50/92/90 49/19/90 51/93/90
f 34/94/91 33/95/92 36/96/93
f 36/96/93 33/95/92 35/97/94
f 40/20/20 38/98/95 39/21/21
f 41/23/24 43/7/23 44/99/96
f 45/24/25 47/100/97 48/25/26
f 56/101/98 54/102/98 53/19/98 55/103/98
f 57/29/30 60/104/99 59/105/99 61/27/28
f 66/106/100 65/107/101 62/108/102 64/109/102
f 67/110/103 69/111/103 68/112/103 70/113/103
f 65/107/101 66/106/100 63/114/104
f 71/115/105 74/116/105 73/32/33 75/31/32
f 76/35/36 79/117/106 78/118/106 80/33/34
f 85/119/107 84/120/108 81/121/109 83/122/109
f 86/123/110 90/124/111 88/125/112 87/126/112
f 84/120/108 85/119/107 82/127/113
f 94/38/39 95/128/114 91/129/114 93/36/37
f 90/124/111 86/123/110 89/130/115
f 121/131/116 124/132/116 122/133/116 123/134/116
f 98/135/117 96/39/40 97/41/42
f 100/40/41 96/39/40 99/136/118
f 101/45/46 105/44/45 104/137/119
f 108/138/120 106/46/47 107/48/49
f 110/47/48 106/46/47 109/139/121
f 111/52/53 115/51/52 114/140/122
f 118/141/123 116/53/54 117/55/56
f 116/53/54 119/142/124 120/54/55
f 128/143/125 126/144/126 129/145/126 125/146/127
f 134/147/128 130/148/128 132/56/57 133/58/59
f 128/143/125 125/146/127 127/149/129
f 135/59/60 138/61/62 137/150/130 139/151/130
f 144/64/65 145/152/131 140/153/131 143/62/63
f 4/154/132 2/155/132 1/19/132 3/156/132
f 144/64/65 141/63/64 142/157/133
f 164/158/134 163/159/135 166/160/135 162/161/136
f 148/150/137 149/65/66 146/67/68
f 153/70/71 152/69/70 151/162/138
f 155/163/139 157/71/72 156/73/74
f 160/76/77 161/75/76 159/164/140
f 162/161/136 165/157/141 164/158/134
f 171/80/81 170/79/80 169/78/79
