# Blender 3.6.5
# www.blender.org
o Icosphere.003
v -612.871338 143.637100 214.960556
v -612.345581 138.676086 200.930954
v -612.682800 133.469788 189.861633
v -605.741272 124.707314 198.565048
v -608.700195 130.622314 199.242355
v -696.537903 130.230377 170.785507
v -683.273193 142.312775 161.819809
v -675.604431 149.679062 156.670898
v -663.996887 157.142212 152.128372
v -654.264587 153.569702 151.988220
v -646.232483 144.741135 152.392258
v -696.172485 131.733459 185.578110
v -679.171692 148.571472 169.010864
v -667.321594 150.975235 166.643982
v -657.658264 147.522446 164.962952
v -647.897766 144.402573 163.574158
v -635.805908 144.178604 162.075790
v -702.155151 126.991936 193.488434
v -682.938904 146.531860 182.407196
v -668.347961 148.123825 180.447128
v -656.956299 148.616455 177.958786
v -646.577576 147.168289 175.530014
v -634.973511 147.668793 173.448135
v -703.759949 130.200607 205.925583
v -697.944031 136.096848 202.676636
v -690.709778 141.553558 199.388535
v -678.198975 151.747986 195.128891
v -668.321045 151.018692 193.903137
v -659.278931 145.154343 192.004349
v -647.381836 146.133743 188.836502
v -634.709900 150.711960 185.702835
v -624.955627 148.737289 182.789520
v -705.227478 136.253799 218.775330
v -698.042969 141.720291 215.824615
v -687.222107 153.006592 209.748795
v -675.752319 158.923843 207.147980
v -666.887939 157.430145 206.800934
v -659.745300 148.310242 206.837219
v -651.024780 144.586472 204.498413
v -635.847595 152.328476 199.075134
v -625.639587 150.571365 195.342087
v -618.330261 144.641693 192.328018
v -710.029419 139.389526 234.682541
v -704.731201 143.381317 230.059479
v -696.640137 148.727005 227.384430
v -683.737366 163.484406 220.383194
v -674.139709 166.360382 219.298645
v -665.521423 164.922455 219.195908
v -658.829224 157.637421 219.640182
v -651.446533 148.987549 218.260345
v -638.837585 150.277954 214.125763
v -626.745667 151.431732 209.263870
v -618.680298 145.999008 205.328110
v -702.751038 156.033279 240.138443
v -693.825134 161.488220 237.863144
v -682.771912 169.905426 234.576462
v -673.582275 171.309204 234.282898
v -664.988708 169.295151 235.663284
v -658.724792 161.907944 233.565948
v -650.529785 155.206070 231.409958
v -641.666931 149.988586 229.040924
v -629.627441 149.991119 224.484421
v -619.356018 148.634064 219.228333
v -711.371460 157.489578 257.491211
v -706.883789 161.706589 255.603851
v -699.124390 168.232452 253.339951
v -691.068298 172.574951 252.378006
v -683.219482 174.946426 255.474625
v -673.642029 176.759552 263.128784
v -658.692871 164.040146 249.334824
v -649.875000 160.692261 253.588852
v -640.547546 154.445618 242.695007
v -631.254272 150.369736 239.392029
v -620.344055 150.814911 233.997757
v -717.470520 152.032196 274.584961
v -708.744324 163.956375 272.689117
v -700.394897 171.882553 271.328064
v -691.991516 174.809509 271.170288
v -665.074890 175.044540 267.333771
v -657.911011 168.155365 265.275085
v -640.429626 157.858139 258.008545
v -632.855530 151.055435 254.874222
v -621.885071 151.517029 249.714493
v -719.815674 150.246063 293.680634
v -714.345093 155.096848 293.146515
v -708.198425 164.654861 292.078735
v -702.607788 171.549881 291.176727
v -693.253418 176.724792 290.176239
v -683.159485 179.110733 289.417023
v -673.640625 181.288422 287.369904
v -664.503235 179.391388 284.302032
v -657.493896 170.425476 281.314575
v -648.012024 165.083466 277.173096
v -636.943420 164.821686 272.655701
v -630.103577 157.368042 269.334229
v -621.421204 153.338028 265.419586
v -714.862122 152.607986 311.767059
v -708.927673 158.730438 311.338562
v -701.789001 167.991333 311.395386
v -693.446655 174.365341 311.068909
v -682.715698 183.418579 308.999054
v -672.922302 188.404297 305.997711
v -664.597290 181.644501 301.333038
v -656.545837 170.814789 298.032684
v -645.759766 167.061935 293.627777
v -634.646790 168.086334 288.563263
v -626.624878 163.825546 283.775665
v -617.877563 160.112564 280.772644
v -705.277344 156.557220 332.037445
v -696.288208 164.609985 332.107330
v -688.289307 170.768951 331.549896
v -680.328064 178.885422 330.287445
v -671.762390 186.850891 327.983063
v -662.076660 180.882416 321.683289
v -652.064575 174.328949 315.919250
v -641.496155 171.891327 311.209900
v -631.606750 171.159744 307.824860
v -625.663086 163.330994 304.869812
v -618.652100 156.442932 302.314789
v -701.113037 143.588593 349.177063
v -692.610657 153.181137 349.928680
v -684.155457 164.782639 350.879120
v -675.944641 172.630386 349.015717
v -667.184021 176.782791 346.137299
v -657.608643 175.710007 342.063477
v -647.457947 167.955307 336.750793
v -635.952515 171.654526 333.190674
v -699.123352 132.444809 365.579529
v -688.761414 148.035553 368.153473
v -680.047119 156.347794 368.497711
v -671.279053 163.406158 366.726166
v -660.903503 168.008636 364.596924
v -650.278870 169.053238 361.656982
v -639.723328 167.135040 358.080688
v -629.292053 166.660294 354.548187
v -694.656799 128.238922 382.502808
v -686.232117 134.325653 382.696655
v -676.739502 144.787277 384.167267
v -665.236755 153.596481 384.317963
v -655.052429 157.984497 384.437195
v -638.514771 158.455215 380.655457
v -627.714722 161.872742 378.278320
v -619.875366 160.377151 374.908569
v -680.313049 131.189682 399.869537
v -658.431763 152.832169 402.884918
v -647.091614 162.404587 403.046509
v -637.733643 167.893661 402.979370
v -625.753845 170.681747 400.823242
v -673.873840 124.572258 416.645477
v -645.891113 153.646469 421.102264
v -636.917175 159.354645 420.426758
v -627.838257 164.316742 420.389526
v -616.918457 158.732300 415.727814
v -656.865601 126.859200 437.143585
v -644.998901 134.507767 438.738434
v -630.616882 141.008286 438.808350
v -610.245300 149.470901 436.241760
v -612.682922 128.884659 447.895569
vn 0.8950 0.4300 -0.1185
vn -0.6927 0.7190 -0.0559
vn -0.7187 0.6904 -0.0828
vn -0.7715 0.6137 -0.1679
vn -0.5631 0.8216 -0.0890
vn -0.1142 0.9235 0.3662
vn 0.3163 0.8449 0.4314
vn 0.3684 0.8020 0.4702
vn 0.6485 0.6108 0.4543
vn 0.3133 0.9467 0.0753
vn -0.6668 0.7429 -0.0590
vn -0.7525 0.6488 -0.1128
vn -0.1788 0.9789 0.0987
vn -0.0803 0.9773 0.1959
vn 0.3615 0.9074 0.2143
vn -0.0606 0.9949 -0.0805
vn 0.2907 0.9520 -0.0958
vn 0.0807 0.9691 -0.2331
vn -0.0097 0.9745 -0.2243
vn -0.0924 0.9538 -0.2859
vn -0.7549 0.6049 -0.2535
vn -0.7733 0.5906 -0.2308
vn -0.6529 0.7149 -0.2501
vn -0.7527 0.6394 -0.1570
vn -0.6447 0.7611 -0.0719
vn -0.1459 0.9332 -0.3283
vn 0.0460 0.9766 -0.2102
vn -0.0878 0.9739 -0.2093
vn 0.5630 0.7760 0.2844
vn 0.1938 0.9446 0.2649
vn -0.0623 0.9953 0.0736
vn -0.0294 0.9967 0.0757
vn -0.3785 0.9002 -0.2154
vn -0.7562 0.5544 -0.3475
vn -0.6527 0.6948 -0.3021
vn -0.6576 0.6908 -0.3004
vn -0.7633 0.5455 -0.3461
vn -0.6506 0.6088 -0.4540
vn -0.4908 0.7884 -0.3708
vn -0.0002 0.8586 -0.5126
vn 0.1309 0.8819 -0.4529
vn 0.4214 0.7925 -0.4408
vn 0.7831 0.6129 -0.1058
vn -0.1357 0.9682 -0.2103
vn 0.4278 0.8844 0.1869
vn -0.3365 0.9416 0.0147
vn -0.4904 0.8593 -0.1456
vn 0.1673 0.9804 -0.1043
vn 0.1191 0.9834 -0.1372
vn -0.7364 0.5861 -0.3378
vn -0.6538 0.6524 -0.3833
vn -0.5942 0.7178 -0.3629
vn -0.7633 0.5894 -0.2646
vn -0.7845 0.5505 -0.2854
vn -0.4805 0.6983 -0.5305
vn -0.3018 0.8305 -0.4682
vn 0.1207 0.8395 -0.5298
vn 0.1342 0.8414 -0.5234
vn 0.7163 0.5594 -0.4171
vn 0.6638 0.5811 -0.4708
vn 0.1793 0.7890 -0.5876
vn 0.7323 0.6548 -0.1870
vn -0.5131 0.8128 -0.2757
vn -0.0611 0.9905 0.1228
vn 0.2291 0.9574 0.1760
vn -0.1230 0.9899 -0.0709
vn 0.6305 0.7762 0.0021
vn 0.5321 0.8434 -0.0737
vn 0.8901 0.4552 -0.0236
vn 0.5886 0.7245 -0.3587
vn -0.7537 0.4776 -0.4514
vn -0.5703 0.5646 -0.5967
vn -0.5233 0.6067 -0.5983
vn -0.7767 0.4931 -0.3919
vn -0.6329 0.7206 -0.2830
vn -0.3047 0.8754 -0.3753
vn -0.1533 0.9400 -0.3047
vn 0.1525 0.9367 -0.3151
vn 0.2593 0.9313 -0.2557
vn 0.7278 0.6566 -0.1979
vn 0.7156 0.6663 -0.2097
vn 0.7278 0.6541 -0.2060
vn 0.5170 0.7593 -0.3951
vn -0.2232 0.8871 -0.4040
vn 0.5268 0.8420 0.1163
vn -0.0944 0.9955 0.0014
vn 0.0381 0.9941 0.1013
vn 0.6102 0.7695 0.1884
vn 0.0354 0.9822 -0.1845
vn 0.7242 0.6831 -0.0943
vn 0.4636 0.8407 -0.2799
vn -0.7017 0.5374 -0.4678
vn -0.7925 0.4728 -0.3852
vn -0.6544 0.6364 -0.4083
vn -0.5427 0.6859 -0.4847
vn -0.4596 0.7457 -0.4823
vn -0.6282 0.6713 -0.3934
vn -0.1955 0.9524 -0.2339
vn -0.1541 0.9597 -0.2348
vn -0.0376 0.9819 -0.1856
vn 0.2517 0.9511 -0.1792
vn 0.7467 0.6589 -0.0906
vn 0.6124 0.7833 -0.1072
vn 0.4398 0.8687 -0.2279
vn 0.4483 0.8646 -0.2271
vn 0.2413 0.9165 -0.3190
vn -0.1137 0.9472 -0.2999
vn 0.4079 0.9128 0.0213
vn 0.1252 0.9921 -0.0115
vn -0.1155 0.9815 -0.1527
vn 0.5739 0.8148 -0.0819
vn -0.6878 0.7258 -0.0137
vn -0.8084 0.5657 -0.1625
vn -0.6628 0.7297 -0.1683
vn -0.6921 0.6963 -0.1902
vn -0.4832 0.8507 -0.2068
vn -0.3284 0.9359 -0.1274
vn -0.2409 0.9623 -0.1263
vn 0.2735 0.9465 -0.1711
vn 0.7689 0.6294 -0.1122
vn 0.6423 0.7339 -0.2210
vn 0.4450 0.8616 -0.2443
vn 0.3680 0.9069 -0.2049
vn 0.3300 0.9208 -0.2077
vn 0.6763 0.7357 0.0374
vn -0.0658 0.9965 -0.0509
vn -0.0659 0.9965 -0.0510
vn -0.6641 0.7476 -0.0116
vn -0.8036 0.5940 0.0372
vn -0.8409 0.5412 0.0042
vn -0.6890 0.7247 -0.0067
vn -0.7794 0.6219 -0.0765
vn -0.3292 0.9440 -0.0209
vn -0.4904 0.8633 -0.1196
vn -0.2157 0.9700 -0.1121
vn -0.2368 0.9644 -0.1179
vn -0.0903 0.9885 -0.1211
vn -0.2556 0.9503 -0.1775
vn 0.2758 0.9449 -0.1765
vn 0.1156 0.9613 -0.2501
vn 0.6457 0.7342 -0.2098
vn 0.7650 0.6346 -0.1097
vn 0.5667 0.8136 -0.1299
vn 0.4140 0.8884 -0.1981
vn 0.3656 0.9094 -0.1982
vn -0.1408 0.9067 -0.3976
vn 0.4758 0.7451 -0.4675
vn 0.5691 0.7083 -0.4175
vn -0.2068 0.9105 -0.3581
vn 0.3739 0.9200 -0.1177
vn -0.8375 0.5441 0.0495
vn -0.6990 0.6905 0.1859
vn -0.7551 0.6341 0.1664
vn -0.7848 0.6041 0.1381
vn -0.4627 0.8697 0.1718
vn -0.6029 0.7934 0.0840
vn -0.2210 0.9693 0.1074
vn -0.6543 0.7416 -0.1483
vn -0.2595 0.9444 -0.2019
vn -0.5034 0.8135 -0.2913
vn 0.0729 0.9307 -0.3584
vn 0.5918 0.7996 -0.1025
vn 0.7724 0.6302 -0.0791
vn 0.7924 0.6071 -0.0591
vn 0.4745 0.8790 -0.0474
vn 0.2692 0.9511 -0.1512
vn -0.0239 0.9929 -0.1161
vn -0.1690 0.9700 -0.1747
vn 0.6591 0.7123 -0.2413
vn 0.2022 0.8750 -0.4399
vn 0.2069 0.8736 -0.4405
vn 0.2207 0.8725 -0.4359
vn -0.7766 0.5974 0.1997
vn -0.6405 0.7125 0.2864
vn -0.5762 0.7684 0.2785
vn -0.5734 0.7701 0.2796
vn -0.5866 0.7595 0.2811
vn -0.6779 0.6999 0.2251
vn -0.3834 0.8936 0.2333
vn -0.6657 0.7411 0.0875
vn 0.6372 0.7704 0.0208
vn 0.5097 0.8598 -0.0309
vn 0.7892 0.6096 -0.0749
vn 0.4114 0.8694 -0.2739
vn 0.2289 0.9427 -0.2426
vn 0.0932 0.9541 -0.2847
vn -0.1875 0.9579 -0.2176
vn 0.0181 0.9869 -0.1603
vn 0.3624 0.9098 -0.2024
vn 0.7923 0.6098 -0.0218
vn 0.3918 0.9200 0.0037
vn 0.7195 0.6798 0.1417
vn -0.5429 0.6009 0.5866
vn -0.6695 0.5547 0.4939
vn -0.4895 0.6846 0.5401
vn -0.7750 0.5376 0.3322
vn -0.6414 0.6834 0.3488
vn -0.5940 0.7109 0.3765
vn -0.5743 0.7266 0.3771
vn -0.2230 0.8276 0.5152
vn 0.6218 0.7408 0.2541
vn 0.1932 0.9603 0.2013
vn 0.5776 0.8124 0.0796
vn 0.6350 0.7667 0.0942
vn 0.3094 0.9263 0.2150
vn -0.2821 0.9559 0.0815
vn 0.0713 0.9974 -0.0072
vn -0.6796 0.5658 0.4669
vn -0.8145 0.4901 0.3104
vn -0.7786 0.5414 0.3173
vn -0.6254 0.6370 0.4508
vn -0.5563 0.6915 0.4608
vn -0.4788 0.7206 0.5015
vn -0.2330 0.8360 0.4968
vn -0.2689 0.8312 0.4866
vn 0.2484 0.9049 0.3456
vn -0.0037 0.9464 0.3229
vn 0.6183 0.7851 0.0354
vn 0.1708 0.9850 -0.0241
vn -0.2658 0.9548 0.1331
vn 0.1100 0.9749 0.1937
vn -0.8096 0.4830 0.3337
vn -0.4540 0.6076 0.6517
vn -0.5543 0.5554 0.6200
vn -0.6639 0.5279 0.5296
vn -0.4287 0.6814 0.5932
vn -0.5140 0.6619 0.5456
vn -0.2482 0.8073 0.5354
vn -0.3471 0.7919 0.5024
vn 0.0344 0.8961 0.4426
vn 0.0773 0.8903 0.4488
vn 0.2764 0.9019 0.3320
vn -0.2083 0.9091 0.3607
vn 0.1086 0.9758 0.1897
vn 0.2565 0.9506 0.1747
vn -0.7163 0.5999 0.3564
vn -0.6742 0.6273 0.3898
vn -0.5910 0.7675 0.2482
vn -0.6251 0.7362 0.2594
vn -0.3947 0.9175 -0.0491
vn -0.5059 0.8625 0.0115
vn -0.1138 0.9165 -0.3835
vn -0.2730 0.8895 -0.3665
vn -0.3486 0.8829 -0.3146
vn -0.6490 0.5891 0.4815
vn -0.6793 0.5862 0.4415
vn -0.5995 0.7038 0.3812
vn -0.4671 0.7830 0.4108
vn -0.4598 0.7889 0.4076
vn -0.4357 0.8003 0.4120
vn -0.1674 0.9426 0.2888
vn 0.5349 0.7851 0.3124
vn -0.3115 0.5789 0.7536
vn -0.4810 0.6161 0.6238
vn -0.3399 0.6271 0.7009
vn -0.2817 0.6153 0.7362
vn 0.5406 0.4810 0.6902
vn -0.2874 0.8344 0.4702
vn -0.0989 0.4991 0.8609
vt 0.046875 0.314921
vt 0.048296 0.314921
vt 0.047585 0.316151
vt 0.033821 0.303850
vt 0.036641 0.305080
vt 0.034091 0.305080
vt 0.034801 0.306310
vt 0.036222 0.306310
vt 0.035512 0.307540
vt 0.036932 0.307540
vt 0.036222 0.308770
vt 0.037642 0.308770
vt 0.036932 0.310000
vt 0.038352 0.310000
vt 0.036222 0.303850
vt 0.037642 0.306310
vt 0.038352 0.307540
vt 0.039063 0.308770
vt 0.039773 0.310000
vt 0.039063 0.311231
vt 0.040483 0.311231
vt 0.036932 0.302619
vt 0.037642 0.303850
vt 0.038352 0.305080
vt 0.039063 0.306310
vt 0.039773 0.307540
vt 0.040483 0.308770
vt 0.041193 0.310000
vt 0.041904 0.311231
vt 0.038353 0.302619
vt 0.039063 0.303850
vt 0.039773 0.305080
vt 0.040483 0.306310
vt 0.041193 0.307540
vt 0.041904 0.308770
vt 0.042614 0.310000
vt 0.043324 0.311231
vt 0.042614 0.312461
vt 0.044034 0.312461
vt 0.039376 0.301389
vt 0.039773 0.302619
vt 0.040483 0.303850
vt 0.041193 0.305080
vt 0.041904 0.306310
vt 0.042614 0.307540
vt 0.043324 0.308770
vt 0.044034 0.310000
vt 0.044745 0.311231
vt 0.045455 0.312461
vt 0.044745 0.313691
vt 0.046165 0.313691
vt 0.045455 0.314921
vt 0.041193 0.302619
vt 0.041904 0.303850
vt 0.042614 0.305080
vt 0.043324 0.306310
vt 0.044191 0.307540
vt 0.044745 0.308770
vt 0.045455 0.310000
vt 0.046165 0.311231
vt 0.046875 0.312461
vt 0.047585 0.313691
vt 0.041193 0.300159
vt 0.041904 0.301389
vt 0.042614 0.302619
vt 0.043324 0.303850
vt 0.044301 0.305080
vt 0.045687 0.306310
vt 0.046165 0.308770
vt 0.047544 0.310000
vt 0.047585 0.311231
vt 0.048296 0.312461
vt 0.049006 0.313691
vt 0.042614 0.300159
vt 0.043324 0.301389
vt 0.044034 0.302619
vt 0.044745 0.303850
vt 0.046875 0.307540
vt 0.047585 0.308770
vt 0.049006 0.311231
vt 0.049716 0.312461
vt 0.050426 0.313691
vt 0.043324 0.298929
vt 0.044034 0.300159
vt 0.044745 0.301389
vt 0.045455 0.302620
vt 0.046165 0.303850
vt 0.046875 0.305080
vt 0.047585 0.306310
vt 0.048296 0.307540
vt 0.049006 0.308770
vt 0.049716 0.310000
vt 0.050426 0.311231
vt 0.051137 0.312461
vt 0.051847 0.313691
vt 0.045455 0.300159
vt 0.046165 0.301389
vt 0.046875 0.302620
vt 0.047585 0.303850
vt 0.048296 0.305080
vt 0.049006 0.306310
vt 0.049716 0.307540
vt 0.050426 0.308770
vt 0.051137 0.310000
vt 0.051847 0.311231
vt 0.052557 0.312461
vt 0.053267 0.313691
vt 0.047586 0.301389
vt 0.048296 0.302620
vt 0.049006 0.303850
vt 0.049716 0.305080
vt 0.050426 0.306310
vt 0.051137 0.307540
vt 0.051847 0.308770
vt 0.052557 0.310000
vt 0.053267 0.311231
vt 0.053978 0.312461
vt 0.054688 0.313691
vt 0.049006 0.301389
vt 0.049716 0.302620
vt 0.050426 0.303850
vt 0.051137 0.305080
vt 0.051847 0.306310
vt 0.052557 0.307540
vt 0.053267 0.308770
vt 0.053978 0.310000
vt 0.050426 0.301389
vt 0.051137 0.302619
vt 0.051847 0.303850
vt 0.052557 0.305080
vt 0.053267 0.306310
vt 0.053978 0.307540
vt 0.054688 0.308770
vt 0.055398 0.310000
vt 0.051847 0.301389
vt 0.052557 0.302619
vt 0.053267 0.303850
vt 0.053978 0.305080
vt 0.054688 0.306310
vt 0.055398 0.307540
vt 0.056108 0.308770
vt 0.056818 0.310000
vt 0.053978 0.302619
vt 0.054688 0.303850
vt 0.055398 0.305080
vt 0.056108 0.306310
vt 0.056818 0.307540
vt 0.055398 0.302619
vt 0.056108 0.303850
vt 0.056818 0.305080
vt 0.057529 0.306310
vt 0.058239 0.307540
vt 0.057529 0.303850
vt 0.058239 0.305080
vt 0.058949 0.306310
vt 0.059659 0.307540
vt 0.060370 0.306310
s 0
f 2/1/1 1/2/1 5/3/1
f 6/4/2 12/5/2 7/6/2
f 7/6/3 12/5/3 8/7/3
f 12/5/4 13/8/4 8/7/4
f 8/7/5 13/8/5 9/9/5
f 13/8/6 14/10/6 9/9/6
f 9/9/7 14/10/7 10/11/7
f 14/10/8 15/12/8 10/11/8
f 10/11/9 15/12/9 11/13/9
f 15/12/10 16/14/10 11/13/10
f 6/4/11 18/15/11 12/5/11
f 12/5/12 19/16/12 13/8/12
f 13/8/13 19/16/13 14/10/13
f 19/16/14 20/17/14 14/10/14
f 14/10/15 20/17/15 15/12/15
f 20/17/16 21/18/16 15/12/16
f 15/12/17 21/18/17 16/14/17
f 21/18/18 22/19/18 16/14/18
f 16/14/19 22/19/19 17/20/19
f 22/19/20 23/21/20 17/20/20
f 24/22/21 25/23/21 18/15/21
f 18/15/22 25/23/22 12/5/22
f 25/23/23 26/24/23 12/5/23
f 12/5/24 26/24/24 19/16/24
f 26/24/25 27/25/25 19/16/25
f 19/16/26 27/25/26 20/17/26
f 27/25/27 28/26/27 20/17/27
f 20/17/28 28/26/28 21/18/28
f 28/26/29 29/27/29 21/18/29
f 21/18/30 29/27/30 22/19/30
f 29/27/31 30/28/31 22/19/31
f 22/19/32 30/28/32 23/21/32
f 30/28/33 31/29/33 23/21/33
f 24/22/34 33/30/34 25/23/34
f 33/30/35 34/31/35 25/23/35
f 25/23/36 34/31/36 26/24/36
f 34/31/37 35/32/37 26/24/37
f 26/24/38 35/32/38 27/25/38
f 35/32/39 36/33/39 27/25/39
f 27/25/40 36/33/40 28/26/40
f 36/33/41 37/34/41 28/26/41
f 28/26/42 37/34/42 29/27/42
f 37/34/43 38/35/43 29/27/43
f 29/27/44 38/35/44 30/28/44
f 38/35/45 39/36/45 30/28/45
f 30/28/46 39/36/46 31/29/46
f 39/36/47 40/37/47 31/29/47
f 31/29/48 40/37/48 32/38/48
f 40/37/49 41/39/49 32/38/49
f 43/40/50 44/41/50 33/30/50
f 33/30/51 44/41/51 34/31/51
f 44/41/52 45/42/52 34/31/52
f 34/31/53 45/42/53 35/32/53
f 45/42/54 46/43/54 35/32/54
f 35/32/55 46/43/55 36/33/55
f 46/43/56 47/44/56 36/33/56
f 36/33/57 47/44/57 37/34/57
f 47/44/58 48/45/58 37/34/58
f 37/34/59 48/45/59 38/35/59
f 48/45/60 49/46/60 38/35/60
f 38/35/61 49/46/61 39/36/61
f 49/46/62 50/47/62 39/36/62
f 39/36/63 50/47/63 40/37/63
f 50/47/64 51/48/64 40/37/64
f 40/37/65 51/48/65 41/39/65
f 51/48/66 52/49/66 41/39/66
f 41/39/67 52/49/67 42/50/67
f 52/49/68 53/51/68 42/50/68
f 42/50/69 53/51/69 3/52/69
f 53/51/70 2/1/70 3/52/70
f 43/40/71 54/53/71 44/41/71
f 44/41/72 54/53/72 45/42/72
f 54/53/73 55/54/73 45/42/73
f 45/42/74 55/54/74 46/43/74
f 55/54/75 56/55/75 46/43/75
f 46/43/76 56/55/76 47/44/76
f 56/55/77 57/56/77 47/44/77
f 47/44/78 57/56/78 48/45/78
f 57/56/79 58/57/79 48/45/79
f 48/45/80 58/57/80 49/46/80
f 58/57/81 59/58/81 49/46/81
f 49/46/82 59/58/82 50/47/82
f 59/58/83 60/59/83 50/47/83
f 50/47/84 60/59/84 51/48/84
f 60/59/85 61/60/85 51/48/85
f 51/48/86 61/60/86 52/49/86
f 61/60/87 62/61/87 52/49/87
f 52/49/88 62/61/88 53/51/88
f 62/61/89 63/62/89 53/51/89
f 53/51/90 63/62/90 2/1/90
f 63/62/91 1/2/91 2/1/91
f 64/63/92 65/64/92 43/40/92
f 43/40/93 65/64/93 54/53/93
f 65/64/94 66/65/94 54/53/94
f 54/53/95 66/65/95 55/54/95
f 66/65/96 67/66/96 55/54/96
f 55/54/97 67/66/97 56/55/97
f 67/66/98 68/67/98 56/55/98
f 56/55/99 68/67/99 57/56/99
f 68/67/100 69/68/100 57/56/100
f 57/56/101 69/68/101 58/57/101
f 58/57/102 70/69/102 59/58/102
f 59/58/103 70/69/103 60/59/103
f 70/69/104 71/70/104 60/59/104
f 60/59/105 71/70/105 61/60/105
f 71/70/106 72/71/106 61/60/106
f 61/60/107 72/71/107 62/61/107
f 72/71/108 73/72/108 62/61/108
f 62/61/109 73/72/109 63/62/109
f 73/72/110 74/73/110 63/62/110
f 63/62/111 74/73/111 1/2/111
f 64/63/112 75/74/112 65/64/112
f 75/74/113 76/75/113 65/64/113
f 65/64/114 76/75/114 66/65/114
f 76/75/115 77/76/115 66/65/115
f 66/65/116 77/76/116 67/66/116
f 77/76/117 78/77/117 67/66/117
f 67/66/118 78/77/118 68/67/118
f 69/68/119 79/78/119 58/57/119
f 58/57/120 79/78/120 70/69/120
f 79/78/121 80/79/121 70/69/121
f 70/69/122 80/79/122 71/70/122
f 71/70/123 81/80/123 72/71/123
f 72/71/124 81/80/124 73/72/124
f 81/80/125 82/81/125 73/72/125
f 73/72/126 82/81/126 74/73/126
f 82/81/127 83/82/127 74/73/127
f 84/83/128 85/84/128 75/74/128
f 75/74/129 85/84/129 76/75/129
f 85/84/130 86/85/130 76/75/130
f 76/75/131 86/85/131 77/76/131
f 86/85/132 87/86/132 77/76/132
f 77/76/133 87/86/133 78/77/133
f 87/86/134 88/87/134 78/77/134
f 78/77/135 88/87/135 68/67/135
f 88/87/136 89/88/136 68/67/136
f 68/67/137 89/88/137 69/68/137
f 89/88/138 90/89/138 69/68/138
f 69/68/139 90/89/139 79/78/139
f 90/89/140 91/90/140 79/78/140
f 79/78/141 91/90/141 80/79/141
f 91/90/142 92/91/142 80/79/142
f 80/79/143 92/91/143 71/70/143
f 92/91/144 93/92/144 71/70/144
f 71/70/145 93/92/145 81/80/145
f 93/92/146 94/93/146 81/80/146
f 81/80/147 94/93/147 82/81/147
f 94/93/148 95/94/148 82/81/148
f 82/81/149 95/94/149 83/82/149
f 95/94/150 96/95/150 83/82/150
f 85/84/151 97/96/151 86/85/151
f 97/96/152 98/97/152 86/85/152
f 86/85/153 98/97/153 87/86/153
f 98/97/154 99/98/154 87/86/154
f 87/86/155 99/98/155 88/87/155
f 99/98/156 100/99/156 88/87/156
f 88/87/157 100/99/157 89/88/157
f 100/99/158 101/100/158 89/88/158
f 89/88/159 101/100/159 90/89/159
f 101/100/160 102/101/160 90/89/160
f 90/89/161 102/101/161 91/90/161
f 102/101/162 103/102/162 91/90/162
f 91/90/163 103/102/163 92/91/163
f 103/102/164 104/103/164 92/91/164
f 92/91/165 104/103/165 93/92/165
f 104/103/166 105/104/166 93/92/166
f 93/92/167 105/104/167 94/93/167
f 105/104/168 106/105/168 94/93/168
f 94/93/169 106/105/169 95/94/169
f 106/105/170 107/106/170 95/94/170
f 95/94/171 107/106/171 96/95/171
f 107/106/172 108/107/172 96/95/172
f 98/97/173 109/108/173 99/98/173
f 109/108/174 110/109/174 99/98/174
f 99/98/175 110/109/175 100/99/175
f 110/109/176 111/110/176 100/99/176
f 100/99/177 111/110/177 101/100/177
f 111/110/178 112/111/178 101/100/178
f 101/100/179 112/111/179 102/101/179
f 112/111/180 113/112/180 102/101/180
f 102/101/181 113/112/181 103/102/181
f 113/112/182 114/113/182 103/102/182
f 103/102/183 114/113/183 104/103/183
f 114/113/184 115/114/184 104/103/184
f 104/103/185 115/114/185 105/104/185
f 115/114/186 116/115/186 105/104/186
f 105/104/187 116/115/187 106/105/187
f 116/115/188 117/116/188 106/105/188
f 106/105/189 117/116/189 107/106/189
f 117/116/190 118/117/190 107/106/190
f 107/106/191 118/117/191 108/107/191
f 118/117/192 119/118/192 108/107/192
f 109/108/193 120/119/193 110/109/193
f 120/119/194 121/120/194 110/109/194
f 110/109/195 121/120/195 111/110/195
f 121/120/196 122/121/196 111/110/196
f 111/110/197 122/121/197 112/111/197
f 122/121/198 123/122/198 112/111/198
f 112/111/199 123/122/199 113/112/199
f 123/122/200 124/123/200 113/112/200
f 113/112/201 124/123/201 114/113/201
f 124/123/202 125/124/202 114/113/202
f 114/113/203 125/124/203 115/114/203
f 125/124/204 126/125/204 115/114/204
f 115/114/205 126/125/205 116/115/205
f 126/125/206 127/126/206 116/115/206
f 116/115/207 127/126/207 117/116/207
f 120/119/208 128/127/208 121/120/208
f 128/127/209 129/128/209 121/120/209
f 121/120/210 129/128/210 122/121/210
f 129/128/211 130/129/211 122/121/211
f 122/121/212 130/129/212 123/122/212
f 130/129/213 131/130/213 123/122/213
f 123/122/214 131/130/214 124/123/214
f 131/130/215 132/131/215 124/123/215
f 124/123/216 132/131/216 125/124/216
f 132/131/217 133/132/217 125/124/217
f 125/124/218 133/132/218 126/125/218
f 133/132/219 134/133/219 126/125/219
f 126/125/220 134/133/220 127/126/220
f 134/133/221 135/134/221 127/126/221
f 128/127/222 136/135/222 129/128/222
f 136/135/223 137/136/223 129/128/223
f 129/128/224 137/136/224 130/129/224
f 137/136/225 138/137/225 130/129/225
f 130/129/226 138/137/226 131/130/226
f 138/137/227 139/138/227 131/130/227
f 131/130/228 139/138/228 132/131/228
f 139/138/229 140/139/229 132/131/229
f 132/131/230 140/139/230 133/132/230
f 140/139/231 141/140/231 133/132/231
f 133/132/232 141/140/232 134/133/232
f 141/140/233 142/141/233 134/133/233
f 134/133/234 142/141/234 135/134/234
f 142/141/235 143/142/235 135/134/235
f 137/136/236 144/143/236 138/137/236
f 144/143/237 145/144/237 138/137/237
f 138/137/238 145/144/238 139/138/238
f 145/144/239 146/145/239 139/138/239
f 139/138/240 146/145/240 140/139/240
f 146/145/241 147/146/241 140/139/241
f 140/139/242 147/146/242 141/140/242
f 147/146/243 148/147/243 141/140/243
f 141/140/244 148/147/244 142/141/244
f 144/143/245 149/148/245 145/144/245
f 149/148/246 150/149/246 145/144/246
f 145/144/247 150/149/247 146/145/247
f 150/149/248 151/150/248 146/145/248
f 146/145/249 151/150/249 147/146/249
f 151/150/250 152/151/250 147/146/250
f 147/146/251 152/151/251 148/147/251
f 152/151/252 153/152/252 148/147/252
f 150/149/253 154/153/253 151/150/253
f 154/153/254 155/154/254 151/150/254
f 151/150/255 155/154/255 152/151/255
f 155/154/256 156/155/256 152/151/256
f 152/151/257 156/155/257 153/152/257
f 156/155/258 157/156/258 153/152/258
f 156/155/259 158/157/259 157/156/259
l 4 5
