# Blender 3.6.5
# www.blender.org
o Icosphere.002
v -273.859406 131.293564 211.988342
v -286.671082 127.893272 185.514572
v -286.427032 127.208961 248.987137
v -268.292480 126.877701 252.592224
v -305.569946 124.685654 177.887756
v -297.810089 127.161354 200.265335
v -290.098083 129.407913 224.277115
v -291.093903 128.702209 237.155441
v -317.211578 122.960678 159.775955
v -313.328125 123.500481 168.284592
v -315.211914 124.136559 190.043457
v -313.586151 126.158737 209.982956
v -305.408752 127.768242 226.771927
v -291.078796 125.992355 253.656067
v -257.424255 125.565964 257.472107
v -241.299774 122.532761 264.263489
v -330.810669 120.927444 156.052338
v -322.378479 122.348412 175.441589
v -326.927673 122.351555 183.764954
v -330.926056 123.029816 193.448853
v -328.994690 125.945686 218.440735
v -325.525452 126.470352 229.933914
v -316.796875 126.764572 238.635681
v -308.079407 126.672882 245.142624
v -329.578491 121.025398 167.826645
v -336.869934 120.750656 177.337631
v -342.795776 121.545265 188.051437
v -286.040924 123.744522 264.731140
v -267.156799 121.452530 273.354553
v -318.773804 122.709656 142.600800
v -344.805511 119.074852 164.195801
v -349.692871 119.194267 172.549332
v -366.235107 119.201164 179.570099
v -340.571930 124.655907 260.869202
v -315.179047 124.591866 260.097015
v -252.494217 118.350525 281.604279
v -240.216843 116.968979 280.634552
v -321.107635 121.475830 135.251236
v -340.566345 119.638245 150.024979
v -366.913177 116.575073 148.490143
v -372.689575 117.090546 164.614197
v -316.899506 122.499367 273.405640
v -271.066681 118.466980 287.605316
v -362.483704 116.756477 141.557663
v -362.638184 121.688889 290.616608
v -331.388794 121.213120 284.939392
v -270.254822 115.908493 299.819122
v -256.545959 114.183441 301.078247
v -417.050781 111.361267 123.535194
v -417.681122 112.421448 132.432800
v -309.730438 116.938820 308.004974
v -469.616486 110.243248 126.180740
v -454.867737 113.946785 151.249252
v -278.855896 114.285332 312.790009
v -445.940948 107.333885 106.088120
v -383.873993 119.113205 321.413544
v -491.073029 109.855797 125.292267
v -526.203064 113.257523 143.525055
v -521.132385 126.059952 215.353683
v -536.243286 127.080681 229.856812
v -530.388306 127.960236 244.327484
v -522.745483 128.264572 259.310638
v -332.905579 112.992546 348.497925
v -542.839417 108.520660 117.287560
v -533.108582 123.281898 197.944473
v -522.402344 127.074219 288.693665
v -445.560120 118.931625 350.206665
v -542.601501 116.404922 163.050858
v -548.407104 126.803795 227.855057
v -399.227112 115.898239 357.586884
v -574.427185 105.219994 107.596931
v -564.819092 107.637383 115.210892
v -556.055115 115.001152 158.374908
v -564.581848 121.258942 198.379501
v -552.907288 124.906380 215.983490
v -543.206970 128.722534 244.001389
v -536.522400 128.716904 258.551117
v -529.525696 129.630554 273.817993
v -517.331726 124.262871 318.827545
v -482.397430 120.547333 346.301270
v -364.361328 112.685501 364.500000
v -568.945129 110.331833 134.291306
v -569.336121 116.836845 176.851105
v -568.910034 119.139793 190.479309
v -564.654114 124.919266 217.225876
v -560.314758 128.314774 230.668152
v -554.439270 130.755905 244.608612
v -547.779785 131.780304 259.702850
v -541.274719 131.321365 276.091003
v -534.887634 126.802467 292.451904
v -434.127563 115.678711 372.188263
v -590.619751 103.958443 108.598114
v -589.643311 106.831802 118.240295
v -580.791565 109.066582 131.435074
v -579.824219 111.186432 150.355316
v -581.064697 115.460075 178.441422
v -579.435791 119.230850 191.851898
v -580.475220 123.112900 206.654678
v -573.801270 127.066986 223.143234
v -551.521790 134.100098 277.945404
v -545.729675 130.510025 296.006805
v -539.362061 124.520004 312.354095
v -521.275574 121.697563 337.525787
v -463.337769 115.863579 376.541656
v -403.470276 112.387917 380.565002
v -591.166016 108.089951 130.786362
v -589.288452 109.186012 147.260986
v -588.603394 110.642166 157.690582
v -588.629028 112.068604 169.235474
v -588.739624 114.780945 181.332916
v -550.737244 124.026833 316.913757
v -542.403748 120.046555 339.724335
v -522.909302 115.964348 367.442505
v -486.777344 115.425804 377.819031
v -437.879364 111.355789 395.392029
v -604.779358 105.420403 119.368988
v -602.632629 106.938759 125.802933
v -598.226685 108.948082 140.500427
v -596.701477 109.854988 149.591354
v -595.305481 111.649605 160.000290
v -595.800781 111.222359 171.770630
v -595.559082 115.957550 183.629044
v -553.878174 120.266533 338.435364
v -510.449310 111.976135 391.717621
vn -0.1437 0.9878 -0.0595
vn -0.1420 0.9882 -0.0582
vn -0.1486 0.9879 -0.0447
vn -0.1351 0.9888 -0.0625
vn -0.1187 0.9888 -0.0906
vn -0.0938 0.9944 -0.0496
vn -0.1153 0.9918 -0.0558
vn -0.0988 0.9940 0.0468
vn -0.0273 0.9736 0.2266
vn -0.1359 0.9906 -0.0124
vn -0.1274 0.9894 -0.0700
vn -0.1424 0.9816 -0.1275
vn -0.0730 0.9972 -0.0129
vn -0.0900 0.9916 -0.0932
vn -0.0740 0.9912 -0.1099
vn -0.0522 0.9962 -0.0701
vn -0.0683 0.9974 -0.0249
vn -0.0602 0.9978 0.0266
vn -0.0744 0.9971 0.0129
vn -0.0687 0.9920 0.1060
vn -0.0501 0.9882 0.1445
vn -0.1507 0.9886 0.0061
vn -0.1477 0.9854 -0.0848
vn -0.1062 0.9940 0.0257
vn -0.1269 0.9815 -0.1430
vn -0.0596 0.9977 -0.0330
vn -0.0778 0.9918 -0.1016
vn -0.0591 0.9788 0.1962
vn -0.0281 0.9771 0.2111
vn 0.0028 0.9673 0.2538
vn 0.0023 0.9677 0.2521
vn 0.0601 0.9568 0.2846
vn -0.1425 0.9896 -0.0198
vn -0.1344 0.9904 0.0316
vn -0.1084 0.9911 -0.0776
vn -0.1021 0.9935 -0.0496
vn -0.0635 0.9866 -0.1506
vn -0.0605 0.9924 -0.1071
vn -0.0334 0.9977 0.0589
vn 0.0068 0.9900 0.1410
vn -0.0238 0.9917 0.1267
vn -0.0034 0.9797 0.2004
vn 0.0536 0.9623 0.2667
vn -0.1365 0.9906 0.0091
vn -0.1138 0.9931 -0.0282
vn -0.1227 0.9923 0.0148
vn -0.0717 0.9958 -0.0562
vn 0.0039 0.9878 0.1558
vn 0.0208 0.9766 0.2141
vn 0.0788 0.9711 0.2251
vn -0.1127 0.9926 -0.0460
vn -0.0717 0.9958 -0.0575
vn 0.0208 0.9774 0.2105
vn -0.0642 0.9964 -0.0548
vn 0.0380 0.9868 0.1577
vn 0.0708 0.9772 0.2000
vn 0.1009 0.9684 0.2282
vn -0.0884 0.9956 -0.0304
vn -0.0428 0.9917 -0.1212
vn 0.0413 0.9887 0.1444
vn 0.0385 0.9884 0.1470
vn 0.0670 0.9774 0.2003
vn -0.0293 0.9942 -0.1033
vn -0.0156 0.9904 -0.1372
vn 0.1052 0.9758 0.1918
vn -0.0494 0.9880 -0.1463
vn 0.0504 0.9918 0.1177
vn 0.0594 0.9849 0.1627
vn -0.0299 0.9836 -0.1776
vn -0.0272 0.9924 -0.1202
vn -0.0121 0.9902 -0.1392
vn 0.0086 0.9859 -0.1674
vn 0.0488 0.9928 0.1090
vn 0.0614 0.9894 0.1316
vn 0.0644 0.9890 0.1332
vn 0.0023 0.9838 -0.1791
vn -0.0129 0.9854 -0.1697
vn -0.0345 0.9903 -0.1343
vn -0.0095 0.9967 -0.0801
vn 0.0477 0.9929 0.1085
vn 0.0628 0.9878 0.1424
vn -0.0242 0.9863 -0.1633
vn -0.0439 0.9846 -0.1694
vn -0.0458 0.9854 -0.1639
vn -0.0656 0.9822 -0.1757
vn -0.0655 0.9848 -0.1606
vn -0.0467 0.9890 -0.1404
vn -0.0034 0.9931 -0.1169
vn 0.0613 0.9945 -0.0853
vn 0.0600 0.9978 -0.0272
vn 0.0349 0.9987 -0.0381
vn 0.0369 0.9964 -0.0766
vn -0.0691 0.9856 -0.1541
vn -0.0743 0.9857 -0.1513
vn -0.0912 0.9824 -0.1632
vn -0.1429 0.9727 -0.1826
vn -0.0191 0.9815 -0.1907
vn -0.0241 0.9711 -0.2375
vn 0.0801 0.9791 -0.1869
vn 0.0759 0.9762 -0.2030
vn 0.1667 0.9714 -0.1691
vn 0.1690 0.9755 -0.1408
vn 0.2499 0.9615 -0.1145
vn 0.2548 0.9642 -0.0741
vn 0.1199 0.9862 -0.1140
vn 0.1769 0.9643 0.1973
vn 0.0259 0.9872 0.1573
vn 0.0060 0.9958 0.0919
vn 0.0295 0.9909 0.1313
vn 0.0453 0.9914 0.1232
vn 0.0596 0.9857 0.1574
vn -0.0599 0.9707 -0.2326
vn -0.0486 0.9897 -0.1350
vn -0.0682 0.9857 -0.1539
vn -0.0801 0.9910 -0.1069
vn -0.1526 0.9760 -0.1553
vn -0.1354 0.9792 -0.1509
vn -0.1464 0.9568 -0.2513
vn -0.0131 0.9860 -0.1662
vn -0.0249 0.9666 -0.2552
vn -0.0173 0.9680 -0.2502
vn -0.0066 0.9730 -0.2307
vn 0.1068 0.9761 -0.1892
vn 0.0569 0.9635 -0.2617
vn 0.2489 0.9659 -0.0718
vn 0.2774 0.9554 0.1010
vn 0.3556 0.9273 0.1173
vn 0.3724 0.9088 0.1880
vn -0.0205 0.9938 0.1094
vn -0.0267 0.9911 0.1303
vn -0.0013 0.9908 0.1357
vn -0.0062 0.9876 0.1569
vn 0.0266 0.9903 0.1366
vn 0.0605 0.9844 0.1654
vn -0.0916 0.9568 -0.2759
vn -0.0863 0.9902 -0.1098
vn -0.0901 0.9944 -0.0559
vn -0.1741 0.9796 -0.1009
vn -0.1657 0.9781 -0.1257
vn -0.1621 0.9793 -0.1214
vn -0.2393 0.9583 -0.1564
vn -0.1669 0.9618 -0.2172
vn 0.0847 0.9458 0.3136
vn 0.0229 0.9862 0.1637
vn -0.0610 0.9861 0.1544
vn -0.0574 0.9811 0.1849
vn -0.0388 0.9818 0.1860
vn -0.0096 0.9868 0.1618
vn 0.0343 0.9815 0.1884
vn 0.0530 0.9801 0.1912
vn -0.1095 0.9556 -0.2737
vn -0.1055 0.9751 -0.1949
vn -0.0127 0.9952 -0.0971
vn 0.0666 0.9950 -0.0738
vn 0.0340 0.9841 -0.1742
vn 0.0984 0.9847 -0.1439
vn 0.1629 0.9857 0.0426
vn -0.1585 0.9799 -0.1214
vn -0.2328 0.9048 -0.3566
vn 0.0946 0.9716 -0.2170
vn -0.0004 0.9851 0.1721
vn -0.0372 0.9829 0.1806
vt 0.050972 0.343733
vt 0.060102 0.344445
vt 0.055899 0.345675
vt 0.066954 0.346194
vt 0.069417 0.344445
vt 0.054425 0.343215
vt 0.061845 0.343215
vt 0.068466 0.343215
vt 0.073137 0.343250
vt 0.077230 0.341401
vt 0.079331 0.342689
vt 0.076029 0.342380
vt 0.045611 0.342395
vt 0.047629 0.341985
vt 0.050423 0.341985
vt 0.053730 0.341985
vt 0.062785 0.341854
vt 0.067271 0.341572
vt 0.070553 0.341503
vt 0.073396 0.341421
vt 0.041035 0.341251
vt 0.043519 0.340754
vt 0.046870 0.340754
vt 0.050504 0.340754
vt 0.079997 0.340113
vt 0.081574 0.342423
vt 0.082830 0.339678
vt 0.084530 0.341994
vt 0.038402 0.339594
vt 0.041764 0.339262
vt 0.045226 0.339524
vt 0.048560 0.338792
vt 0.073044 0.338361
vt 0.075667 0.339524
vt 0.085825 0.338490
vt 0.032059 0.338859
vt 0.036165 0.338294
vt 0.039665 0.337132
vt 0.044195 0.337707
vt 0.077712 0.337707
vt 0.084332 0.337086
vt 0.035765 0.336393
vt 0.041483 0.334090
vt 0.077564 0.335834
vt 0.085489 0.335055
vt 0.087372 0.334773
vt 0.038743 0.333496
vt 0.074250 0.334374
vt 0.082199 0.333152
vt 0.043683 0.331325
vt 0.049575 0.331931
vt 0.085708 0.332286
vt 0.035250 0.331043
vt 0.074298 0.330161
vt 0.044552 0.329930
vt 0.048670 0.327936
vt 0.074417 0.325327
vt 0.081094 0.327169
vt 0.042863 0.326308
vt 0.050171 0.325992
vt 0.054643 0.326798
vt 0.056724 0.324926
vt 0.057013 0.327559
vt 0.057507 0.325954
vt 0.070561 0.325214
vt 0.078056 0.324116
vt 0.041184 0.324222
vt 0.048892 0.324762
vt 0.053016 0.323968
vt 0.055350 0.324762
vt 0.058239 0.324762
vt 0.058943 0.325982
vt 0.059659 0.324762
vt 0.060403 0.326049
vt 0.061080 0.324762
vt 0.044607 0.323532
vt 0.050342 0.323532
vt 0.051847 0.323532
vt 0.054688 0.323532
vt 0.056108 0.323532
vt 0.057529 0.323532
vt 0.058949 0.323532
vt 0.060370 0.323532
vt 0.061790 0.323532
vt 0.062513 0.324784
vt 0.064420 0.323881
vt 0.067902 0.323962
vt 0.071924 0.323188
vt 0.038445 0.323156
vt 0.039919 0.321841
vt 0.043228 0.322302
vt 0.046168 0.322302
vt 0.049628 0.322302
vt 0.051137 0.322302
vt 0.052318 0.321889
vt 0.054505 0.322302
vt 0.059659 0.322302
vt 0.061080 0.322302
vt 0.062500 0.322302
vt 0.064944 0.322302
vt 0.069957 0.321955
vt 0.074484 0.321713
vt 0.037400 0.321491
vt 0.042042 0.321072
vt 0.044745 0.321072
vt 0.046165 0.321072
vt 0.047585 0.321072
vt 0.049006 0.321072
vt 0.061790 0.321072
vt 0.063444 0.320666
vt 0.065967 0.320372
vt 0.068295 0.320947
vt 0.071703 0.319930
vt 0.038352 0.319842
vt 0.039773 0.319842
vt 0.042614 0.319842
vt 0.044034 0.319842
vt 0.045455 0.319842
vt 0.046875 0.319842
vt 0.048296 0.319842
vt 0.062500 0.319842
vt 0.066957 0.318611
s 0
f 5/1/1 6/2/1 2/3/1
f 2/3/2 6/2/2 1/4/2
f 6/2/3 7/5/3 1/4/3
f 5/1/4 11/6/4 6/2/4
f 11/6/5 12/7/5 6/2/5
f 12/7/6 13/8/6 6/2/6
f 6/2/7 13/8/7 7/5/7
f 13/8/8 8/9/8 7/5/8
f 14/10/9 4/11/9 3/12/9
f 10/13/10 18/14/10 5/1/10
f 18/14/11 19/15/11 5/1/11
f 19/15/12 20/16/12 5/1/12
f 5/1/13 20/16/13 11/6/13
f 11/6/14 20/16/14 12/7/14
f 20/16/15 21/17/15 12/7/15
f 12/7/16 21/17/16 13/8/16
f 21/17/17 22/18/17 13/8/17
f 22/18/18 23/19/18 13/8/18
f 13/8/19 23/19/19 8/9/19
f 23/19/20 24/20/20 8/9/20
f 24/20/21 3/12/21 8/9/21
f 9/21/22 25/22/22 10/13/22
f 25/22/23 26/23/23 10/13/23
f 10/13/24 26/23/24 18/14/24
f 26/23/25 27/24/25 18/14/25
f 18/14/26 27/24/26 19/15/26
f 19/15/27 27/24/27 20/16/27
f 24/20/28 14/10/28 3/12/28
f 14/10/29 28/25/29 4/11/29
f 4/11/30 28/25/30 15/26/30
f 28/25/31 29/27/31 15/26/31
f 15/26/32 29/27/32 16/28/32
f 17/29/33 31/30/33 9/21/33
f 9/21/34 31/30/34 25/22/34
f 31/30/35 32/31/35 25/22/35
f 25/22/36 32/31/36 26/23/36
f 32/31/37 33/32/37 26/23/37
f 26/23/38 33/32/38 27/24/38
f 23/19/39 34/33/39 24/20/39
f 34/33/40 35/34/40 24/20/40
f 24/20/41 35/34/41 14/10/41
f 14/10/42 35/34/42 28/25/42
f 29/27/43 36/35/43 16/28/43
f 30/36/44 39/37/44 17/29/44
f 39/37/45 40/38/45 17/29/45
f 40/38/46 31/30/46 17/29/46
f 31/30/47 41/39/47 32/31/47
f 35/34/48 42/40/48 28/25/48
f 42/40/49 29/27/49 28/25/49
f 29/27/50 43/41/50 36/35/50
f 44/42/51 40/38/51 39/37/51
f 40/38/52 41/39/52 31/30/52
f 42/40/53 43/41/53 29/27/53
f 40/38/54 50/43/54 41/39/54
f 42/40/55 46/44/55 43/41/55
f 43/41/56 47/45/56 36/35/56
f 47/45/57 48/46/57 36/35/57
f 44/42/58 49/47/58 40/38/58
f 49/47/59 50/43/59 40/38/59
f 45/48/60 51/49/60 46/44/60
f 46/44/61 51/49/61 43/41/61
f 51/49/62 47/45/62 43/41/62
f 50/43/63 52/50/63 41/39/63
f 52/50/64 53/51/64 41/39/64
f 47/45/65 54/52/65 48/46/65
f 55/53/66 49/47/66 44/42/66
f 56/54/67 51/49/67 45/48/67
f 51/49/68 54/52/68 47/45/68
f 55/53/69 52/50/69 49/47/69
f 49/47/70 52/50/70 50/43/70
f 52/50/71 57/55/71 53/51/71
f 57/55/72 58/56/72 53/51/72
f 70/57/73 51/49/73 56/54/73
f 70/57/74 63/58/74 51/49/74
f 51/49/75 63/58/75 54/52/75
f 57/55/76 64/59/76 58/56/76
f 64/59/77 68/60/77 58/56/77
f 65/61/78 69/62/78 59/63/78
f 69/62/79 60/64/79 59/63/79
f 67/65/80 70/57/80 56/54/80
f 70/57/81 81/66/81 63/58/81
f 72/67/82 73/68/82 64/59/82
f 64/59/83 73/68/83 68/60/83
f 73/68/84 74/69/84 68/60/84
f 68/60/85 74/69/85 65/61/85
f 74/69/86 75/70/86 65/61/86
f 65/61/87 75/70/87 69/62/87
f 69/62/88 76/71/88 60/64/88
f 60/64/89 76/71/89 61/72/89
f 76/71/90 77/73/90 61/72/90
f 61/72/91 77/73/91 62/74/91
f 77/73/92 78/75/92 62/74/92
f 72/67/93 82/76/93 73/68/93
f 82/76/94 83/77/94 73/68/94
f 83/77/95 84/78/95 73/68/95
f 73/68/96 84/78/96 74/69/96
f 74/69/97 85/79/97 75/70/97
f 85/79/98 86/80/98 75/70/98
f 75/70/99 86/80/99 69/62/99
f 86/80/100 87/81/100 69/62/100
f 69/62/101 87/81/101 76/71/101
f 87/81/102 88/82/102 76/71/102
f 76/71/103 88/82/103 77/73/103
f 88/82/104 89/83/104 77/73/104
f 77/73/105 89/83/105 78/75/105
f 89/83/106 90/84/106 78/75/106
f 78/75/107 90/84/107 66/85/107
f 90/84/108 79/86/108 66/85/108
f 80/87/109 91/88/109 67/65/109
f 67/65/110 91/88/110 70/57/110
f 91/88/111 81/66/111 70/57/111
f 71/89/112 93/90/112 72/67/112
f 93/90/113 94/91/113 72/67/113
f 72/67/114 94/91/114 82/76/114
f 94/91/115 95/92/115 82/76/115
f 95/92/116 96/93/116 82/76/116
f 82/76/117 96/93/117 83/77/117
f 96/93/118 97/94/118 83/77/118
f 83/77/119 97/94/119 84/78/119
f 97/94/120 98/95/120 84/78/120
f 84/78/121 98/95/121 74/69/121
f 98/95/122 99/96/122 74/69/122
f 74/69/123 99/96/123 85/79/123
f 85/79/124 99/96/124 86/80/124
f 88/82/125 100/97/125 89/83/125
f 100/97/126 101/98/126 89/83/126
f 89/83/127 101/98/127 90/84/127
f 101/98/128 102/99/128 90/84/128
f 90/84/129 102/99/129 79/86/129
f 102/99/130 103/100/130 79/86/130
f 79/86/131 103/100/131 80/87/131
f 103/100/132 104/101/132 80/87/132
f 80/87/133 104/101/133 91/88/133
f 91/88/134 105/102/134 81/66/134
f 92/103/135 93/90/135 71/89/135
f 93/90/136 106/104/136 94/91/136
f 106/104/137 107/105/137 94/91/137
f 94/91/138 107/105/138 95/92/138
f 107/105/139 108/106/139 95/92/139
f 108/106/140 109/107/140 95/92/140
f 95/92/141 109/107/141 96/93/141
f 109/107/142 110/108/142 96/93/142
f 101/98/143 111/109/143 102/99/143
f 111/109/144 112/110/144 102/99/144
f 102/99/145 112/110/145 103/100/145
f 112/110/146 113/111/146 103/100/146
f 113/111/147 114/112/147 103/100/147
f 103/100/148 114/112/148 104/101/148
f 104/101/149 115/113/149 91/88/149
f 115/113/150 105/102/150 91/88/150
f 92/103/151 116/114/151 93/90/151
f 116/114/152 117/115/152 93/90/152
f 118/116/153 119/117/153 106/104/153
f 106/104/154 119/117/154 107/105/154
f 119/117/155 120/118/155 107/105/155
f 107/105/156 120/118/156 108/106/156
f 120/118/157 121/119/157 108/106/157
f 108/106/158 121/119/158 109/107/158
f 121/119/159 122/120/159 109/107/159
f 109/107/160 122/120/160 110/108/160
f 111/109/161 123/121/161 112/110/161
f 113/111/162 124/122/162 114/112/162
l 30 38
l 36 37
